<svg width="1037" height="653" viewBox="0 0 1037 653" fill="none" xmlns="http://www.w3.org/2000/svg">
<g clip-path="url(#clip0_184_783)">
<rect width="1037" height="653" fill="white"/>
<mask id="mask0_184_783" style="mask-type:luminance" maskUnits="userSpaceOnUse" x="0" y="0" width="1037" height="653">
<path d="M1037 0H0V653H1037V0Z" fill="white"/>
</mask>
<g mask="url(#mask0_184_783)">
<path d="M1037 0H0V653H1037V0Z" fill="white"/>
<path d="M-54.752 -14.667L-54.752 653L1091.75 653V-14.667L-54.752 -14.667Z" fill="white"/>
<path d="M-54.752 638.399H1091.75" stroke="#D5E5FF" stroke-dasharray="5 5"/>
<path d="M-54.752 610.198H1091.75" stroke="#D5E5FF" stroke-dasharray="5 5"/>
<path d="M-54.752 581.997H1091.75" stroke="#D5E5FF" stroke-dasharray="5 5"/>
<path d="M-54.752 553.795H1091.75" stroke="#D5E5FF" stroke-dasharray="5 5"/>
<path d="M-54.752 525.594H1091.75" stroke="#D5E5FF" stroke-dasharray="5 5"/>
<path d="M-54.752 497.393H1091.75" stroke="#D5E5FF" stroke-dasharray="5 5"/>
<path d="M-54.752 469.191H1091.75" stroke="#D5E5FF" stroke-dasharray="5 5"/>
<path d="M-54.752 440.99H1091.75" stroke="#D5E5FF" stroke-dasharray="5 5"/>
<path d="M-54.752 412.789H1091.75" stroke="#D5E5FF" stroke-dasharray="5 5"/>
<path d="M-54.752 384.587H1091.75" stroke="#D5E5FF" stroke-dasharray="5 5"/>
<path d="M-54.752 356.386H1091.75" stroke="#D5E5FF" stroke-dasharray="5 5"/>
<path d="M-54.752 328.185H1091.75" stroke="#D5E5FF" stroke-dasharray="5 5"/>
<path d="M-54.752 299.983H1091.75" stroke="#D5E5FF" stroke-dasharray="5 5"/>
<path d="M-54.752 271.782H1091.75" stroke="#D5E5FF" stroke-dasharray="5 5"/>
<path d="M-54.752 243.58H1091.75" stroke="#D5E5FF" stroke-dasharray="5 5"/>
<path d="M-54.752 215.379H1091.75" stroke="#D5E5FF" stroke-dasharray="5 5"/>
<path d="M-54.752 187.178H1091.75" stroke="#D5E5FF" stroke-dasharray="5 5"/>
<path d="M-54.752 158.976H1091.75" stroke="#D5E5FF" stroke-dasharray="5 5"/>
<path d="M-54.752 130.775H1091.75" stroke="#D5E5FF" stroke-dasharray="5 5"/>
<path d="M-54.752 102.573H1091.75" stroke="#D5E5FF" stroke-dasharray="5 5"/>
<path d="M-54.752 74.3721H1091.75" stroke="#D5E5FF" stroke-dasharray="5 5"/>
<path d="M-54.752 46.1709H1091.75" stroke="#D5E5FF" stroke-dasharray="5 5"/>
<path d="M-54.752 17.9697H1091.75" stroke="#D5E5FF" stroke-dasharray="5 5"/>
<path d="M23.5703 653V-14.667" stroke="#D5E5FF" stroke-dasharray="5 5"/>
<path d="M55.4181 653L55.418 -14.667" stroke="#D5E5FF" stroke-dasharray="5 5"/>
<path d="M87.2646 653V-14.667" stroke="#D5E5FF" stroke-dasharray="5 5"/>
<path d="M119.112 653V-14.667" stroke="#D5E5FF" stroke-dasharray="5 5"/>
<path d="M150.959 653V-14.667" stroke="#D5E5FF" stroke-dasharray="5 5"/>
<path d="M182.807 653V-14.667" stroke="#D5E5FF" stroke-dasharray="5 5"/>
<path d="M214.654 653V-14.667" stroke="#D5E5FF" stroke-dasharray="5 5"/>
<path d="M246.501 653V-14.667" stroke="#D5E5FF" stroke-dasharray="5 5"/>
<path d="M278.349 653V-14.667" stroke="#D5E5FF" stroke-dasharray="5 5"/>
<path d="M310.196 653V-14.667" stroke="#D5E5FF" stroke-dasharray="5 5"/>
<path d="M342.043 653V-14.667" stroke="#D5E5FF" stroke-dasharray="5 5"/>
<path d="M373.891 653V-14.667" stroke="#D5E5FF" stroke-dasharray="5 5"/>
<path d="M405.738 653V-14.667" stroke="#D5E5FF" stroke-dasharray="5 5"/>
<path d="M437.585 653V-14.667" stroke="#D5E5FF" stroke-dasharray="5 5"/>
<path d="M469.433 653V-14.667" stroke="#D5E5FF" stroke-dasharray="5 5"/>
<path d="M501.28 653V-14.667" stroke="#D5E5FF" stroke-dasharray="5 5"/>
<path d="M533.127 653V-14.667" stroke="#D5E5FF" stroke-dasharray="5 5"/>
<path d="M564.975 653V-14.667" stroke="#D5E5FF" stroke-dasharray="5 5"/>
<path d="M596.822 653V-14.667" stroke="#D5E5FF" stroke-dasharray="5 5"/>
<path d="M628.669 653V-14.667" stroke="#D5E5FF" stroke-dasharray="5 5"/>
<path d="M660.518 653V-14.667" stroke="#D5E5FF" stroke-dasharray="5 5"/>
<path d="M692.364 653V-14.667" stroke="#D5E5FF" stroke-dasharray="5 5"/>
<path d="M724.211 653V-14.667" stroke="#D5E5FF" stroke-dasharray="5 5"/>
<path d="M756.059 653V-14.667" stroke="#D5E5FF" stroke-dasharray="5 5"/>
<path d="M787.906 653V-14.667" stroke="#D5E5FF" stroke-dasharray="5 5"/>
<path d="M819.753 653V-14.667" stroke="#D5E5FF" stroke-dasharray="5 5"/>
<path d="M851.602 653V-14.667" stroke="#D5E5FF" stroke-dasharray="5 5"/>
<path d="M883.448 653V-14.667" stroke="#D5E5FF" stroke-dasharray="5 5"/>
<path d="M915.295 653V-14.667" stroke="#D5E5FF" stroke-dasharray="5 5"/>
<path d="M947.143 653V-14.667" stroke="#D5E5FF" stroke-dasharray="5 5"/>
<path d="M978.99 653V-14.667" stroke="#D5E5FF" stroke-dasharray="5 5"/>
<path d="M1010.84 653V-14.667" stroke="#D5E5FF" stroke-dasharray="5 5"/>
</g>
</g>
<defs>
<clipPath id="clip0_184_783">
<rect width="1037" height="653" fill="white"/>
</clipPath>
</defs>
</svg>
