<svg width="267" height="114" viewBox="0 0 267 114" fill="none" xmlns="http://www.w3.org/2000/svg">
<g filter="url(#filter0_i_179_97)">
<rect x="4" y="4" width="259" height="106" rx="26" fill="url(#paint0_linear_179_97)"/>
<path d="M62.157 38.828C61.917 39.74 61.005 40.46 58.365 41.564C56.205 42.476 54.621 43.1 52.845 43.724C51.213 44.3 50.061 43.628 49.581 42.38C49.053 41.036 49.293 39.692 50.829 39.164C52.749 38.492 54.813 37.676 57.117 36.668C58.557 36.044 58.941 35.612 58.941 34.796V34.412H51.885C50.493 34.412 49.821 33.308 49.821 31.964C49.821 30.62 50.493 29.516 51.885 29.516H58.941V27.548C58.941 25.772 60.429 24.956 62.013 24.956C63.597 24.956 65.085 25.772 65.085 27.548V29.516H71.757C73.149 29.516 73.821 30.62 73.821 31.964C73.821 33.308 73.149 34.412 71.757 34.412H65.085V34.604C65.085 35.42 65.469 35.852 66.909 36.476C68.877 37.34 71.037 38.204 72.333 38.684C73.917 39.26 74.061 40.604 73.629 41.804C73.197 43.052 71.949 43.676 70.461 43.148C69.021 42.62 67.485 41.996 65.661 41.228C63.021 40.124 62.397 39.596 62.205 38.828H62.157ZM83.181 28.46V36.092H87.069C88.605 36.092 89.277 37.292 89.277 38.732C89.277 40.22 88.605 41.42 87.069 41.42H83.181V48.476C83.181 50.204 81.741 51.02 80.157 51.02C78.573 51.02 77.133 50.204 77.133 48.476V28.46C77.133 26.732 78.573 25.916 80.157 25.916C81.741 25.916 83.181 26.732 83.181 28.46ZM73.389 49.868C67.197 50.396 58.413 50.684 49.581 50.684C48.189 50.684 47.517 49.58 47.517 48.188C47.517 46.844 48.189 45.74 49.581 45.74C52.701 45.74 55.869 45.74 59.037 45.692V44.732C59.037 42.956 60.525 42.188 62.061 42.188C63.597 42.188 65.085 42.956 65.085 44.732V45.548C67.725 45.452 70.317 45.26 72.909 45.02C74.397 44.876 75.165 45.836 75.261 47.18C75.357 48.524 74.829 49.724 73.389 49.868ZM55.725 52.796H79.101C82.173 52.796 83.181 53.756 83.181 56.78V60.044C83.181 63.068 82.173 64.028 79.101 64.028H60.477C59.997 64.028 59.757 64.268 59.757 64.748V65.42C59.757 65.9 59.997 66.14 60.477 66.14H82.173C83.517 66.14 84.141 67.292 84.141 68.444C84.141 69.692 83.517 70.796 82.173 70.796H57.933C54.861 70.796 53.853 69.836 53.853 66.812V63.548C53.853 60.524 54.861 59.564 57.933 59.564H76.557C77.037 59.564 77.277 59.324 77.277 58.844V58.172C77.277 57.692 77.037 57.452 76.557 57.452H55.725C54.381 57.452 53.757 56.348 53.757 55.1C53.757 53.948 54.381 52.796 55.725 52.796ZM92.5005 38.636C92.5005 32.3 96.2925 27.692 103.733 27.692C111.173 27.692 114.965 32.3 114.965 38.636C114.965 44.972 111.173 49.58 103.733 49.58C96.2925 49.58 92.5005 44.972 92.5005 38.636ZM109.109 38.636C109.109 35.372 107.669 32.78 103.733 32.78C99.7965 32.78 98.3565 35.372 98.3565 38.636C98.3565 41.9 99.7965 44.492 103.733 44.492C107.669 44.492 109.109 41.9 109.109 38.636ZM128.405 28.508V49.772C128.405 51.548 126.917 52.364 125.381 52.364C123.845 52.364 122.357 51.548 122.357 49.772V45.692H118.133C116.645 45.692 116.021 44.492 116.021 43.052C116.021 41.66 116.645 40.46 118.133 40.46H122.357V37.052H118.133C116.645 37.052 116.021 35.852 116.021 34.412C116.021 33.02 116.645 31.82 118.133 31.82H122.357V28.508C122.357 26.732 123.845 25.916 125.381 25.916C126.917 25.916 128.405 26.732 128.405 28.508ZM99.5565 61.964C99.5565 55.724 105.029 52.652 114.052 52.652C123.077 52.652 128.549 55.724 128.549 61.964C128.549 68.204 123.077 71.276 114.052 71.276C105.029 71.276 99.5565 68.204 99.5565 61.964ZM122.453 61.964C122.453 59.324 120.101 57.548 114.052 57.548C108.005 57.548 105.653 59.324 105.653 61.964C105.653 64.604 108.005 66.38 114.052 66.38C120.101 66.38 122.453 64.604 122.453 61.964ZM148.14 39.308C154.716 39.308 158.796 43.148 158.796 48.956C158.796 54.764 154.716 58.604 148.14 58.604C141.564 58.604 137.484 54.764 137.484 48.956C137.484 43.148 141.564 39.308 148.14 39.308ZM136.956 31.724H145.068V28.412C145.068 26.636 146.556 25.82 148.14 25.82C149.724 25.82 151.212 26.636 151.212 28.412V31.724H158.748C160.236 31.724 160.908 32.924 160.908 34.316C160.908 35.708 160.236 36.908 158.748 36.908H136.956C135.468 36.908 134.796 35.708 134.796 34.316C134.796 32.924 135.468 31.724 136.956 31.724ZM148.14 53.708C151.212 53.708 153.228 51.884 153.228 48.956C153.228 46.028 151.212 44.204 148.14 44.204C145.068 44.204 143.052 46.028 143.052 48.956C143.052 51.884 145.068 53.708 148.14 53.708ZM169.74 28.508V40.556H174.252C175.788 40.556 176.46 41.756 176.46 43.196C176.46 44.684 175.788 45.884 174.252 45.884H169.74V65.276C169.74 67.052 168.252 67.868 166.716 67.868C165.132 67.868 163.644 67.052 163.644 65.276V28.508C163.644 26.732 165.132 25.916 166.716 25.916C168.252 25.916 169.74 26.732 169.74 28.508ZM194.516 34.412H183.188C181.7 34.412 181.028 33.212 181.028 31.82C181.028 30.38 181.7 29.18 183.188 29.18H197.636C200.708 29.18 201.716 30.14 201.716 33.164V38.492C201.716 46.604 199.508 49.388 184.916 58.316C183.572 59.132 181.94 58.412 181.172 57.26C180.404 56.108 180.26 54.284 181.652 53.42C194.804 45.452 195.62 44.012 195.62 38.3V35.516C195.62 34.7 195.332 34.412 194.516 34.412ZM215.492 28.508V65.276C215.492 67.052 214.004 67.868 212.372 67.868C210.788 67.868 209.3 67.052 209.3 65.276V28.508C209.3 26.732 210.788 25.916 212.372 25.916C214.004 25.916 215.492 26.732 215.492 28.508Z" fill="white"/>
<path d="M62.157 38.828V34.828H59.0734L58.2887 37.81L62.157 38.828ZM58.365 41.564L56.8218 37.8737L56.8091 37.879L58.365 41.564ZM52.845 43.724L51.5191 39.9502L51.5137 39.952L52.845 43.724ZM49.581 42.38L53.3144 40.9441L53.3092 40.9307L53.304 40.9174L49.581 42.38ZM50.829 39.164L52.1293 42.9467L52.1399 42.9431L52.1504 42.9394L50.829 39.164ZM57.117 36.668L55.5266 32.9978L55.5137 33.0034L57.117 36.668ZM58.941 34.412H62.941V30.412H58.941V34.412ZM58.941 29.516V33.516H62.941V29.516H58.941ZM65.085 29.516H61.085V33.516H65.085V29.516ZM65.085 34.412V30.412H61.085V34.412H65.085ZM66.909 36.476L68.517 32.8134L68.5082 32.8096L68.4994 32.8058L66.909 36.476ZM72.333 38.684L70.9437 42.435L70.9549 42.4391L70.966 42.4432L72.333 38.684ZM73.629 41.804L69.8655 40.4491L69.8571 40.4723L69.8491 40.4956L73.629 41.804ZM70.461 43.148L69.084 46.9035L69.1036 46.9107L69.1234 46.9177L70.461 43.148ZM65.661 41.228L67.2132 37.5414L67.2042 37.5377L65.661 41.228ZM62.205 38.828L66.0856 37.8579L65.3281 34.828H62.205V38.828ZM83.181 36.092H79.181V40.092H83.181V36.092ZM83.181 41.42V37.42H79.181V41.42H83.181ZM73.389 49.868L73.7289 53.8535L73.758 53.8511L73.787 53.8481L73.389 49.868ZM59.037 45.692L59.0976 49.6915L63.037 49.6319V45.692H59.037ZM65.085 45.548H61.085V49.6961L65.2304 49.5454L65.085 45.548ZM72.909 45.02L73.2778 49.003L73.286 49.0022L73.2943 49.0014L72.909 45.02ZM75.261 47.18L79.2508 46.895L79.2508 46.895L75.261 47.18ZM58.2887 37.81C58.3624 37.5301 58.4912 37.2751 58.6399 37.0778C58.7711 36.9038 58.8605 36.8507 58.7927 36.9005C58.7215 36.9528 58.5484 37.0667 58.2071 37.2424C57.8703 37.4157 57.4211 37.623 56.8218 37.8737L59.9082 45.2543C61.2924 44.6755 62.543 44.0722 63.5293 43.3475C64.6187 42.5472 65.6073 41.4342 66.0253 39.846L58.2887 37.81ZM56.8091 37.879C54.6994 38.7698 53.1952 39.3612 51.5191 39.9502L54.1709 47.4978C56.0468 46.8388 57.7106 46.1822 59.9209 45.249L56.8091 37.879ZM51.5137 39.952C51.4463 39.9758 51.8521 39.8279 52.4422 40.0972C53.0208 40.3614 53.2553 40.7904 53.3144 40.9441L45.8476 43.8159C46.3867 45.2176 47.4372 46.6066 49.1198 47.3748C50.8139 48.1481 52.6117 48.0482 54.1763 47.496L51.5137 39.952ZM53.304 40.9174C53.2542 40.7906 53.4268 41.1149 53.2337 41.7069C53.1291 42.0273 52.9404 42.3374 52.6832 42.5845C52.4347 42.8233 52.2114 42.9185 52.1293 42.9467L49.5287 35.3813C47.7349 35.9979 46.2535 37.3094 45.6283 39.2251C45.0632 40.9571 45.3798 42.6254 45.858 43.8426L53.304 40.9174ZM52.1504 42.9394C54.1802 42.229 56.3389 41.3745 58.7203 40.3326L55.5137 33.0034C53.2871 33.9775 51.3178 34.755 49.5076 35.3886L52.1504 42.9394ZM58.7074 40.3382C59.4797 40.0036 60.5859 39.4805 61.457 38.5716C62.6025 37.3763 62.941 35.9856 62.941 34.796H54.941C54.941 34.6915 54.9524 34.3921 55.0884 34.0083C55.2343 33.597 55.4593 33.2678 55.681 33.0364C55.8743 32.8347 56.0157 32.759 55.9739 32.7837C55.9337 32.8074 55.806 32.8767 55.5266 32.9978L58.7074 40.3382ZM62.941 34.796V34.412H54.941V34.796H62.941ZM58.941 30.412H51.885V38.412H58.941V30.412ZM51.885 30.412C52.0754 30.412 52.374 30.4526 52.7096 30.614C53.0472 30.7765 53.3137 31.0094 53.4999 31.2511C53.8446 31.6986 53.821 32.0305 53.821 31.964H45.821C45.821 33.2415 46.1334 34.7974 47.1621 36.1329C48.2929 37.6009 50.0006 38.412 51.885 38.412V30.412ZM53.821 31.964C53.821 31.8975 53.8446 32.2294 53.4999 32.6769C53.3137 32.9186 53.0472 33.1515 52.7096 33.314C52.374 33.4754 52.0754 33.516 51.885 33.516V25.516C50.0006 25.516 48.2929 26.3271 47.1621 27.7951C46.1334 29.1306 45.821 30.6865 45.821 31.964H53.821ZM51.885 33.516H58.941V25.516H51.885V33.516ZM62.941 29.516V27.548H54.941V29.516H62.941ZM62.941 27.548C62.941 27.6766 62.9102 27.916 62.771 28.1925C62.6332 28.4662 62.4453 28.6647 62.2776 28.79C61.9843 29.0093 61.8415 28.956 62.013 28.956V20.956C60.6005 20.956 58.9217 21.3107 57.4884 22.382C55.9172 23.5563 54.941 25.3872 54.941 27.548H62.941ZM62.013 28.956C62.1845 28.956 62.0417 29.0093 61.7484 28.79C61.5807 28.6647 61.3928 28.4662 61.255 28.1925C61.1158 27.916 61.085 27.6766 61.085 27.548H69.085C69.085 25.3872 68.1088 23.5563 66.5376 22.382C65.1043 21.3107 63.4255 20.956 62.013 20.956V28.956ZM61.085 27.548V29.516H69.085V27.548H61.085ZM65.085 33.516H71.757V25.516H65.085V33.516ZM71.757 33.516C71.5666 33.516 71.268 33.4754 70.9324 33.314C70.5948 33.1515 70.3283 32.9186 70.1421 32.6769C69.7974 32.2294 69.821 31.8975 69.821 31.964H77.821C77.821 30.6865 77.5086 29.1306 76.4799 27.7951C75.3491 26.3271 73.6414 25.516 71.757 25.516V33.516ZM69.821 31.964C69.821 32.0305 69.7974 31.6986 70.1421 31.2511C70.3283 31.0094 70.5948 30.7765 70.9324 30.614C71.268 30.4526 71.5666 30.412 71.757 30.412V38.412C73.6414 38.412 75.3491 37.6009 76.4799 36.1329C77.5086 34.7974 77.821 33.2415 77.821 31.964H69.821ZM71.757 30.412H65.085V38.412H71.757V30.412ZM61.085 34.412V34.604H69.085V34.412H61.085ZM61.085 34.604C61.085 35.7936 61.4235 37.1843 62.569 38.3796C63.4401 39.2885 64.5463 39.8116 65.3186 40.1462L68.4994 32.8058C68.22 32.6847 68.0923 32.6154 68.0521 32.5917C68.0103 32.567 68.1517 32.6427 68.345 32.8444C68.5667 33.0758 68.7917 33.405 68.9376 33.8163C69.0736 34.2001 69.085 34.4995 69.085 34.604H61.085ZM65.301 40.1386C67.3378 41.0327 69.5707 41.9265 70.9437 42.435L73.7223 34.933C72.5033 34.4815 70.4162 33.6473 68.517 32.8134L65.301 40.1386ZM70.966 42.4432C70.9076 42.4219 70.6983 42.3323 70.4595 42.0974C70.212 41.8539 70.0308 41.55 69.9302 41.238C69.748 40.6731 69.9 40.3532 69.8655 40.4491L77.3926 43.1589C77.79 42.0548 78.0861 40.4629 77.5438 38.782C76.9376 36.9027 75.4999 35.5793 73.7 34.9248L70.966 42.4432ZM69.8491 40.4956C69.9661 40.1573 70.2761 39.7276 70.8128 39.4884C71.339 39.2539 71.7318 39.3546 71.7986 39.3783L69.1234 46.9177C70.6782 47.4694 72.439 47.5221 74.0692 46.7956C75.7099 46.0644 76.8599 44.6987 77.4089 43.1124L69.8491 40.4956ZM71.838 39.3925C70.4862 38.8968 69.0178 38.3013 67.2132 37.5415L64.1088 44.9145C65.9522 45.6907 67.5558 46.3432 69.084 46.9035L71.838 39.3925ZM67.2042 37.5377C66.589 37.2804 66.1462 37.0794 65.8256 36.9188C65.4973 36.7543 65.3683 36.6674 65.3472 36.6522C65.3351 36.6436 65.5015 36.7596 65.6927 37.0232C65.9062 37.3175 66.0271 37.6239 66.0856 37.8579L58.3244 39.7981C58.691 41.2644 59.5514 42.3398 60.6828 43.1518C61.5955 43.8067 62.7854 44.3612 64.1178 44.9183L67.2042 37.5377ZM62.205 34.828H62.157V42.828H62.205V34.828ZM79.181 28.46V36.092H87.181V28.46H79.181ZM83.181 40.092H87.069V32.092H83.181V40.092ZM87.069 40.092C86.9236 40.092 86.6469 40.0609 86.3198 39.9026C85.9881 39.7422 85.7275 39.51 85.549 39.272C85.2273 38.843 85.277 38.5607 85.277 38.732H93.277C93.277 37.4633 92.9907 35.861 91.949 34.472C90.7877 32.9236 89.0176 32.092 87.069 32.092V40.092ZM85.277 38.732C85.277 38.9511 85.2169 38.6823 85.5348 38.2531C85.7126 38.0131 85.9751 37.7763 86.3119 37.6124C86.6436 37.451 86.9238 37.42 87.069 37.42V45.42C89.021 45.42 90.8005 44.5846 91.9632 43.0149C93.0011 41.6137 93.277 40.0009 93.277 38.732H85.277ZM87.069 37.42H83.181V45.42H87.069V37.42ZM79.181 41.42V48.476H87.181V41.42H79.181ZM79.181 48.476C79.181 48.339 79.2132 48.0942 79.3535 47.8136C79.4927 47.5353 79.6836 47.3311 79.8575 47.2001C80.1657 46.9682 80.3257 47.02 80.157 47.02V55.02C81.5723 55.02 83.2443 54.6638 84.6685 53.5919C86.2264 52.4193 87.181 50.6017 87.181 48.476H79.181ZM80.157 47.02C79.9883 47.02 80.1483 46.9682 80.4565 47.2001C80.6304 47.331 80.8213 47.5353 80.9605 47.8136C81.1008 48.0942 81.133 48.339 81.133 48.476H73.133C73.133 50.6017 74.0876 52.4193 75.6455 53.5919C77.0697 54.6638 78.7417 55.02 80.157 55.02V47.02ZM81.133 48.476V28.46H73.133V48.476H81.133ZM81.133 28.46C81.133 28.597 81.1008 28.8418 80.9605 29.1224C80.8213 29.4007 80.6304 29.6049 80.4565 29.7359C80.1483 29.9678 79.9883 29.916 80.157 29.916V21.916C78.7417 21.916 77.0697 22.2722 75.6455 23.3441C74.0876 24.5167 73.133 26.3343 73.133 28.46H81.133ZM80.157 29.916C80.3257 29.916 80.1657 29.9678 79.8575 29.7359C79.6836 29.6049 79.4927 29.4007 79.3535 29.1224C79.2132 28.8418 79.181 28.597 79.181 28.46H87.181C87.181 26.3343 86.2264 24.5167 84.6685 23.3441C83.2443 22.2722 81.5723 21.916 80.157 21.916V29.916ZM73.0491 45.8825C67.0116 46.3973 58.3506 46.684 49.581 46.684V54.684C58.4754 54.684 67.3824 54.3947 73.7289 53.8535L73.0491 45.8825ZM49.581 46.684C49.7713 46.684 50.0735 46.7245 50.414 46.8894C50.7573 47.0555 51.026 47.2934 51.2116 47.5377C51.5531 47.987 51.517 48.3052 51.517 48.188H43.517C43.517 49.4628 43.8169 51.029 44.8424 52.3783C45.9752 53.8689 47.6929 54.684 49.581 54.684V46.684ZM51.517 48.188C51.517 48.1215 51.5406 48.4534 51.1959 48.9009C51.0097 49.1426 50.7432 49.3755 50.4056 49.538C50.07 49.6994 49.7714 49.74 49.581 49.74V41.74C47.6966 41.74 45.9889 42.5511 44.8581 44.0191C43.8294 45.3546 43.517 46.9105 43.517 48.188H51.517ZM49.581 49.74C52.6961 49.74 55.8943 49.7401 59.0976 49.6915L58.9764 41.6925C55.8437 41.7399 52.7059 41.74 49.581 41.74V49.74ZM63.037 45.692V44.732H55.037V45.692H63.037ZM63.037 44.732C63.037 44.8608 63.006 45.1089 62.8595 45.3973C62.7142 45.6833 62.5159 45.8894 62.3399 46.0185C62.0357 46.2419 61.887 46.188 62.061 46.188V38.188C60.699 38.188 59.0383 38.5181 57.6061 39.5695C56.022 40.7322 55.037 42.5624 55.037 44.732H63.037ZM62.061 46.188C62.235 46.188 62.0863 46.2419 61.7821 46.0185C61.6061 45.8894 61.4078 45.6833 61.2625 45.3973C61.116 45.1089 61.085 44.8608 61.085 44.732H69.085C69.085 42.5624 68.1 40.7322 66.5159 39.5695C65.0837 38.5181 63.423 38.188 62.061 38.188V46.188ZM61.085 44.732V45.548H69.085V44.732H61.085ZM65.2304 49.5454C67.9678 49.4458 70.6384 49.2474 73.2778 49.003L72.5402 41.037C69.9956 41.2726 67.4822 41.4582 64.9396 41.5506L65.2304 49.5454ZM73.2943 49.0014C73.2087 49.0097 72.9793 49.0162 72.6684 48.9164C72.3453 48.8127 72.0333 48.6251 71.7786 48.3704C71.5334 48.1252 71.4034 47.881 71.3394 47.7182C71.2773 47.5603 71.2712 47.4659 71.2712 47.465L79.2508 46.895C79.1577 45.5913 78.7072 43.9854 77.4354 42.7136C76.064 41.3422 74.2513 40.8714 72.5237 41.0386L73.2943 49.0014ZM71.2712 47.465C71.2811 47.6047 71.2192 47.3234 71.4973 46.8729C71.6517 46.6227 71.8891 46.3642 72.2101 46.1672C72.5288 45.9716 72.8176 45.9052 72.991 45.8879L73.787 53.8481C75.6978 53.6571 77.3247 52.6627 78.3047 51.0751C79.1828 49.6526 79.3369 48.0993 79.2508 46.895L71.2712 47.465ZM55.725 56.796H79.101V48.796H55.725V56.796ZM79.101 56.796C79.2414 56.796 79.3661 56.7988 79.4768 56.8036C79.5876 56.8085 79.6814 56.8154 79.7603 56.8233C79.8392 56.8312 79.9 56.8398 79.9449 56.8474C79.9898 56.8551 80.0157 56.8613 80.0255 56.8639C80.0461 56.8693 79.9896 56.8568 79.8873 56.8033C79.8356 56.7762 79.7743 56.7397 79.7074 56.6919C79.6403 56.6438 79.572 56.5874 79.5055 56.5227C79.4389 56.458 79.3791 56.39 79.3268 56.321C79.2746 56.2523 79.2335 56.1874 79.2018 56.1302C79.1387 56.0164 79.1194 55.945 79.1202 55.948C79.1206 55.9493 79.1253 55.9667 79.1319 56.0032C79.1386 56.0398 79.1465 56.0924 79.1541 56.1635C79.1617 56.2346 79.1685 56.321 79.1733 56.4246C79.1782 56.5282 79.181 56.6461 79.181 56.78H87.181C87.181 55.0538 86.9472 52.5991 85.0805 50.7853C83.2472 49.0039 80.8083 48.796 79.101 48.796V56.796ZM79.181 56.78V60.044H87.181V56.78H79.181ZM79.181 60.044C79.181 60.1779 79.1782 60.2958 79.1733 60.3994C79.1685 60.503 79.1617 60.5894 79.1541 60.6605C79.1465 60.7316 79.1386 60.7842 79.1319 60.8208C79.1253 60.8573 79.1206 60.8747 79.1202 60.876C79.1194 60.879 79.1387 60.8076 79.2018 60.6938C79.2335 60.6366 79.2746 60.5717 79.3268 60.503C79.3791 60.434 79.4389 60.366 79.5055 60.3013C79.572 60.2366 79.6403 60.1802 79.7074 60.1321C79.7743 60.0843 79.8356 60.0478 79.8873 60.0207C79.9896 59.9672 80.0461 59.9547 80.0255 59.9601C80.0157 59.9627 79.9898 59.9689 79.9449 59.9766C79.9 59.9842 79.8392 59.9928 79.7603 60.0007C79.6814 60.0086 79.5876 60.0155 79.4768 60.0204C79.3661 60.0252 79.2414 60.028 79.101 60.028V68.028C80.8083 68.028 83.2472 67.8201 85.0805 66.0387C86.9472 64.2249 87.181 61.7702 87.181 60.044H79.181ZM79.101 60.028H60.477V68.028H79.101V60.028ZM60.477 60.028C59.6204 60.028 58.2433 60.2449 57.1086 61.3796C55.9739 62.5143 55.757 63.8914 55.757 64.748H63.757C63.757 65.1246 63.6601 66.1417 62.7654 67.0364C61.8707 67.9311 60.8536 68.028 60.477 68.028V60.028ZM55.757 64.748V65.42H63.757V64.748H55.757ZM55.757 65.42C55.757 66.2766 55.9739 67.6537 57.1086 68.7884C58.2433 69.9231 59.6204 70.14 60.477 70.14V62.14C60.8536 62.14 61.8707 62.2369 62.7654 63.1316C63.6601 64.0263 63.757 65.0434 63.757 65.42H55.757ZM60.477 70.14H82.173V62.14H60.477V70.14ZM82.173 70.14C81.9217 70.14 81.5849 70.0819 81.2328 69.9027C80.8858 69.726 80.6307 69.4862 80.461 69.26C80.1527 68.8489 80.141 68.524 80.141 68.444H88.141C88.141 67.212 87.8173 65.7351 86.861 64.46C85.8077 63.0556 84.1469 62.14 82.173 62.14V70.14ZM80.141 68.444C80.141 68.4294 80.1421 68.3595 80.1756 68.2418C80.209 68.1247 80.2864 67.9209 80.461 67.688C80.6437 67.4444 80.9129 67.1981 81.2673 67.022C81.6224 66.8455 81.949 66.796 82.173 66.796V74.796C84.0895 74.796 85.7729 73.9388 86.861 72.488C87.8433 71.1782 88.141 69.6689 88.141 68.444H80.141ZM82.173 66.796H57.933V74.796H82.173V66.796ZM57.933 66.796C57.7927 66.796 57.6679 66.7932 57.5572 66.7884C57.4464 66.7835 57.3526 66.7766 57.2737 66.7687C57.1948 66.7608 57.134 66.7522 57.0891 66.7446C57.0442 66.7369 57.0183 66.7307 57.0085 66.7281C56.9879 66.7227 57.0444 66.7352 57.1467 66.7887C57.1984 66.8158 57.2597 66.8523 57.3266 66.9001C57.3937 66.9482 57.462 67.0046 57.5285 67.0693C57.5951 67.134 57.6549 67.202 57.7072 67.271C57.7594 67.3397 57.8005 67.4046 57.8322 67.4618C57.8953 67.5756 57.9146 67.647 57.9138 67.644C57.9134 67.6427 57.9087 67.6253 57.9021 67.5888C57.8954 67.5522 57.8875 67.4996 57.8799 67.4285C57.8723 67.3574 57.8655 67.271 57.8607 67.1674C57.8558 67.0638 57.853 66.9459 57.853 66.812H49.853C49.853 68.5382 50.0868 70.9929 51.9535 72.8067C53.7868 74.5881 56.2257 74.796 57.933 74.796V66.796ZM57.853 66.812V63.548H49.853V66.812H57.853ZM57.853 63.548C57.853 63.4141 57.8558 63.2962 57.8607 63.1926C57.8655 63.089 57.8723 63.0026 57.8799 62.9315C57.8875 62.8604 57.8954 62.8078 57.9021 62.7712C57.9087 62.7347 57.9134 62.7173 57.9138 62.716C57.9146 62.713 57.8953 62.7844 57.8322 62.8982C57.8005 62.9554 57.7594 63.0203 57.7072 63.089C57.6549 63.158 57.5951 63.226 57.5285 63.2907C57.462 63.3554 57.3937 63.4118 57.3266 63.4599C57.2597 63.5077 57.1984 63.5442 57.1467 63.5713C57.0444 63.6248 56.9879 63.6373 57.0085 63.6319C57.0183 63.6293 57.0442 63.6231 57.0891 63.6154C57.134 63.6078 57.1948 63.5992 57.2737 63.5913C57.3526 63.5834 57.4464 63.5765 57.5572 63.5716C57.6679 63.5668 57.7927 63.564 57.933 63.564V55.564C56.2257 55.564 53.7868 55.7719 51.9535 57.5533C50.0868 59.3671 49.853 61.8218 49.853 63.548H57.853ZM57.933 63.564H76.557V55.564H57.933V63.564ZM76.557 63.564C77.4136 63.564 78.7907 63.3471 79.9254 62.2124C81.0601 61.0777 81.277 59.7006 81.277 58.844H73.277C73.277 58.4674 73.3739 57.4503 74.2686 56.5556C75.1633 55.6609 76.1804 55.564 76.557 55.564V63.564ZM81.277 58.844V58.172H73.277V58.844H81.277ZM81.277 58.172C81.277 57.3154 81.0601 55.9383 79.9254 54.8036C78.7907 53.6689 77.4136 53.452 76.557 53.452V61.452C76.1804 61.452 75.1633 61.3551 74.2686 60.4604C73.3739 59.5657 73.277 58.5486 73.277 58.172H81.277ZM76.557 53.452H55.725V61.452H76.557V53.452ZM55.725 53.452C55.949 53.452 56.2756 53.5015 56.6307 53.678C56.9851 53.8541 57.2543 54.1004 57.437 54.344C57.6116 54.5769 57.689 54.7807 57.7224 54.8978C57.7559 55.0155 57.757 55.0854 57.757 55.1H49.757C49.757 56.3249 50.0547 57.8342 51.037 59.144C52.1251 60.5948 53.8085 61.452 55.725 61.452V53.452ZM57.757 55.1C57.757 55.18 57.7453 55.5049 57.437 55.916C57.2673 56.1422 57.0122 56.382 56.6652 56.5587C56.3131 56.7379 55.9763 56.796 55.725 56.796V48.796C53.7511 48.796 52.0903 49.7116 51.037 51.116C50.0807 52.3911 49.757 53.868 49.757 55.1H57.757ZM122.357 45.692H126.357V41.692H122.357V45.692ZM122.357 40.46V44.46H126.357V40.46H122.357ZM122.357 37.052H126.357V33.052H122.357V37.052ZM122.357 31.82V35.82H126.357V31.82H122.357ZM96.5005 38.636C96.5005 36.2538 97.2033 34.6024 98.2033 33.5672C99.1771 32.5592 100.86 31.692 103.733 31.692V23.692C99.1654 23.692 95.2319 25.1288 92.4497 28.0088C89.6937 30.8616 88.5005 34.6822 88.5005 38.636H96.5005ZM103.733 31.692C106.605 31.692 108.288 32.5592 109.262 33.5672C110.262 34.6024 110.965 36.2538 110.965 38.636H118.965C118.965 34.6822 117.771 30.8616 115.015 28.0088C112.233 25.1288 108.3 23.692 103.733 23.692V31.692ZM110.965 38.636C110.965 41.0182 110.262 42.6696 109.262 43.7048C108.288 44.7128 106.605 45.58 103.733 45.58V53.58C108.3 53.58 112.233 52.1432 115.015 49.2632C117.771 46.4104 118.965 42.5898 118.965 38.636H110.965ZM103.733 45.58C100.86 45.58 99.1771 44.7128 98.2033 43.7048C97.2033 42.6696 96.5005 41.0182 96.5005 38.636H88.5005C88.5005 42.5898 89.6937 46.4104 92.4497 49.2632C95.2319 52.1432 99.1654 53.58 103.733 53.58V45.58ZM113.109 38.636C113.109 36.5014 112.649 34.0046 111.01 31.9723C109.248 29.7888 106.648 28.78 103.733 28.78V36.78C104.28 36.78 104.557 36.8699 104.662 36.9146C104.749 36.9517 104.768 36.9771 104.783 36.9957C104.848 37.0754 105.109 37.5066 105.109 38.636H113.109ZM103.733 28.78C100.817 28.78 98.2171 29.7888 96.4554 31.9723C94.8157 34.0046 94.3565 36.5014 94.3565 38.636H102.357C102.357 37.5066 102.617 37.0754 102.682 36.9957C102.697 36.9771 102.716 36.9517 102.803 36.9146C102.908 36.8699 103.185 36.78 103.733 36.78V28.78ZM94.3565 38.636C94.3565 40.7706 94.8157 43.2674 96.4554 45.2997C98.2171 47.4832 100.817 48.492 103.733 48.492V40.492C103.185 40.492 102.908 40.4021 102.803 40.3573C102.716 40.3203 102.697 40.2949 102.682 40.2763C102.617 40.1966 102.357 39.7654 102.357 38.636H94.3565ZM103.733 48.492C106.648 48.492 109.248 47.4832 111.01 45.2997C112.649 43.2674 113.109 40.7706 113.109 38.636H105.109C105.109 39.7654 104.848 40.1966 104.783 40.2763C104.768 40.2949 104.749 40.3203 104.662 40.3573C104.557 40.4021 104.28 40.492 103.733 40.492V48.492ZM124.405 28.508V49.772H132.405V28.508H124.405ZM124.405 49.772C124.405 49.6433 124.435 49.4068 124.572 49.1341C124.707 48.8646 124.891 48.6678 125.058 48.5422C125.35 48.3216 125.505 48.364 125.381 48.364V56.364C126.792 56.364 128.459 55.9984 129.879 54.9258C131.432 53.7533 132.405 51.9298 132.405 49.772H124.405ZM125.381 48.364C125.256 48.364 125.411 48.3216 125.703 48.5422C125.87 48.6677 126.054 48.8646 126.189 49.1341C126.326 49.4068 126.357 49.6433 126.357 49.772H118.357C118.357 51.9298 119.329 53.7533 120.882 54.9258C122.302 55.9984 123.969 56.364 125.381 56.364V48.364ZM126.357 49.772V45.692H118.357V49.772H126.357ZM122.357 41.692H118.133V49.692H122.357V41.692ZM118.133 41.692C118.309 41.692 118.62 41.7308 118.976 41.9103C119.335 42.0914 119.602 42.3465 119.776 42.5909C120.082 43.02 120.021 43.2782 120.021 43.052H112.021C112.021 44.2658 112.271 45.844 113.261 47.2331C114.384 48.8095 116.149 49.692 118.133 49.692V41.692ZM120.021 43.052C120.021 42.8732 120.072 43.145 119.762 43.5745C119.587 43.8171 119.322 44.0675 118.968 44.245C118.616 44.4211 118.309 44.46 118.133 44.46V36.46C116.152 36.46 114.397 37.3383 113.275 38.8935C112.281 40.271 112.021 41.8388 112.021 43.052H120.021ZM118.133 44.46H122.357V36.46H118.133V44.46ZM126.357 40.46V37.052H118.357V40.46H126.357ZM122.357 33.052H118.133V41.052H122.357V33.052ZM118.133 33.052C118.309 33.052 118.62 33.0908 118.976 33.2703C119.335 33.4514 119.602 33.7065 119.776 33.9509C120.082 34.38 120.021 34.6382 120.021 34.412H112.021C112.021 35.6258 112.271 37.204 113.261 38.5931C114.384 40.1695 116.149 41.052 118.133 41.052V33.052ZM120.021 34.412C120.021 34.2332 120.072 34.505 119.762 34.9345C119.587 35.1771 119.322 35.4275 118.968 35.605C118.616 35.7811 118.309 35.82 118.133 35.82V27.82C116.152 27.82 114.397 28.6983 113.275 30.2535C112.281 31.631 112.021 33.1988 112.021 34.412H120.021ZM118.133 35.82H122.357V27.82H118.133V35.82ZM126.357 31.82V28.508H118.357V31.82H126.357ZM126.357 28.508C126.357 28.6367 126.326 28.8732 126.189 29.1459C126.054 29.4154 125.87 29.6122 125.703 29.7378C125.411 29.9584 125.256 29.916 125.381 29.916V21.916C123.969 21.916 122.302 22.2816 120.882 23.3542C119.329 24.5267 118.357 26.3502 118.357 28.508H126.357ZM125.381 29.916C125.505 29.916 125.35 29.9584 125.058 29.7378C124.891 29.6122 124.707 29.4154 124.572 29.1459C124.435 28.8732 124.405 28.6367 124.405 28.508H132.405C132.405 26.3502 131.432 24.5267 129.879 23.3542C128.459 22.2816 126.792 21.916 125.381 21.916V29.916ZM103.557 61.964C103.557 60.2495 104.191 59.1972 105.529 58.3673C107.122 57.3791 109.887 56.652 114.052 56.652V48.652C109.194 48.652 104.711 49.4609 101.312 51.5687C97.6583 53.8348 95.5565 57.4385 95.5565 61.964H103.557ZM114.052 56.652C118.218 56.652 120.983 57.3791 122.576 58.3673C123.914 59.1972 124.549 60.2495 124.549 61.964H132.549C132.549 57.4385 130.447 53.8348 126.793 51.5687C123.394 49.4609 118.911 48.652 114.052 48.652V56.652ZM124.549 61.964C124.549 63.6785 123.914 64.7308 122.576 65.5607C120.983 66.5489 118.218 67.276 114.052 67.276V75.276C118.911 75.276 123.394 74.4671 126.793 72.3593C130.447 70.0932 132.549 66.4895 132.549 61.964H124.549ZM114.052 67.276C109.887 67.276 107.122 66.5489 105.529 65.5607C104.191 64.7308 103.557 63.6785 103.557 61.964H95.5565C95.5565 66.4895 97.6583 70.0932 101.312 72.3593C104.711 74.4671 109.194 75.276 114.052 75.276V67.276ZM126.453 61.964C126.453 59.1781 125.07 56.7699 122.517 55.2997C120.276 54.0093 117.343 53.548 114.052 53.548V61.548C116.81 61.548 118.077 61.9747 118.524 62.2323C118.692 62.3286 118.628 62.3343 118.539 62.182C118.448 62.0262 118.453 61.9154 118.453 61.964H126.453ZM114.052 53.548C110.762 53.548 107.829 54.0093 105.588 55.2997C103.035 56.7699 101.653 59.1781 101.653 61.964H109.653C109.653 61.9154 109.657 62.0262 109.566 62.182C109.477 62.3343 109.413 62.3286 109.581 62.2323C110.028 61.9747 111.295 61.548 114.052 61.548V53.548ZM101.653 61.964C101.653 64.7499 103.035 67.1581 105.588 68.6283C107.829 69.9187 110.762 70.38 114.052 70.38V62.38C111.295 62.38 110.028 61.9533 109.581 61.6957C109.413 61.5994 109.477 61.5937 109.566 61.746C109.657 61.9018 109.653 62.0126 109.653 61.964H101.653ZM114.052 70.38C117.343 70.38 120.276 69.9187 122.517 68.6283C125.07 67.1581 126.453 64.7499 126.453 61.964H118.453C118.453 62.0126 118.448 61.9018 118.539 61.746C118.628 61.5937 118.692 61.5994 118.524 61.6957C118.077 61.9533 116.81 62.38 114.052 62.38V70.38ZM145.068 31.724V35.724H149.068V31.724H145.068ZM151.212 31.724H147.212V35.724H151.212V31.724ZM169.74 40.556H165.74V44.556H169.74V40.556ZM169.74 45.884V41.884H165.74V45.884H169.74ZM148.14 43.308C150.66 43.308 152.283 44.0352 153.233 44.9046C154.148 45.7423 154.796 47.0326 154.796 48.956H162.796C162.796 45.0714 161.404 41.5377 158.635 39.0034C155.901 36.5008 152.196 35.308 148.14 35.308V43.308ZM154.796 48.956C154.796 50.8794 154.148 52.1697 153.233 53.0074C152.283 53.8768 150.66 54.604 148.14 54.604V62.604C152.196 62.604 155.901 61.4112 158.635 58.9086C161.404 56.3743 162.796 52.8406 162.796 48.956H154.796ZM148.14 54.604C145.62 54.604 143.997 53.8768 143.047 53.0074C142.132 52.1697 141.484 50.8794 141.484 48.956H133.484C133.484 52.8406 134.876 56.3743 137.645 58.9086C140.379 61.4112 144.084 62.604 148.14 62.604V54.604ZM141.484 48.956C141.484 47.0326 142.132 45.7423 143.047 44.9046C143.997 44.0352 145.62 43.308 148.14 43.308V35.308C144.084 35.308 140.379 36.5008 137.645 39.0034C134.876 41.5377 133.484 45.0714 133.484 48.956H141.484ZM136.956 35.724H145.068V27.724H136.956V35.724ZM149.068 31.724V28.412H141.068V31.724H149.068ZM149.068 28.412C149.068 28.5406 149.037 28.78 148.898 29.0565C148.76 29.3302 148.572 29.5287 148.405 29.654C148.111 29.8733 147.969 29.82 148.14 29.82V21.82C146.727 21.82 145.049 22.1747 143.615 23.246C142.044 24.4203 141.068 26.2512 141.068 28.412H149.068ZM148.14 29.82C148.311 29.82 148.169 29.8733 147.875 29.654C147.708 29.5287 147.52 29.3302 147.382 29.0565C147.243 28.78 147.212 28.5406 147.212 28.412H155.212C155.212 26.2512 154.236 24.4203 152.665 23.246C151.231 22.1747 149.553 21.82 148.14 21.82V29.82ZM147.212 28.412V31.724H155.212V28.412H147.212ZM151.212 35.724H158.748V27.724H151.212V35.724ZM158.748 35.724C158.571 35.724 158.278 35.6852 157.944 35.5208C157.609 35.3557 157.354 35.1224 157.181 34.8915C156.869 34.4742 156.908 34.1942 156.908 34.316H164.908C164.908 33.0458 164.611 31.4698 163.591 30.1045C162.459 28.5884 160.715 27.724 158.748 27.724V35.724ZM156.908 34.316C156.908 34.4378 156.869 34.1578 157.181 33.7405C157.354 33.5096 157.609 33.2763 157.944 33.1112C158.278 32.9468 158.571 32.908 158.748 32.908V40.908C160.715 40.908 162.459 40.0436 163.591 38.5275C164.611 37.1622 164.908 35.5862 164.908 34.316H156.908ZM158.748 32.908H136.956V40.908H158.748V32.908ZM136.956 32.908C137.133 32.908 137.426 32.9468 137.76 33.1112C138.095 33.2763 138.35 33.5096 138.523 33.7405C138.835 34.1578 138.796 34.4378 138.796 34.316H130.796C130.796 35.5862 131.093 37.1622 132.113 38.5275C133.245 40.0436 134.989 40.908 136.956 40.908V32.908ZM138.796 34.316C138.796 34.1942 138.835 34.4742 138.523 34.8915C138.35 35.1224 138.095 35.3557 137.76 35.5208C137.426 35.6852 137.133 35.724 136.956 35.724V27.724C134.989 27.724 133.245 28.5884 132.113 30.1045C131.093 31.4698 130.796 33.0458 130.796 34.316H138.796ZM148.14 57.708C150.458 57.708 152.775 57.011 154.553 55.3654C156.366 53.6876 157.228 51.3803 157.228 48.956H149.228C149.228 49.2273 149.182 49.3718 149.16 49.4268C149.14 49.4763 149.125 49.4885 149.119 49.4946C149.109 49.5034 149.056 49.5508 148.913 49.6007C148.765 49.6522 148.515 49.708 148.14 49.708V57.708ZM157.228 48.956C157.228 46.5317 156.366 44.2243 154.553 42.5466C152.775 40.9009 150.458 40.204 148.14 40.204V48.204C148.515 48.204 148.765 48.2598 148.913 48.3113C149.056 48.3612 149.109 48.4086 149.119 48.4174C149.125 48.4235 149.14 48.4357 149.16 48.4852C149.182 48.5402 149.228 48.6847 149.228 48.956H157.228ZM148.14 40.204C145.822 40.204 143.505 40.9009 141.727 42.5466C139.914 44.2243 139.052 46.5317 139.052 48.956H147.052C147.052 48.6847 147.098 48.5402 147.12 48.4852C147.14 48.4357 147.155 48.4235 147.161 48.4174C147.171 48.4086 147.224 48.3612 147.367 48.3113C147.515 48.2598 147.765 48.204 148.14 48.204V40.204ZM139.052 48.956C139.052 51.3803 139.914 53.6876 141.727 55.3654C143.505 57.011 145.822 57.708 148.14 57.708V49.708C147.765 49.708 147.515 49.6522 147.367 49.6007C147.224 49.5508 147.171 49.5034 147.161 49.4946C147.155 49.4885 147.14 49.4763 147.12 49.4268C147.098 49.3718 147.052 49.2273 147.052 48.956H139.052ZM165.74 28.508V40.556H173.74V28.508H165.74ZM169.74 44.556H174.252V36.556H169.74V44.556ZM174.252 44.556C174.107 44.556 173.83 44.5249 173.503 44.3666C173.171 44.2062 172.91 43.974 172.732 43.736C172.41 43.307 172.46 43.0247 172.46 43.196H180.46C180.46 41.9273 180.174 40.325 179.132 38.936C177.971 37.3876 176.201 36.556 174.252 36.556V44.556ZM172.46 43.196C172.46 43.4151 172.4 43.1463 172.718 42.7171C172.896 42.4771 173.158 42.2403 173.495 42.0764C173.827 41.915 174.107 41.884 174.252 41.884V49.884C176.204 49.884 177.983 49.0486 179.146 47.4789C180.184 46.0777 180.46 44.4649 180.46 43.196H172.46ZM174.252 41.884H169.74V49.884H174.252V41.884ZM165.74 45.884V65.276H173.74V45.884H165.74ZM165.74 65.276C165.74 65.1473 165.771 64.9108 165.907 64.6381C166.043 64.3686 166.227 64.1717 166.393 64.0462C166.685 63.8256 166.841 63.868 166.716 63.868V71.868C168.127 71.868 169.795 71.5024 171.215 70.4298C172.767 69.2573 173.74 67.4338 173.74 65.276H165.74ZM166.716 63.868C166.545 63.868 166.687 63.8147 166.981 64.034C167.148 64.1593 167.336 64.3578 167.474 64.6315C167.613 64.908 167.644 65.1474 167.644 65.276H159.644C159.644 67.4368 160.62 69.2677 162.191 70.442C163.625 71.5133 165.303 71.868 166.716 71.868V63.868ZM167.644 65.276V28.508H159.644V65.276H167.644ZM167.644 28.508C167.644 28.6366 167.613 28.876 167.474 29.1525C167.336 29.4262 167.148 29.6247 166.981 29.75C166.687 29.9693 166.545 29.916 166.716 29.916V21.916C165.303 21.916 163.625 22.2707 162.191 23.342C160.62 24.5163 159.644 26.3472 159.644 28.508H167.644ZM166.716 29.916C166.841 29.916 166.685 29.9584 166.393 29.7378C166.227 29.6122 166.043 29.4154 165.907 29.1459C165.771 28.8732 165.74 28.6367 165.74 28.508H173.74C173.74 26.3502 172.767 24.5267 171.215 23.3542C169.795 22.2816 168.127 21.916 166.716 21.916V29.916ZM184.916 58.316L186.991 61.7352L187.003 61.728L184.916 58.316ZM181.652 53.42L179.579 49.9989L179.56 50.0101L179.542 50.0214L181.652 53.42ZM194.516 30.412H183.188V38.412H194.516V30.412ZM183.188 30.412C183.364 30.412 183.658 30.4508 183.991 30.6152C184.326 30.7803 184.582 31.0136 184.754 31.2445C185.066 31.6618 185.028 31.9418 185.028 31.82H177.028C177.028 33.0902 177.325 34.6662 178.345 36.0315C179.477 37.5476 181.221 38.412 183.188 38.412V30.412ZM185.028 31.82C185.028 31.6495 185.077 31.916 184.769 32.3342C184.597 32.5671 184.339 32.8051 183.999 32.9736C183.661 33.1412 183.364 33.18 183.188 33.18V25.18C181.217 25.18 179.464 26.0484 178.33 27.5858C177.314 28.964 177.028 30.5505 177.028 31.82H185.028ZM183.188 33.18H197.636V25.18H183.188V33.18ZM197.636 33.18C197.776 33.18 197.901 33.1827 198.011 33.1876C198.122 33.1925 198.216 33.1994 198.295 33.2073C198.374 33.2152 198.434 33.2238 198.479 33.2314C198.524 33.2391 198.55 33.2453 198.56 33.2479C198.581 33.2533 198.524 33.2408 198.422 33.1873C198.37 33.1602 198.309 33.1237 198.242 33.0759C198.175 33.0278 198.107 32.9714 198.04 32.9067C197.973 32.842 197.914 32.774 197.861 32.705C197.809 32.6363 197.768 32.5714 197.736 32.5142C197.673 32.4004 197.654 32.329 197.655 32.332C197.655 32.3333 197.66 32.3507 197.666 32.3872C197.673 32.4238 197.681 32.4764 197.689 32.5475C197.696 32.6186 197.703 32.705 197.708 32.8086C197.713 32.9122 197.716 33.0301 197.716 33.164H205.716C205.716 31.4378 205.482 28.9831 203.615 27.1693C201.782 25.3879 199.343 25.18 197.636 25.18V33.18ZM197.716 33.164V38.492H205.716V33.164H197.716ZM197.716 38.492C197.716 42.0718 197.252 43.7089 195.726 45.5239C193.839 47.7676 190.225 50.3779 182.828 54.904L187.003 61.728C194.198 57.3261 198.984 54.0804 201.849 50.6721C205.075 46.8351 205.716 43.0242 205.716 38.492H197.716ZM182.84 54.8968C183.048 54.7701 183.295 54.6913 183.542 54.6708C183.778 54.6514 183.963 54.6884 184.082 54.7279C184.282 54.7938 184.402 54.8947 184.5 55.0412L177.843 59.4788C179.367 61.765 183.215 64.028 186.991 61.7352L182.84 54.8968ZM184.5 55.0412C184.548 55.1133 184.609 55.2205 184.594 55.4689C184.585 55.6217 184.541 55.8677 184.389 56.1456C184.227 56.4401 183.997 56.6719 183.761 56.8186L179.542 50.0214C177.566 51.2481 176.714 53.2114 176.609 54.9951C176.51 56.6595 177.027 58.2547 177.843 59.4788L184.5 55.0412ZM183.724 56.8411C190.145 52.9508 194.222 50.2866 196.551 47.6779C197.849 46.2244 198.693 44.7104 199.153 42.9776C199.579 41.3699 199.62 39.7535 199.62 38.3H191.62C191.62 39.7025 191.558 40.4081 191.42 40.9259C191.316 41.3186 191.134 41.7336 190.584 42.3501C189.217 43.8814 186.31 45.9212 179.579 49.9989L183.724 56.8411ZM199.62 38.3V35.516H191.62V38.3H199.62ZM199.62 35.516C199.62 34.8332 199.542 33.1695 198.202 31.8296C196.862 30.4897 195.198 30.412 194.516 30.412V38.412C194.514 38.412 194.288 38.4154 193.952 38.3212C193.579 38.2166 193.041 37.9819 192.545 37.4864C192.05 36.9909 191.815 36.4522 191.71 36.0793C191.616 35.7433 191.62 35.5175 191.62 35.516H199.62ZM211.492 28.508V65.276H219.492V28.508H211.492ZM211.492 65.276C211.492 65.1475 211.522 64.9053 211.664 64.625C211.805 64.3471 211.996 64.1469 212.165 64.022C212.459 63.8045 212.589 63.868 212.372 63.868V71.868C213.786 71.868 215.476 71.5235 216.922 70.454C218.512 69.2781 219.492 67.4398 219.492 65.276H211.492ZM212.372 63.868C212.2 63.868 212.343 63.8147 212.636 64.034C212.804 64.1593 212.992 64.3578 213.13 64.6315C213.269 64.908 213.3 65.1474 213.3 65.276H205.3C205.3 67.4368 206.276 69.2677 207.847 70.442C209.28 71.5133 210.959 71.868 212.372 71.868V63.868ZM213.3 65.276V28.508H205.3V65.276H213.3ZM213.3 28.508C213.3 28.6366 213.269 28.876 213.13 29.1525C212.992 29.4262 212.804 29.6247 212.636 29.75C212.343 29.9693 212.2 29.916 212.372 29.916V21.916C210.959 21.916 209.28 22.2707 207.847 23.342C206.276 24.5163 205.3 26.3472 205.3 28.508H213.3ZM212.372 29.916C212.589 29.916 212.459 29.9795 212.165 29.762C211.996 29.6371 211.805 29.4369 211.664 29.159C211.522 28.8787 211.492 28.6365 211.492 28.508H219.492C219.492 26.3442 218.512 24.5059 216.922 23.33C215.476 22.2605 213.786 21.916 212.372 21.916V29.916Z" fill="#2C4A86"/>
<path d="M19.873 15.1974C28.273 6.79737 39.2165 10.9146 39.373 11.6974C39.877 12.9146 39.373 14.1974 29.873 25.6974C20.373 37.1974 17.8769 34.9146 16.373 34.1974C13.2139 32.6907 9.37296 25.6974 19.873 15.1974Z" fill="#D3E5FF"/>
<rect x="2" y="2" width="263" height="110" rx="28" stroke="#092C71" stroke-width="4"/>
</g>
<defs>
<filter id="filter0_i_179_97" x="0" y="0" width="267" height="114" filterUnits="userSpaceOnUse" color-interpolation-filters="sRGB">
<feFlood flood-opacity="0" result="BackgroundImageFix"/>
<feBlend mode="normal" in="SourceGraphic" in2="BackgroundImageFix" result="shape"/>
<feColorMatrix in="SourceAlpha" type="matrix" values="0 0 0 0 0 0 0 0 0 0 0 0 0 0 0 0 0 0 127 0" result="hardAlpha"/>
<feOffset dy="-16"/>
<feComposite in2="hardAlpha" operator="arithmetic" k2="-1" k3="1"/>
<feColorMatrix type="matrix" values="0 0 0 0 0.0352941 0 0 0 0 0.172549 0 0 0 0 0.443137 0 0 0 0.44 0"/>
<feBlend mode="normal" in2="shape" result="effect1_innerShadow_179_97"/>
</filter>
<linearGradient id="paint0_linear_179_97" x1="133.5" y1="4" x2="133.5" y2="110" gradientUnits="userSpaceOnUse">
<stop stop-color="#6F9FFD"/>
<stop offset="1" stop-color="#1563FC"/>
</linearGradient>
</defs>
</svg>
