<svg width="248" height="168" viewBox="0 0 248 168" fill="none" xmlns="http://www.w3.org/2000/svg">
<path d="M17.1993 69.584V68.84H2.77525V66.632H20.1513V71.792H5.75125V72.56H20.6313V74.768H2.77525V69.584H17.1993ZM10.6233 58.04C11.1193 58.632 11.7513 59.096 12.5193 59.432C13.3033 59.752 14.1273 60 14.9913 60.176L13.7433 62.288C11.3433 61.84 9.54325 60.76 8.34325 59.048C7.67125 60.056 6.83125 60.856 5.82325 61.448C4.81525 62.024 3.73525 62.448 2.58325 62.72L1.31125 60.752C2.38325 60.432 3.31125 60.056 4.09525 59.624C4.89525 59.192 5.51925 58.664 5.96725 58.04H2.00725V55.664H14.5833V58.04H10.6233ZM23.5593 60.344H20.1513V65.816H17.1993V52.52H20.1513V57.896H23.5593V60.344ZM16.4313 65.072C13.9193 65.328 11.3832 65.512 8.82325 65.624C6.26325 65.736 3.68725 65.8 1.09525 65.816L0.71125 63.464C1.71925 63.448 2.73525 63.432 3.75925 63.416C4.78325 63.4 5.82325 63.376 6.87925 63.344V61.472H9.85525V63.224C11.9353 63.128 13.9993 62.984 16.0473 62.792L16.4313 65.072ZM4.64725 54.728V52.352H11.9432V54.728H4.64725ZM30.9625 74.768C29.2665 74.768 28.0105 74.416 27.1945 73.712C26.3945 73.024 25.9945 71.952 25.9945 70.496C25.9945 69.04 26.3945 67.976 27.1945 67.304C28.0105 66.632 29.2665 66.296 30.9625 66.296H40.6105C42.3065 66.296 43.5545 66.632 44.3545 67.304C45.1705 67.976 45.5785 69.04 45.5785 70.496C45.5785 71.952 45.1705 73.024 44.3545 73.712C43.5545 74.416 42.3065 74.768 40.6105 74.768H30.9625ZM24.9625 58.616C24.9625 57.64 25.1305 56.776 25.4665 56.024C25.8025 55.272 26.2505 54.64 26.8105 54.128C27.3865 53.616 28.0505 53.232 28.8025 52.976C29.5705 52.72 30.3785 52.592 31.2265 52.592C32.0745 52.592 32.8745 52.72 33.6265 52.976C34.3945 53.232 35.0665 53.616 35.6425 54.128C36.2185 54.624 36.6745 55.248 37.0105 56C37.3465 56.752 37.5145 57.624 37.5145 58.616C37.5145 59.608 37.3465 60.48 37.0105 61.232C36.6745 61.968 36.2185 62.592 35.6425 63.104C35.0665 63.6 34.3945 63.976 33.6265 64.232C32.8745 64.488 32.0745 64.616 31.2265 64.616C30.3785 64.616 29.5705 64.488 28.8025 64.232C28.0505 63.976 27.3865 63.6 26.8105 63.104C26.2505 62.592 25.8025 61.968 25.4665 61.232C25.1305 60.48 24.9625 59.608 24.9625 58.616ZM45.1225 52.52V65.48H42.1705V62.12H38.3545V59.672H42.1705V57.56H38.3545V55.112H42.1705V52.52H45.1225ZM28.8985 70.496C28.8985 71.072 29.0745 71.528 29.4265 71.864C29.7785 72.216 30.4505 72.392 31.4425 72.392H40.1305C41.1065 72.392 41.7705 72.216 42.1225 71.864C42.4905 71.528 42.6745 71.072 42.6745 70.496C42.6745 69.92 42.4905 69.472 42.1225 69.152C41.7705 68.832 41.1065 68.672 40.1305 68.672H31.4425C30.4505 68.672 29.7785 68.832 29.4265 69.152C29.0745 69.472 28.8985 69.92 28.8985 70.496ZM34.5865 58.616C34.5865 57.384 34.2665 56.488 33.6265 55.928C33.0025 55.352 32.2025 55.064 31.2265 55.064C30.7625 55.064 30.3225 55.136 29.9065 55.28C29.5065 55.424 29.1545 55.64 28.8505 55.928C28.5625 56.216 28.3305 56.584 28.1545 57.032C27.9785 57.48 27.8905 58 27.8905 58.592C27.8905 59.216 27.9785 59.752 28.1545 60.2C28.3305 60.648 28.5625 61.016 28.8505 61.304C29.1545 61.592 29.5065 61.808 29.9065 61.952C30.3225 62.08 30.7625 62.144 31.2265 62.144C31.7065 62.144 32.1545 62.08 32.5705 61.952C32.9865 61.808 33.3385 61.592 33.6265 61.304C33.9305 61.016 34.1625 60.648 34.3225 60.2C34.4985 59.752 34.5865 59.224 34.5865 58.616ZM65.4618 52.52H68.4138V74.768H65.4618V52.52ZM60.7818 67.928C60.7818 70.104 60.3098 71.752 59.3658 72.872C58.4218 74.008 56.8938 74.576 54.7818 74.576C52.6698 74.576 51.1338 74.008 50.1738 72.872C49.2298 71.752 48.7578 70.104 48.7578 67.928V59.24C48.7578 57.064 49.2298 55.416 50.1738 54.296C51.1338 53.16 52.6698 52.592 54.7818 52.592C56.8938 52.592 58.4218 53.16 59.3658 54.296C60.3098 55.416 60.7818 57.064 60.7818 59.24V67.928ZM57.8058 59.144C57.8058 57.736 57.5658 56.696 57.0858 56.024C56.6058 55.352 55.8378 55.016 54.7818 55.016C53.7258 55.016 52.9498 55.352 52.4538 56.024C51.9738 56.696 51.7338 57.736 51.7338 59.144V68.024C51.7338 69.432 51.9738 70.472 52.4538 71.144C52.9498 71.816 53.7258 72.152 54.7818 72.152C55.8378 72.152 56.6058 71.816 57.0858 71.144C57.5658 70.472 57.8058 69.432 57.8058 68.024V59.144ZM86.8043 63.944C87.8283 63.896 88.8443 63.84 89.8523 63.776C90.8603 63.712 91.8683 63.632 92.8763 63.536L93.2603 65.864C90.7483 66.12 88.2123 66.304 85.6523 66.416C83.0923 66.528 80.5163 66.592 77.9243 66.608L77.5403 64.208C78.5643 64.192 79.6043 64.176 80.6603 64.16C81.7163 64.144 82.7723 64.12 83.8283 64.088V62.096H83.4923C81.8123 62.096 80.5563 61.672 79.7243 60.824C78.8923 59.96 78.4763 58.832 78.4763 57.44C78.4763 56.064 78.8923 54.952 79.7243 54.104C80.5563 53.256 81.8123 52.832 83.4923 52.832H86.9483C88.6283 52.832 89.8843 53.256 90.7163 54.104C91.5483 54.952 91.9643 56.064 91.9643 57.44C91.9643 58.832 91.5483 59.96 90.7163 60.824C89.8843 61.672 88.6283 62.096 86.9483 62.096H86.8043V63.944ZM100.388 61.784H96.9803V69.248H94.0283V52.52H96.9803V59.336H100.388V61.784ZM82.4603 67.976V72.104H97.3403V74.528H79.4843V67.976H82.4603ZM81.3803 57.44C81.3803 57.712 81.4123 57.984 81.4763 58.256C81.5403 58.528 81.6523 58.776 81.8123 59C81.9883 59.208 82.2283 59.384 82.5323 59.528C82.8523 59.656 83.2603 59.72 83.7563 59.72H86.6843C87.1803 59.72 87.5803 59.656 87.8843 59.528C88.2043 59.384 88.4443 59.208 88.6043 59C88.7803 58.776 88.9003 58.528 88.9643 58.256C89.0283 57.984 89.0603 57.712 89.0603 57.44C89.0603 57.168 89.0283 56.904 88.9643 56.648C88.9003 56.376 88.7803 56.136 88.6043 55.928C88.4443 55.704 88.2043 55.528 87.8843 55.4C87.5803 55.272 87.1803 55.208 86.6843 55.208H83.7563C83.2603 55.208 82.8523 55.272 82.5323 55.4C82.2283 55.528 81.9883 55.704 81.8123 55.928C81.6523 56.136 81.5403 56.376 81.4763 56.648C81.4123 56.904 81.3803 57.168 81.3803 57.44ZM118.472 58.568V55.256H103.016V52.832H121.448V60.992H106.016V64.328H121.928V66.752H103.016V58.568H118.472ZM106.4 71.864V67.736H109.376V71.864H115.088V67.736H118.064V71.864H123.104V74.288H101.336V71.864H106.4ZM126.307 52.832H139.267V55.256H129.283V65.096H139.747V67.496H126.307V52.832ZM142.291 52.52H145.243V74.768H142.291V52.52ZM141.523 73.712C140.291 73.84 138.971 73.952 137.563 74.048C136.171 74.144 134.755 74.216 133.315 74.264C131.875 74.328 130.443 74.376 129.019 74.408C127.595 74.44 126.251 74.456 124.987 74.456L124.603 72.056C126.731 72.04 128.987 71.992 131.371 71.912V68.456H134.347V71.792C135.547 71.744 136.715 71.688 137.851 71.624C138.987 71.56 140.083 71.48 141.139 71.384L141.523 73.712ZM148.374 58.616C148.374 57.64 148.542 56.776 148.878 56.024C149.214 55.272 149.662 54.64 150.222 54.128C150.798 53.616 151.462 53.232 152.214 52.976C152.982 52.72 153.79 52.592 154.638 52.592C155.486 52.592 156.286 52.72 157.038 52.976C157.806 53.232 158.478 53.616 159.054 54.128C159.63 54.624 160.086 55.248 160.422 56C160.758 56.752 160.926 57.624 160.926 58.616C160.926 59.608 160.758 60.48 160.422 61.232C160.086 61.968 159.63 62.592 159.054 63.104C158.478 63.6 157.806 63.976 157.038 64.232C156.286 64.488 155.486 64.616 154.638 64.616C153.79 64.616 152.982 64.488 152.214 64.232C151.462 63.976 150.798 63.6 150.222 63.104C149.662 62.592 149.214 61.968 148.878 61.232C148.542 60.48 148.374 59.608 148.374 58.616ZM149.382 72.968C150.79 72.456 151.91 71.8 152.742 71C153.59 70.216 154.014 69.184 154.014 67.904V66.2H156.87V67.88C156.87 68.344 156.934 68.808 157.062 69.272C157.206 69.736 157.406 70.176 157.662 70.592C157.918 71.008 158.23 71.392 158.598 71.744C158.966 72.112 159.39 72.416 159.87 72.656C160.83 72.16 161.566 71.472 162.078 70.592C162.606 69.712 162.87 68.808 162.87 67.88V66.2H165.726V67.904C165.726 69.184 166.142 70.216 166.974 71C167.822 71.8 168.95 72.456 170.358 72.968L169.11 74.96C168.662 74.832 168.206 74.664 167.742 74.456C167.278 74.248 166.83 74.008 166.398 73.736C165.982 73.464 165.59 73.16 165.222 72.824C164.87 72.488 164.574 72.128 164.334 71.744C163.822 72.608 163.166 73.352 162.366 73.976C161.566 74.6 160.734 75.072 159.87 75.392C159.006 75.072 158.174 74.6 157.374 73.976C156.574 73.352 155.918 72.608 155.406 71.744C155.166 72.128 154.862 72.488 154.494 72.824C154.142 73.16 153.75 73.464 153.318 73.736C152.902 74.008 152.462 74.248 151.998 74.456C151.534 74.664 151.078 74.832 150.63 74.96L149.382 72.968ZM168.534 52.52V65.336H165.582V59.72H161.958V57.272H165.582V52.52H168.534ZM157.998 58.616C157.998 57.384 157.678 56.488 157.038 55.928C156.414 55.352 155.614 55.064 154.638 55.064C154.174 55.064 153.734 55.136 153.318 55.28C152.918 55.424 152.566 55.64 152.262 55.928C151.974 56.216 151.742 56.584 151.566 57.032C151.39 57.48 151.302 58 151.302 58.592C151.302 59.216 151.39 59.752 151.566 60.2C151.742 60.648 151.974 61.016 152.262 61.304C152.566 61.592 152.918 61.808 153.318 61.952C153.734 62.08 154.174 62.144 154.638 62.144C155.118 62.144 155.566 62.08 155.982 61.952C156.398 61.808 156.75 61.592 157.038 61.304C157.342 61.016 157.574 60.648 157.734 60.2C157.91 59.752 157.998 59.224 157.998 58.616ZM192.953 62.504V64.928H171.209V62.504H192.953ZM175.745 66.296V68.24H188.489V66.296H191.441V74.768H172.769V66.296H175.745ZM175.745 72.392H188.489V70.616H175.745V72.392ZM190.985 61.208C188.681 60.952 186.809 60.472 185.369 59.768C183.945 59.048 182.849 58.184 182.081 57.176C181.313 58.184 180.209 59.048 178.769 59.768C177.345 60.472 175.481 60.952 173.177 61.208L172.193 58.904C173.457 58.744 174.601 58.52 175.625 58.232C176.665 57.928 177.545 57.56 178.265 57.128C179.001 56.68 179.569 56.168 179.969 55.592C180.369 55.016 180.569 54.368 180.569 53.648V52.712H183.593V53.648C183.593 54.368 183.793 55.016 184.193 55.592C184.593 56.168 185.153 56.68 185.873 57.128C186.609 57.56 187.489 57.928 188.513 58.232C189.553 58.52 190.705 58.744 191.969 58.904L190.985 61.208ZM212.165 52.52H215.117V74.768H212.165V52.52ZM208.685 71.936V74.336H195.461V52.832H198.437V71.936H208.685ZM218.512 52.832H231.112V55.256H221.488V71.936H231.592V74.336H218.512V52.832ZM240.136 63.704H236.728V74.768H233.776V52.52H236.728V61.256H240.136V63.704ZM245.523 53.312L245.331 69.056H242.499L242.331 53.312H245.523ZM245.427 71.168V74.336H242.379V71.168H245.427ZM46.3173 134.52H49.2213V156.768H46.3173V145.704H43.9653V156.456H41.0853V134.712H43.9653V143.28H46.3173V134.52ZM35.4933 141.192V145.464C35.4933 146.344 35.5653 147.2 35.7093 148.032C35.8533 148.848 36.0933 149.632 36.4293 150.384C36.7653 151.12 37.2133 151.816 37.7733 152.472C38.3333 153.112 39.0373 153.704 39.8853 154.248L38.3973 156.288C38.0293 156.096 37.6453 155.832 37.2453 155.496C36.8613 155.16 36.4773 154.768 36.0933 154.32C35.7093 153.888 35.3413 153.416 34.9893 152.904C34.6533 152.376 34.3573 151.832 34.1013 151.272C33.6053 152.44 32.9493 153.488 32.1333 154.416C31.3173 155.344 30.4693 156.056 29.5893 156.552L27.9573 154.632C28.8213 154.104 29.5493 153.512 30.1413 152.856C30.7333 152.184 31.2053 151.464 31.5573 150.696C31.9253 149.928 32.1893 149.112 32.3493 148.248C32.5093 147.368 32.5893 146.456 32.5893 145.512V141.192H28.7013V138.744H39.3813V141.192H35.4933ZM30.6213 137.04V134.592H37.4613V137.04H30.6213ZM69.0566 150.84V149.712H53.3126V147.336H72.0086V153.216H56.2886V154.392H72.3686V156.768H53.3126V150.84H69.0566ZM65.4566 143.136V145.536H52.3526V134.832H55.3286V143.136H65.4566ZM72.0086 134.52V146.256H69.0566V140.472H62.5526V138.024H69.0566V134.52H72.0086ZM91.9638 150.96V149.928H76.2438V147.576H94.9158V153.312H79.2198V154.416H95.3958V156.768H76.2438V150.96H91.9638ZM96.4278 143.784V146.208H74.6838V143.784H96.4278ZM81.2358 142.368C80.4198 142.368 79.6918 142.304 79.0518 142.176C78.4278 142.048 77.8998 141.84 77.4678 141.552C77.0358 141.248 76.7078 140.856 76.4838 140.376C76.2598 139.896 76.1478 139.304 76.1478 138.6C76.1478 137.896 76.2598 137.304 76.4838 136.824C76.7078 136.344 77.0358 135.96 77.4678 135.672C77.8998 135.368 78.4278 135.152 79.0518 135.024C79.6918 134.896 80.4198 134.832 81.2358 134.832H89.9238C90.7398 134.832 91.4598 134.896 92.0838 135.024C92.7238 135.152 93.2598 135.368 93.6918 135.672C94.1238 135.96 94.4518 136.344 94.6758 136.824C94.8998 137.304 95.0118 137.896 95.0118 138.6C95.0118 139.304 94.8998 139.896 94.6758 140.376C94.4518 140.856 94.1238 141.248 93.6918 141.552C93.2598 141.84 92.7238 142.048 92.0838 142.176C91.4598 142.304 90.7398 142.368 89.9238 142.368H81.2358ZM79.0518 138.6C79.0518 139.176 79.2518 139.552 79.6518 139.728C80.0518 139.904 80.6598 139.992 81.4758 139.992H89.6838C90.4998 139.992 91.1078 139.904 91.5078 139.728C91.9078 139.552 92.1078 139.176 92.1078 138.6C92.1078 138.024 91.9078 137.648 91.5078 137.472C91.1078 137.296 90.4998 137.208 89.6838 137.208H81.4758C80.6598 137.208 80.0518 137.296 79.6518 137.472C79.2518 137.648 79.0518 138.024 79.0518 138.6ZM106.13 143.424C106.13 142.96 106.234 142.544 106.442 142.176C106.65 141.808 106.986 141.504 107.45 141.264C107.93 141.008 108.554 140.816 109.322 140.688C110.09 140.56 111.026 140.496 112.13 140.496C113.25 140.496 114.194 140.56 114.962 140.688C115.73 140.816 116.346 141.008 116.81 141.264C117.29 141.504 117.634 141.808 117.842 142.176C118.05 142.528 118.154 142.944 118.154 143.424C118.154 144.256 117.818 144.92 117.146 145.416C116.474 145.896 115.322 146.192 113.69 146.304V147.048C114.714 147 115.73 146.944 116.738 146.88C117.746 146.816 118.754 146.736 119.762 146.64L120.146 148.968C117.634 149.224 115.098 149.408 112.538 149.52C109.978 149.632 107.402 149.696 104.81 149.712L104.426 147.312C105.45 147.296 106.49 147.28 107.546 147.264C108.602 147.248 109.658 147.224 110.714 147.192V146.328C109.034 146.216 107.85 145.912 107.162 145.416C106.474 144.92 106.13 144.256 106.13 143.424ZM106.346 153.096V150.696H123.866V156.864H120.914V153.096H106.346ZM127.274 143.544H123.866V149.616H120.914V134.52H123.866V141.096H127.274V143.544ZM105.194 139.752V137.424H118.946V139.752H105.194ZM108.194 136.68V134.352H115.946V136.68H108.194ZM115.226 143.424C115.226 143.312 115.186 143.216 115.106 143.136C115.026 143.04 114.874 142.96 114.65 142.896C114.426 142.832 114.106 142.784 113.69 142.752C113.29 142.72 112.77 142.704 112.13 142.704C111.506 142.704 110.994 142.72 110.594 142.752C110.21 142.784 109.898 142.832 109.658 142.896C109.434 142.96 109.274 143.032 109.178 143.112C109.098 143.192 109.058 143.288 109.058 143.4C109.058 143.528 109.098 143.64 109.178 143.736C109.274 143.816 109.434 143.888 109.658 143.952C109.898 144.016 110.21 144.064 110.594 144.096C110.994 144.128 111.506 144.144 112.13 144.144C112.77 144.144 113.29 144.128 113.69 144.096C114.106 144.064 114.426 144.016 114.65 143.952C114.874 143.888 115.026 143.816 115.106 143.736C115.186 143.64 115.226 143.536 115.226 143.424ZM133.118 148.776V154.104H149.198V156.528H130.142V148.776H133.118ZM145.886 134.52H148.838V151.08H145.886V134.52ZM128.678 140.736C128.678 139.744 128.846 138.864 129.182 138.096C129.518 137.328 129.966 136.688 130.526 136.176C131.102 135.648 131.766 135.256 132.518 135C133.286 134.728 134.094 134.592 134.942 134.592C135.79 134.592 136.59 134.728 137.342 135C138.11 135.256 138.782 135.648 139.358 136.176C139.934 136.688 140.39 137.328 140.726 138.096C141.062 138.848 141.23 139.728 141.23 140.736C141.23 141.744 141.062 142.632 140.726 143.4C140.39 144.152 139.934 144.784 139.358 145.296C138.782 145.808 138.11 146.192 137.342 146.448C136.59 146.704 135.79 146.832 134.942 146.832C134.094 146.832 133.286 146.704 132.518 146.448C131.766 146.176 131.102 145.784 130.526 145.272C129.966 144.76 129.518 144.128 129.182 143.376C128.846 142.608 128.678 141.728 128.678 140.736ZM138.302 140.736C138.302 139.488 137.982 138.568 137.342 137.976C136.718 137.368 135.918 137.064 134.942 137.064C134.478 137.064 134.038 137.144 133.622 137.304C133.222 137.448 132.87 137.672 132.566 137.976C132.278 138.264 132.046 138.64 131.87 139.104C131.694 139.552 131.606 140.088 131.606 140.712C131.606 141.336 131.694 141.88 131.87 142.344C132.046 142.808 132.278 143.192 132.566 143.496C132.87 143.784 133.222 144 133.622 144.144C134.038 144.288 134.478 144.36 134.942 144.36C135.918 144.36 136.718 144.072 137.342 143.496C137.982 142.904 138.302 141.984 138.302 140.736ZM164.257 149.928C164.257 152.104 163.785 153.752 162.841 154.872C161.897 156.008 160.369 156.576 158.257 156.576C156.145 156.576 154.609 156.008 153.649 154.872C152.705 153.752 152.233 152.104 152.233 149.928V148.944C152.233 146.768 152.705 145.12 153.649 144C154.609 142.864 156.145 142.296 158.257 142.296C160.369 142.296 161.897 142.864 162.841 144C163.785 145.12 164.257 146.768 164.257 148.944V149.928ZM173.857 145.704H170.449V156.768H167.497V134.52H170.449V143.256H173.857V145.704ZM161.281 148.848C161.281 147.44 161.041 146.4 160.561 145.728C160.081 145.056 159.313 144.72 158.257 144.72C157.201 144.72 156.425 145.056 155.929 145.728C155.449 146.4 155.209 147.44 155.209 148.848V150.024C155.209 151.432 155.449 152.472 155.929 153.144C156.425 153.816 157.201 154.152 158.257 154.152C159.313 154.152 160.081 153.816 160.561 153.144C161.041 152.472 161.281 151.432 161.281 150.024V148.848ZM151.897 141.024V138.576H164.833V141.024H151.897ZM154.297 137.04V134.592H162.409V137.04H154.297ZM185.1 156.288C184.732 156.096 184.348 155.832 183.948 155.496C183.564 155.16 183.18 154.768 182.796 154.32C182.412 153.888 182.044 153.416 181.692 152.904C181.356 152.376 181.06 151.832 180.804 151.272C180.308 152.44 179.652 153.488 178.836 154.416C178.02 155.344 177.172 156.056 176.292 156.552L174.66 154.632C175.524 154.104 176.252 153.512 176.844 152.856C177.436 152.184 177.908 151.464 178.26 150.696C178.628 149.928 178.892 149.112 179.052 148.248C179.212 147.368 179.292 146.456 179.292 145.512V134.712H182.196V145.464C182.196 146.344 182.268 147.2 182.412 148.032C182.556 148.848 182.796 149.632 183.132 150.384C183.468 151.12 183.916 151.816 184.476 152.472C185.036 153.112 185.74 153.704 186.588 154.248L185.1 156.288ZM188.508 134.712H191.388V156.456H188.508V145.704H184.788V143.28H188.508V134.712ZM195.924 134.52V156.768H193.02V134.52H195.924ZM206.567 148.536C205.127 148.536 203.951 148.312 203.039 147.864C202.127 147.416 201.415 146.856 200.903 146.184C200.391 145.512 200.039 144.776 199.847 143.976C199.655 143.16 199.559 142.392 199.559 141.672C199.559 140.952 199.655 140.192 199.847 139.392C200.039 138.592 200.391 137.856 200.903 137.184C201.415 136.496 202.127 135.936 203.039 135.504C203.951 135.056 205.127 134.832 206.567 134.832H211.415C212.855 134.832 214.031 135.056 214.943 135.504C215.855 135.936 216.567 136.496 217.079 137.184C217.591 137.856 217.943 138.592 218.135 139.392C218.327 140.192 218.423 140.952 218.423 141.672C218.423 142.392 218.327 143.16 218.135 143.976C217.943 144.776 217.591 145.512 217.079 146.184C216.567 146.856 215.855 147.416 214.943 147.864C214.031 148.312 212.855 148.536 211.415 148.536H206.567ZM202.463 141.672C202.463 142.248 202.527 142.808 202.655 143.352C202.783 143.88 203.015 144.352 203.351 144.768C203.687 145.184 204.135 145.52 204.695 145.776C205.271 146.032 205.999 146.16 206.879 146.16H211.103C211.983 146.16 212.703 146.032 213.263 145.776C213.839 145.52 214.295 145.184 214.631 144.768C214.967 144.352 215.199 143.88 215.327 143.352C215.455 142.808 215.519 142.248 215.519 141.672C215.519 141.096 215.455 140.544 215.327 140.016C215.199 139.472 214.967 138.992 214.631 138.576C214.295 138.16 213.839 137.832 213.263 137.592C212.703 137.336 211.983 137.208 211.103 137.208H206.879C205.999 137.208 205.271 137.336 204.695 137.592C204.135 137.832 203.687 138.16 203.351 138.576C203.015 138.992 202.783 139.472 202.655 140.016C202.527 140.544 202.463 141.096 202.463 141.672ZM203.159 153.864V149.496H206.135V153.864H211.847V149.496H214.823V153.864H219.863V156.288H198.095V153.864H203.159Z" fill="#212B3B"/>
<path d="M94.2335 114.52L95.4095 109.168H92.1455L90.9935 114.52H88.3055L89.4815 109.168H87.6335V106.96H89.9615L90.9695 102.448H88.4975V100.24H91.4495L92.6015 95.032H95.2415L94.0895 100.24H97.3775L98.5295 95.032H101.17L100.018 100.24H101.962V102.448H99.5375L98.5535 106.96H101.098V109.168H98.0735L96.9215 114.52H94.2335ZM96.8975 102.448H93.6095L92.6255 106.96H95.8895L96.8975 102.448ZM121.802 93.52H124.706V115.768H121.802V104.704H119.45V115.456H116.57V93.712H119.45V102.28H121.802V93.52ZM114.746 109.528C114.746 110.488 114.666 111.344 114.506 112.096C114.346 112.848 114.074 113.48 113.69 113.992C113.306 114.52 112.786 114.912 112.13 115.168C111.474 115.44 110.658 115.576 109.682 115.576C108.69 115.576 107.866 115.44 107.21 115.168C106.57 114.912 106.058 114.52 105.674 113.992C105.29 113.48 105.018 112.848 104.858 112.096C104.698 111.344 104.618 110.488 104.618 109.528V107.344C104.618 106.384 104.698 105.528 104.858 104.776C105.018 104.024 105.29 103.392 105.674 102.88C106.058 102.352 106.57 101.96 107.21 101.704C107.866 101.432 108.69 101.296 109.682 101.296C110.658 101.296 111.474 101.432 112.13 101.704C112.786 101.96 113.306 102.352 113.69 102.88C114.074 103.392 114.346 104.024 114.506 104.776C114.666 105.528 114.746 106.384 114.746 107.344V109.528ZM111.842 107.344C111.842 106.752 111.81 106.232 111.746 105.784C111.682 105.336 111.57 104.968 111.41 104.68C111.25 104.392 111.026 104.176 110.738 104.032C110.466 103.888 110.114 103.816 109.682 103.816C108.802 103.816 108.218 104.104 107.93 104.68C107.642 105.256 107.498 106.144 107.498 107.344V109.528C107.498 110.728 107.642 111.616 107.93 112.192C108.218 112.768 108.802 113.056 109.682 113.056C110.114 113.056 110.466 112.984 110.738 112.84C111.026 112.696 111.25 112.48 111.41 112.192C111.57 111.904 111.682 111.544 111.746 111.112C111.81 110.664 111.842 110.136 111.842 109.528V107.344ZM103.922 100.024V97.576H115.442V100.024H103.922ZM106.322 96.04V93.592H113.018V96.04H106.322ZM138.613 99.184C138.613 101.28 138.373 103.152 137.893 104.8C137.413 106.448 136.725 107.928 135.829 109.24C134.949 110.536 133.877 111.68 132.613 112.672C131.349 113.664 129.925 114.544 128.341 115.312L126.877 113.176C127.805 112.728 128.685 112.216 129.517 111.64C130.365 111.048 131.133 110.392 131.821 109.672C132.525 108.936 133.141 108.128 133.669 107.248C134.213 106.352 134.645 105.376 134.965 104.32H127.477V101.872H135.469C135.501 101.552 135.525 101.224 135.541 100.888C135.573 100.552 135.589 100.208 135.589 99.856V96.256H127.717V93.832H138.613V99.184ZM147.493 93.52V115.768H144.541V104.704H139.693V102.256H144.541V93.52H147.493ZM161.785 112.936V115.336H151.201V93.832H154.177V112.936H161.785ZM163.873 93.712H166.753V115.456H163.873V104.704H159.529V102.28H163.873V93.712ZM171.289 93.52V115.768H168.385V93.52H171.289ZM185.484 95.32C185.484 96.616 185.236 97.824 184.74 98.944C184.26 100.064 183.572 101.088 182.676 102.016C181.78 102.928 180.692 103.744 179.412 104.464C178.148 105.168 176.74 105.768 175.188 106.264L173.796 104.032C174.948 103.696 176.028 103.272 177.036 102.76C178.06 102.232 178.98 101.608 179.796 100.888H174.3V98.464H181.74C182.092 97.76 182.292 97.016 182.34 96.232H174.78V93.808H185.484V95.32ZM193.812 116.128C192.868 116.016 191.956 115.84 191.076 115.6C190.196 115.376 189.372 115.088 188.604 114.736C187.836 114.4 187.132 114 186.492 113.536C185.868 113.072 185.332 112.544 184.884 111.952C184.452 112.544 183.916 113.072 183.276 113.536C182.652 114 181.948 114.4 181.164 114.736C180.396 115.088 179.572 115.376 178.692 115.6C177.812 115.84 176.908 116.016 175.98 116.128L174.996 113.776C176.164 113.648 177.26 113.44 178.284 113.152C179.308 112.88 180.196 112.512 180.948 112.048C181.716 111.6 182.316 111.064 182.748 110.44C183.196 109.816 183.42 109.104 183.42 108.304V107.176H186.372V108.304C186.372 109.104 186.588 109.816 187.02 110.44C187.468 111.064 188.068 111.6 188.82 112.048C189.588 112.512 190.484 112.88 191.508 113.152C192.532 113.44 193.628 113.648 194.796 113.776L193.812 116.128ZM194.076 93.52V107.776H191.124V100.72H186.3V98.272H191.124V93.52H194.076Z" fill="#1563FC"/>
<circle cx="82" cy="15" r="15" fill="#D5E5FF"/>
<path d="M82.6282 20.63H81.0532V11.54C80.6832 11.82 80.0782 12.145 79.2382 12.515L78.5782 11.405C79.7682 10.875 80.7232 10.165 81.4432 9.275H82.6282V20.63Z" fill="#97A8C5"/>
<circle cx="122" cy="15" r="15" fill="#D5E5FF"/>
<path d="M118.113 20.57V19.985C118.113 19.695 118.168 19.4 118.278 19.1C118.398 18.79 118.553 18.5 118.743 18.23C118.943 17.95 119.168 17.665 119.418 17.375C119.668 17.085 119.928 16.81 120.198 16.55C120.478 16.28 120.758 16.005 121.038 15.725C121.718 15.055 122.243 14.455 122.613 13.925C122.993 13.395 123.183 12.87 123.183 12.35C123.183 11.82 123.028 11.38 122.718 11.03C122.418 10.67 122.008 10.49 121.488 10.49C121.008 10.49 120.573 10.675 120.183 11.045C119.803 11.415 119.503 11.88 119.283 12.44L117.873 11.81C118.213 11.03 118.688 10.39 119.298 9.89C119.918 9.39 120.658 9.14 121.518 9.14C122.528 9.14 123.323 9.42 123.903 9.98C124.493 10.53 124.788 11.29 124.788 12.26C124.788 12.69 124.708 13.115 124.548 13.535C124.398 13.945 124.153 14.365 123.813 14.795C123.473 15.225 123.178 15.57 122.928 15.83C122.688 16.08 122.333 16.435 121.863 16.895C121.483 17.255 121.198 17.53 121.008 17.72C120.828 17.91 120.628 18.15 120.408 18.44C120.188 18.73 120.038 18.995 119.958 19.235H125.043V20.57H118.113Z" fill="#97A8C5"/>
<circle cx="162" cy="15" r="15" fill="#1563FC"/>
<path d="M164.668 11.855C164.668 12.985 164.123 13.835 163.033 14.405C163.603 14.655 164.063 15.02 164.413 15.5C164.773 15.98 164.953 16.54 164.953 17.18C164.953 17.83 164.813 18.405 164.533 18.905C164.253 19.405 163.868 19.8 163.378 20.09C162.898 20.38 162.378 20.6 161.818 20.75C161.258 20.9 160.658 20.985 160.018 21.005C159.358 21.005 158.713 20.955 158.083 20.855L158.068 19.625C158.698 19.675 159.168 19.7 159.478 19.7C159.968 19.7 160.418 19.665 160.828 19.595C161.248 19.525 161.653 19.405 162.043 19.235C162.433 19.065 162.738 18.815 162.958 18.485C163.188 18.145 163.303 17.735 163.303 17.255C163.303 16.575 163.038 16.06 162.508 15.71C161.978 15.36 161.328 15.185 160.558 15.185H159.673V13.865H160.528C161.238 13.865 161.828 13.7 162.298 13.37C162.768 13.03 163.003 12.54 163.003 11.9C163.003 11.44 162.823 11.1 162.463 10.88C162.103 10.65 161.638 10.535 161.068 10.535C160.308 10.535 159.528 10.84 158.728 11.45L157.993 10.37C159.093 9.54 160.208 9.125 161.338 9.125C162.238 9.125 163.018 9.37 163.678 9.86C164.338 10.34 164.668 11.005 164.668 11.855Z" fill="white"/>
<path d="M61.0526 108.158C61.0526 109.555 59.9234 110.684 58.5263 110.684C57.1292 110.684 56 109.555 56 108.158C56 106.761 57.1292 105.632 58.5263 105.632H61.0526V108.158ZM62.3158 108.158C62.3158 106.761 63.445 105.632 64.8421 105.632C66.2392 105.632 67.3684 106.761 67.3684 108.158V114.474C67.3684 115.871 66.2392 117 64.8421 117C63.445 117 62.3158 115.871 62.3158 114.474V108.158Z" fill="#F53C76"/>
<path d="M64.8464 98.0441C63.4516 98.0441 62.3243 96.9169 62.3243 95.5221C62.3243 94.1273 63.4516 93 64.8464 93C66.2411 93 67.3684 94.1273 67.3684 95.5221V98.0441H64.8464ZM64.8464 99.3243C66.2411 99.3243 67.3684 100.452 67.3684 101.846C67.3684 103.241 66.2411 104.368 64.8464 104.368H58.5221C57.1273 104.368 56 103.241 56 101.846C56 100.452 57.1273 99.3243 58.5221 99.3243H64.8464Z" fill="#36C5F0"/>
<path d="M74.7606 101.846C74.7606 100.452 75.9317 99.3243 77.3805 99.3243C78.8294 99.3243 80.0004 100.452 80.0004 101.846C80.0004 103.241 78.8294 104.368 77.3805 104.368H74.7606V101.846ZM73.4507 101.846C73.4507 103.241 72.2797 104.368 70.8308 104.368C69.3819 104.368 68.2109 103.241 68.2109 101.846V95.5221C68.2109 94.1273 69.3819 93 70.8308 93C72.2797 93 73.4507 94.1273 73.4507 95.5221V101.846Z" fill="#0FC478"/>
<path d="M70.8264 111.947C72.2729 111.947 73.4419 113.077 73.4419 114.474C73.4419 115.871 72.2729 117 70.8264 117C69.38 117 68.2109 115.871 68.2109 114.474V111.947H70.8264ZM70.8264 110.684C69.38 110.684 68.2109 109.555 68.2109 108.158C68.2109 106.761 69.38 105.632 70.8264 105.632H77.3849C78.8314 105.632 80.0004 106.761 80.0004 108.158C80.0004 109.555 78.8314 110.684 77.3849 110.684H70.8264Z" fill="#F3A900"/>
</svg>
