<svg width="240" height="137" viewBox="0 0 240 137" fill="none" xmlns="http://www.w3.org/2000/svg">
<path d="M37.163 66.464V64.328H41.579L40.643 56.336L43.235 56.192L44.171 64.328H49.115L50.075 56.192L52.667 56.336L51.707 64.328H56.147V66.464H37.163ZM35.819 74.216V72.08H45.347V67.496H47.939V72.08H57.443V74.216H35.819ZM37.379 55.04V52.904H55.907V55.04H37.379ZM79.3182 66.704H60.7902V52.904H79.1742V55.04H63.3822V58.856H78.6942V60.992H63.3822V64.592H79.3182V66.704ZM59.1102 74.216V72.08H68.6382V67.736H71.2302V72.08H80.7342V74.216H59.1102ZM91.2815 60.944C91.3775 60.272 91.4255 59.552 91.4255 58.784V55.064H83.1455V52.904H93.9935V58.112C93.9935 60.208 93.7535 62.08 93.2735 63.728C92.8095 65.376 92.1375 66.856 91.2575 68.168C90.3935 69.464 89.3295 70.608 88.0655 71.6C86.8015 72.592 85.3775 73.472 83.7935 74.24L82.5215 72.416C83.4815 71.968 84.3935 71.448 85.2575 70.856C86.1375 70.248 86.9375 69.568 87.6575 68.816C88.3935 68.048 89.0335 67.192 89.5775 66.248C90.1215 65.304 90.5535 64.256 90.8735 63.104H83.0015V60.944H91.2815ZM101.073 61.4H104.601V63.56H101.073V74.696H98.5055V52.592H101.073V61.4ZM105.693 74.216V72.08H127.317V74.216H105.693ZM125.901 66.464H107.373V52.904H125.781V55.04H109.965V64.352H125.901V66.464ZM130.664 66.68V58.76H146.384V54.992H130.664V52.904H148.952V60.848H133.256V64.592H149.432V66.68H130.664ZM128.984 74.216V72.08H138.512V67.736H141.104V72.08H150.608V74.216H128.984ZM159.951 64.544V52.904H171.831V64.544H159.951ZM163.479 66.848V72.344H178.287V74.456H160.911V66.848H163.479ZM177.903 59.048H181.431V61.208H177.903V69.008H175.335V52.568H177.903V59.048ZM169.239 55.04H162.543V62.432H169.239V55.04ZM182.522 64.064V61.928H204.122V64.064H182.522ZM184.082 74.696V69.08H200.042V67.736H184.082V65.648H202.61V71.168H186.674V72.608H203.09V74.696H184.082ZM202.73 60.296H184.202V52.904H202.61V55.04H186.794V58.184H202.73V60.296ZM13.5585 115.264C13.0145 114.912 12.4705 114.504 11.9265 114.04C11.3985 113.576 10.8945 113.08 10.4145 112.552C9.9345 112.024 9.4945 111.464 9.0945 110.872C8.6945 110.264 8.3585 109.632 8.0865 108.976C7.8145 109.648 7.4705 110.296 7.0545 110.92C6.6385 111.544 6.1745 112.136 5.6625 112.696C5.1665 113.256 4.6385 113.768 4.0785 114.232C3.5185 114.712 2.9585 115.136 2.3985 115.504L0.8865 113.776C1.7665 113.216 2.5665 112.584 3.2865 111.88C4.0225 111.16 4.6465 110.384 5.1585 109.552C5.6865 108.72 6.0865 107.84 6.3585 106.912C6.6465 105.984 6.7905 105.016 6.7905 104.008V93.784H9.4065V104.008C9.4065 106.072 9.9025 107.896 10.8945 109.48C11.8865 111.064 13.2785 112.416 15.0705 113.536L13.5585 115.264ZM19.9905 102.4H23.5185V104.56H19.9905V115.696H17.4225V93.592H19.9905V102.4ZM37.3778 93.904V96.064H32.6978V97.48C32.6978 98.296 32.8498 99.032 33.1538 99.688C33.4738 100.344 33.8818 100.928 34.3778 101.44C34.8898 101.936 35.4578 102.36 36.0818 102.712C36.7218 103.048 37.3698 103.312 38.0258 103.504L36.8498 105.4C35.8898 105.176 34.9218 104.728 33.9458 104.056C32.9858 103.384 32.1618 102.488 31.4738 101.368C30.8818 102.472 30.0738 103.424 29.0498 104.224C28.0418 105.024 26.9378 105.656 25.7377 106.12L24.5137 104.32C25.3297 103.984 26.0818 103.592 26.7698 103.144C27.4578 102.696 28.0498 102.2 28.5458 101.656C29.0418 101.096 29.4258 100.48 29.6978 99.808C29.9698 99.136 30.1058 98.392 30.1058 97.576V96.064H25.4018V93.904H37.3778ZM29.0978 107.848V113.344H45.3458V115.456H26.5297V107.848H29.0978ZM44.9618 110.008H42.3938V93.568H44.9618V110.008ZM63.8803 111.352H54.7363V109.528L63.8803 94.384H66.4723V109.168H69.1603V111.352H66.4723V115.264H63.8803V111.352ZM63.8803 98.32L57.3523 109.168H63.8803V98.32ZM76.4874 115.696C74.7914 115.696 73.5354 115.352 72.7194 114.664C71.9194 113.976 71.5194 112.92 71.5194 111.496C71.5194 110.072 71.9194 109.032 72.7194 108.376C73.5354 107.704 74.7914 107.368 76.4874 107.368H84.6234C86.3194 107.368 87.5674 107.704 88.3674 108.376C89.1834 109.032 89.5914 110.072 89.5914 111.496C89.5914 112.92 89.1834 113.976 88.3674 114.664C87.5674 115.352 86.3194 115.696 84.6234 115.696H76.4874ZM82.8474 93.904V96.064H78.1674V97C78.1674 97.816 78.3194 98.552 78.6234 99.208C78.9434 99.864 79.3514 100.448 79.8474 100.96C80.3594 101.456 80.9274 101.88 81.5514 102.232C82.1914 102.568 82.8394 102.832 83.4954 103.024L82.3194 104.92C81.3594 104.696 80.3914 104.248 79.4154 103.576C78.4554 102.904 77.6314 102.008 76.9434 100.888C76.3514 101.992 75.5434 102.944 74.5194 103.744C73.5114 104.544 72.4074 105.176 71.2074 105.64L69.9834 103.84C70.7994 103.504 71.5514 103.112 72.2394 102.664C72.9274 102.216 73.5194 101.72 74.0154 101.176C74.5114 100.616 74.8954 100 75.1674 99.328C75.4394 98.656 75.5754 97.912 75.5754 97.096V96.064H70.8714V93.904H82.8474ZM74.0874 111.496C74.0874 111.784 74.1274 112.048 74.2074 112.288C74.2874 112.544 74.4234 112.768 74.6154 112.96C74.8074 113.152 75.0634 113.296 75.3834 113.392C75.7194 113.504 76.1354 113.56 76.6314 113.56H84.4794C84.9754 113.56 85.3834 113.504 85.7034 113.392C86.0394 113.296 86.3034 113.152 86.4954 112.96C86.6874 112.768 86.8234 112.544 86.9034 112.288C86.9834 112.048 87.0234 111.784 87.0234 111.496C87.0234 110.92 86.8394 110.448 86.4714 110.08C86.1194 109.696 85.4554 109.504 84.4794 109.504H76.6314C76.1354 109.504 75.7194 109.552 75.3834 109.648C75.0634 109.744 74.8074 109.888 74.6154 110.08C74.4234 110.256 74.2874 110.464 74.2074 110.704C74.1274 110.944 74.0874 111.208 74.0874 111.496ZM88.9914 98.32H92.5194V100.48H88.9914V106.144H86.4234V93.568H88.9914V98.32ZM93.6107 105.064V102.928H115.211V105.064H93.6107ZM95.1707 115.696V110.08H111.131V108.736H95.1707V106.648H113.699V112.168H97.7627V113.608H114.179V115.696H95.1707ZM100.043 101.296C98.3467 101.296 97.0907 101.008 96.2747 100.432C95.4747 99.856 95.0747 98.912 95.0747 97.6C95.0747 96.288 95.4747 95.344 96.2747 94.768C97.0907 94.192 98.3467 93.904 100.043 93.904H108.827C110.523 93.904 111.771 94.192 112.571 94.768C113.387 95.344 113.795 96.288 113.795 97.6C113.795 98.912 113.387 99.856 112.571 100.432C111.771 101.008 110.523 101.296 108.827 101.296H100.043ZM97.6427 97.6C97.6427 97.856 97.6827 98.08 97.7627 98.272C97.8427 98.464 97.9787 98.632 98.1707 98.776C98.3627 98.904 98.6187 99 98.9387 99.064C99.2747 99.128 99.6907 99.16 100.187 99.16H108.683C109.659 99.16 110.323 99.032 110.675 98.776C111.043 98.504 111.227 98.112 111.227 97.6C111.227 97.104 111.043 96.72 110.675 96.448C110.323 96.176 109.659 96.04 108.683 96.04H100.187C99.6907 96.04 99.2747 96.08 98.9387 96.16C98.6187 96.224 98.3627 96.32 98.1707 96.448C97.9787 96.576 97.8427 96.736 97.7627 96.928C97.6827 97.12 97.6427 97.344 97.6427 97.6ZM128.345 107.848V113.344H144.593V115.456H125.777V107.848H128.345ZM136.673 97.696H141.641V93.568H144.209V110.008H141.641V99.832H136.673V97.696ZM136.241 105.712C135.761 105.504 135.281 105.256 134.801 104.968C134.321 104.664 133.849 104.312 133.385 103.912C132.937 103.496 132.505 103.024 132.089 102.496C131.673 101.968 131.297 101.376 130.961 100.72C130.369 101.92 129.577 102.976 128.585 103.888C127.593 104.8 126.497 105.544 125.297 106.12L123.977 104.344C124.793 103.944 125.545 103.48 126.233 102.952C126.921 102.424 127.505 101.84 127.985 101.2C128.481 100.544 128.865 99.84 129.137 99.088C129.425 98.32 129.569 97.504 129.569 96.64V93.784H132.185V96.544C132.185 97.456 132.337 98.296 132.641 99.064C132.961 99.816 133.377 100.496 133.889 101.104C134.401 101.712 134.977 102.24 135.617 102.688C136.257 103.136 136.905 103.504 137.561 103.792L136.241 105.712ZM158.836 105.304H148.18V93.904H158.356V96.04H150.772V98.56H158.356V100.72H150.772V103.192H158.836V105.304ZM162.748 98.344H165.484V93.568H168.004V106.408H165.484V100.48H162.748V106.168H160.252V93.784H162.748V98.344ZM165.436 115.792V109.72H149.044V107.608H168.004V115.792H165.436ZM183.04 108.88C183.04 111.056 182.576 112.704 181.648 113.824C180.736 114.944 179.224 115.504 177.112 115.504C175 115.504 173.48 114.936 172.552 113.8C171.624 112.68 171.16 111.032 171.16 108.856V107.944C171.16 105.768 171.624 104.12 172.552 103C173.48 101.864 175 101.296 177.112 101.296C179.224 101.296 180.736 101.864 181.648 103C182.576 104.136 183.04 105.792 183.04 107.968V108.88ZM189.112 102.4H192.64V104.56H189.112V115.696H186.544V93.592H189.112V102.4ZM180.448 107.536C180.448 106.064 180.152 105.016 179.56 104.392C178.968 103.752 178.152 103.432 177.112 103.432C176.072 103.432 175.248 103.744 174.64 104.368C174.048 104.992 173.752 106.04 173.752 107.512V109.288C173.752 110.76 174.048 111.808 174.64 112.432C175.248 113.056 176.072 113.368 177.112 113.368C178.152 113.368 178.968 113.056 179.56 112.432C180.152 111.824 180.448 110.784 180.448 109.312V107.536ZM183.688 97.72V99.88H170.752V97.72H183.688ZM181.264 93.664V95.824H173.152V93.664H181.264ZM204.027 115.192C203.659 115 203.267 114.728 202.851 114.376C202.451 114.024 202.051 113.608 201.651 113.128C201.267 112.664 200.899 112.152 200.547 111.592C200.211 111.032 199.915 110.448 199.659 109.84C199.419 110.464 199.131 111.064 198.795 111.64C198.459 112.2 198.083 112.72 197.667 113.2C197.267 113.696 196.843 114.136 196.395 114.52C195.947 114.904 195.507 115.216 195.075 115.456L193.659 113.776C194.507 113.248 195.227 112.656 195.819 112C196.411 111.328 196.891 110.6 197.259 109.816C197.643 109.016 197.915 108.176 198.075 107.296C198.251 106.4 198.339 105.472 198.339 104.512V93.784H200.859V104.464C200.859 105.36 200.931 106.232 201.075 107.08C201.235 107.912 201.483 108.712 201.819 109.48C202.171 110.232 202.627 110.944 203.187 111.616C203.763 112.272 204.475 112.872 205.323 113.416L204.027 115.192ZM203.643 102.424H207.555V93.784H210.051V115.384H207.555V104.56H203.643V102.424ZM212.067 115.696V93.568H214.587V115.696H212.067ZM225.494 107.464C224.054 107.464 222.878 107.248 221.966 106.816C221.054 106.368 220.342 105.816 219.83 105.16C219.318 104.488 218.966 103.752 218.774 102.952C218.582 102.152 218.486 101.392 218.486 100.672C218.486 99.952 218.582 99.2 218.774 98.416C218.966 97.616 219.318 96.88 219.83 96.208C220.342 95.536 221.054 94.984 221.966 94.552C222.878 94.12 224.054 93.904 225.494 93.904H230.198C231.638 93.904 232.814 94.12 233.726 94.552C234.638 94.984 235.35 95.536 235.862 96.208C236.374 96.88 236.726 97.616 236.918 98.416C237.11 99.2 237.206 99.952 237.206 100.672C237.206 101.392 237.11 102.152 236.918 102.952C236.726 103.752 236.374 104.488 235.862 105.16C235.35 105.816 234.638 106.368 233.726 106.816C232.814 107.248 231.638 107.464 230.198 107.464H225.494ZM221.054 100.672C221.054 101.248 221.118 101.816 221.246 102.376C221.39 102.936 221.638 103.44 221.99 103.888C222.342 104.32 222.814 104.672 223.406 104.944C224.014 105.216 224.782 105.352 225.71 105.352H229.982C230.91 105.352 231.67 105.216 232.262 104.944C232.87 104.672 233.35 104.32 233.702 103.888C234.054 103.44 234.294 102.936 234.422 102.376C234.566 101.816 234.638 101.248 234.638 100.672C234.638 100.096 234.566 99.528 234.422 98.968C234.294 98.408 234.054 97.912 233.702 97.48C233.35 97.048 232.87 96.704 232.262 96.448C231.67 96.176 230.91 96.04 229.982 96.04H225.71C224.782 96.04 224.014 96.176 223.406 96.448C222.814 96.704 222.342 97.048 221.99 97.48C221.638 97.912 221.39 98.408 221.246 98.968C221.118 99.528 221.054 100.096 221.054 100.672ZM217.022 115.216V113.08H222.206V108.496H224.798V113.08H230.894V108.496H233.486V113.08H238.646V115.216H217.022Z" fill="#212B3B"/>
<circle cx="78" cy="15" r="15" fill="#1563FC"/>
<path d="M78.6282 20.63H77.0532V11.54C76.6832 11.82 76.0782 12.145 75.2382 12.515L74.5782 11.405C75.7682 10.875 76.7232 10.165 77.4432 9.275H78.6282V20.63Z" fill="white"/>
<circle cx="118" cy="15" r="15" fill="#D5E5FF"/>
<path d="M114.113 20.57V19.985C114.113 19.695 114.168 19.4 114.278 19.1C114.398 18.79 114.553 18.5 114.743 18.23C114.943 17.95 115.168 17.665 115.418 17.375C115.668 17.085 115.928 16.81 116.198 16.55C116.478 16.28 116.758 16.005 117.038 15.725C117.718 15.055 118.243 14.455 118.613 13.925C118.993 13.395 119.183 12.87 119.183 12.35C119.183 11.82 119.028 11.38 118.718 11.03C118.418 10.67 118.008 10.49 117.488 10.49C117.008 10.49 116.573 10.675 116.183 11.045C115.803 11.415 115.503 11.88 115.283 12.44L113.873 11.81C114.213 11.03 114.688 10.39 115.298 9.89C115.918 9.39 116.658 9.14 117.518 9.14C118.528 9.14 119.323 9.42 119.903 9.98C120.493 10.53 120.788 11.29 120.788 12.26C120.788 12.69 120.708 13.115 120.548 13.535C120.398 13.945 120.153 14.365 119.813 14.795C119.473 15.225 119.178 15.57 118.928 15.83C118.688 16.08 118.333 16.435 117.863 16.895C117.483 17.255 117.198 17.53 117.008 17.72C116.828 17.91 116.628 18.15 116.408 18.44C116.188 18.73 116.038 18.995 115.958 19.235H121.043V20.57H114.113Z" fill="#97A8C5"/>
<circle cx="158" cy="15" r="15" fill="#D5E5FF"/>
<path d="M160.668 11.855C160.668 12.985 160.123 13.835 159.033 14.405C159.603 14.655 160.063 15.02 160.413 15.5C160.773 15.98 160.953 16.54 160.953 17.18C160.953 17.83 160.813 18.405 160.533 18.905C160.253 19.405 159.868 19.8 159.378 20.09C158.898 20.38 158.378 20.6 157.818 20.75C157.258 20.9 156.658 20.985 156.018 21.005C155.358 21.005 154.713 20.955 154.083 20.855L154.068 19.625C154.698 19.675 155.168 19.7 155.478 19.7C155.968 19.7 156.418 19.665 156.828 19.595C157.248 19.525 157.653 19.405 158.043 19.235C158.433 19.065 158.738 18.815 158.958 18.485C159.188 18.145 159.303 17.735 159.303 17.255C159.303 16.575 159.038 16.06 158.508 15.71C157.978 15.36 157.328 15.185 156.558 15.185H155.673V13.865H156.528C157.238 13.865 157.828 13.7 158.298 13.37C158.768 13.03 159.003 12.54 159.003 11.9C159.003 11.44 158.823 11.1 158.463 10.88C158.103 10.65 157.638 10.535 157.068 10.535C156.308 10.535 155.528 10.84 154.728 11.45L153.993 10.37C155.093 9.54 156.208 9.125 157.338 9.125C158.238 9.125 159.018 9.37 159.678 9.86C160.338 10.34 160.668 11.005 160.668 11.855Z" fill="#97A8C5"/>
</svg>
