<svg width="690" height="129" viewBox="0 0 690 129" fill="none" xmlns="http://www.w3.org/2000/svg">
<path d="M102.616 45.392V35.312H131.704V33.488H102.616V29.408H136.84V39.392H107.8V41.312H137.8V45.392H102.616ZM125.944 7.328V11.408H116.968C117.896 12.848 119.224 14.032 120.952 14.96C122.712 15.856 124.6 16.464 126.616 16.784L124.456 20.48C122.248 20.096 120.184 19.36 118.264 18.272C116.344 17.184 114.792 15.792 113.608 14.096C112.968 15.056 112.2 15.936 111.304 16.736C110.44 17.504 109.496 18.192 108.472 18.8C107.48 19.376 106.44 19.888 105.352 20.336C104.264 20.752 103.192 21.088 102.136 21.344L99.8804 17.888C102.344 17.248 104.44 16.368 106.168 15.248C107.928 14.128 109.224 12.848 110.056 11.408H101.08V7.328H125.944ZM136.84 12.08H143.896V16.4H136.84V27.488H131.704V1.184H136.84V12.08ZM129.976 25.808C127.576 26.096 125.08 26.336 122.488 26.528C119.896 26.72 117.272 26.88 114.616 27.008C111.992 27.104 109.368 27.2 106.744 27.296C104.152 27.36 101.624 27.408 99.1604 27.44L98.4884 23.216C102.68 23.152 106.872 23.056 111.064 22.928V18.944H116.248V22.688C118.456 22.56 120.648 22.432 122.824 22.304C125 22.144 127.144 21.936 129.256 21.68L129.976 25.808ZM120.808 0.847998V4.976H106.216V0.847998H120.808ZM158.895 45.392C155.503 45.392 152.991 44.704 151.359 43.328C149.759 41.952 148.959 39.84 148.959 36.992C148.959 34.144 149.759 32.064 151.359 30.752C152.991 29.408 155.503 28.736 158.895 28.736H178.047C181.439 28.736 183.935 29.408 185.535 30.752C187.167 32.064 187.983 34.144 187.983 36.992C187.983 39.84 187.167 41.952 185.535 43.328C183.935 44.704 181.439 45.392 178.047 45.392H158.895ZM146.991 13.232C146.991 11.312 147.311 9.616 147.951 8.144C148.623 6.672 149.519 5.44 150.639 4.448C151.759 3.424 153.071 2.656 154.575 2.144C156.079 1.6 157.679 1.328 159.375 1.328C161.071 1.328 162.671 1.6 164.175 2.144C165.679 2.656 166.991 3.424 168.111 4.448C169.263 5.44 170.159 6.672 170.799 8.144C171.471 9.616 171.807 11.312 171.807 13.232C171.807 15.152 171.471 16.848 170.799 18.32C170.159 19.792 169.263 21.04 168.111 22.064C166.991 23.056 165.679 23.808 164.175 24.32C162.671 24.832 161.071 25.088 159.375 25.088C157.679 25.088 156.079 24.832 154.575 24.32C153.071 23.808 151.759 23.056 150.639 22.064C149.519 21.04 148.623 19.792 147.951 18.32C147.311 16.848 146.991 15.152 146.991 13.232ZM154.095 36.992C154.095 37.568 154.175 38.096 154.335 38.576C154.495 39.088 154.767 39.536 155.151 39.92C155.535 40.304 156.047 40.592 156.687 40.784C157.359 41.008 158.191 41.12 159.183 41.12H177.759C178.751 41.12 179.567 41.008 180.207 40.784C180.879 40.592 181.407 40.304 181.791 39.92C182.175 39.536 182.447 39.088 182.607 38.576C182.767 38.096 182.847 37.568 182.847 36.992C182.847 35.84 182.479 34.896 181.743 34.16C181.039 33.392 179.711 33.008 177.759 33.008H159.183C158.191 33.008 157.359 33.104 156.687 33.296C156.047 33.488 155.535 33.776 155.151 34.16C154.767 34.512 154.495 34.928 154.335 35.408C154.175 35.888 154.095 36.416 154.095 36.992ZM181.647 6.512V1.136H186.783V26.768H181.647V19.952H173.631V15.632H181.647V10.832H173.631V6.512H181.647ZM166.671 13.232C166.671 11.888 166.479 10.736 166.095 9.776C165.711 8.816 165.183 8.032 164.511 7.424C163.839 6.784 163.055 6.32 162.159 6.032C161.295 5.712 160.367 5.552 159.375 5.552C158.447 5.552 157.535 5.712 156.639 6.032C155.775 6.32 155.007 6.784 154.335 7.424C153.663 8.032 153.119 8.816 152.703 9.776C152.319 10.736 152.127 11.872 152.127 13.184C152.127 14.528 152.319 15.696 152.703 16.688C153.119 17.648 153.663 18.448 154.335 19.088C155.007 19.696 155.775 20.144 156.639 20.432C157.535 20.72 158.447 20.864 159.375 20.864C160.367 20.864 161.295 20.72 162.159 20.432C163.055 20.144 163.839 19.696 164.511 19.088C165.183 18.448 165.711 17.648 166.095 16.688C166.479 15.728 166.671 14.576 166.671 13.232ZM233.365 45.392H228.229V1.184H233.365V45.392ZM218.341 31.76C218.341 36.112 217.413 39.408 215.557 41.648C213.733 43.888 210.709 45.008 206.485 45.008C202.261 45.008 199.221 43.872 197.365 41.6C195.509 39.36 194.581 36.064 194.581 31.712V14.624C194.581 10.272 195.509 6.976 197.365 4.736C199.221 2.464 202.261 1.328 206.485 1.328C210.709 1.328 213.733 2.464 215.557 4.736C217.413 7.008 218.341 10.32 218.341 14.672V31.76ZM213.157 13.808C213.157 10.864 212.565 8.768 211.381 7.52C210.197 6.24 208.565 5.6 206.485 5.6C204.405 5.6 202.757 6.224 201.541 7.472C200.357 8.72 199.765 10.816 199.765 13.76V32.576C199.765 35.52 200.357 37.616 201.541 38.864C202.757 40.112 204.405 40.736 206.485 40.736C208.565 40.736 210.197 40.112 211.381 38.864C212.565 37.648 213.157 35.568 213.157 32.624V13.808ZM270.195 20.048V24.32C272.371 24.192 274.515 24.064 276.627 23.936C278.739 23.776 280.835 23.568 282.915 23.312L283.635 27.44C281.235 27.728 278.739 27.968 276.147 28.16C273.555 28.352 270.931 28.512 268.275 28.64C265.651 28.736 263.027 28.832 260.403 28.928C257.811 28.992 255.283 29.04 252.819 29.072L252.147 24.848C256.435 24.784 260.723 24.688 265.011 24.56V20.048H263.955C262.259 20.048 260.787 19.824 259.539 19.376C258.323 18.928 257.299 18.304 256.467 17.504C255.635 16.704 255.011 15.744 254.595 14.624C254.211 13.472 254.019 12.224 254.019 10.88C254.019 8.16 254.835 5.968 256.467 4.304C258.099 2.64 260.595 1.808 263.955 1.808H270.771C274.131 1.808 276.627 2.64 278.259 4.304C279.891 5.968 280.707 8.16 280.707 10.88C280.707 12.224 280.499 13.472 280.083 14.624C279.699 15.744 279.091 16.704 278.259 17.504C277.427 18.304 276.387 18.928 275.139 19.376C273.891 19.824 272.435 20.048 270.771 20.048H270.195ZM290.499 14.96H297.555V19.28H290.499V34.352H285.363V1.184H290.499V14.96ZM261.171 32.096V40.688H291.219V44.912H256.035V32.096H261.171ZM259.155 10.88C259.155 11.456 259.235 12.032 259.395 12.608C259.555 13.184 259.827 13.712 260.211 14.192C260.595 14.672 261.107 15.056 261.747 15.344C262.419 15.632 263.251 15.776 264.243 15.776H270.483C271.475 15.776 272.291 15.632 272.931 15.344C273.603 15.056 274.131 14.672 274.515 14.192C274.899 13.712 275.171 13.184 275.331 12.608C275.491 12.032 275.571 11.456 275.571 10.88C275.571 10.304 275.491 9.728 275.331 9.152C275.171 8.576 274.899 8.064 274.515 7.616C274.131 7.168 273.603 6.8 272.931 6.512C272.291 6.224 271.475 6.08 270.483 6.08H264.243C263.251 6.08 262.419 6.224 261.747 6.512C261.107 6.8 260.595 7.168 260.211 7.616C259.827 8.064 259.555 8.576 259.395 9.152C259.235 9.728 259.155 10.304 259.155 10.88ZM303.097 29.36V13.52H334.537V5.984H303.097V1.808H339.673V17.696H308.281V25.184H340.633V29.36H303.097ZM299.737 44.432V40.16H310.105V31.472H315.289V40.16H327.481V31.472H332.665V40.16H342.985V44.432H299.737ZM376.272 30.848H349.68V1.808H375.312V6.08H354.864V26.624H376.272V30.848ZM387.024 45.392H381.888V1.184H387.024V45.392ZM380.16 43.088C377.76 43.376 375.136 43.616 372.288 43.808C369.44 44 366.544 44.144 363.6 44.24C360.688 44.368 357.792 44.464 354.912 44.528C352.064 44.624 349.408 44.688 346.944 44.72L346.272 40.496C348.416 40.464 350.656 40.416 352.992 40.352C355.328 40.32 357.696 40.256 360.096 40.16V32.912H365.28V39.968C367.776 39.84 370.224 39.696 372.624 39.536C375.024 39.376 377.296 39.184 379.44 38.96L380.16 43.088ZM393.814 13.232C393.814 11.312 394.134 9.616 394.774 8.144C395.446 6.672 396.342 5.44 397.462 4.448C398.582 3.424 399.894 2.656 401.398 2.144C402.902 1.6 404.502 1.328 406.198 1.328C407.894 1.328 409.494 1.6 410.998 2.144C412.502 2.656 413.814 3.424 414.934 4.448C416.086 5.44 416.982 6.672 417.622 8.144C418.294 9.616 418.63 11.312 418.63 13.232C418.63 15.152 418.294 16.848 417.622 18.32C416.982 19.792 416.086 21.04 414.934 22.064C413.814 23.056 412.502 23.808 410.998 24.32C409.494 24.832 407.894 25.088 406.198 25.088C404.502 25.088 402.902 24.832 401.398 24.32C399.894 23.808 398.582 23.056 397.462 22.064C396.342 21.04 395.446 19.792 394.774 18.32C394.134 16.848 393.814 15.152 393.814 13.232ZM395.638 42.32C398.87 41.264 401.286 39.888 402.886 38.192C404.518 36.496 405.334 34.368 405.334 31.808V28.496H410.278V31.76C410.278 34.032 410.822 36 411.91 37.664C413.03 39.328 414.614 40.752 416.662 41.936C418.71 40.752 420.278 39.328 421.366 37.664C422.486 36 423.046 34.032 423.046 31.76V28.496H427.99V31.808C427.99 34.368 428.79 36.496 430.39 38.192C432.022 39.888 434.454 41.264 437.686 42.32L435.67 45.824C434.742 45.568 433.782 45.216 432.79 44.768C431.83 44.352 430.902 43.84 430.006 43.232C429.11 42.656 428.278 42 427.51 41.264C426.742 40.56 426.102 39.792 425.59 38.96C425.078 39.888 424.454 40.752 423.718 41.552C423.014 42.384 422.262 43.12 421.462 43.76C420.694 44.4 419.894 44.96 419.062 45.44C418.23 45.952 417.43 46.352 416.662 46.64C415.894 46.352 415.094 45.952 414.262 45.44C413.43 44.96 412.614 44.4 411.814 43.76C411.046 43.12 410.294 42.384 409.558 41.552C408.854 40.752 408.246 39.888 407.734 38.96C407.19 39.792 406.534 40.56 405.766 41.264C404.998 42 404.166 42.656 403.27 43.232C402.374 43.84 401.446 44.352 400.486 44.768C399.526 45.216 398.582 45.568 397.654 45.824L395.638 42.32ZM413.494 13.232C413.494 11.888 413.302 10.736 412.918 9.776C412.534 8.816 412.006 8.032 411.334 7.424C410.662 6.784 409.878 6.32 408.982 6.032C408.118 5.712 407.19 5.552 406.198 5.552C405.27 5.552 404.358 5.712 403.462 6.032C402.598 6.32 401.83 6.784 401.158 7.424C400.486 8.032 399.942 8.816 399.526 9.776C399.142 10.736 398.95 11.872 398.95 13.184C398.95 14.528 399.142 15.696 399.526 16.688C399.942 17.648 400.486 18.448 401.158 19.088C401.83 19.696 402.598 20.144 403.462 20.432C404.358 20.72 405.27 20.864 406.198 20.864C407.19 20.864 408.118 20.72 408.982 20.432C409.878 20.144 410.662 19.696 411.334 19.088C412.006 18.448 412.534 17.648 412.918 16.688C413.302 15.728 413.494 14.576 413.494 13.232ZM428.47 10.784V1.136H433.606V26.528H428.47V15.104H420.838V10.784H428.47ZM442.604 45.392V28.592H447.788V32.96H474.524V28.592H479.66V45.392H442.604ZM479.084 18.32C477.196 18.064 475.356 17.712 473.564 17.264C471.772 16.816 470.076 16.256 468.476 15.584C466.908 14.88 465.484 14.064 464.204 13.136C462.924 12.176 461.868 11.072 461.036 9.824C460.204 11.104 459.148 12.224 457.868 13.184C456.62 14.112 455.196 14.912 453.596 15.584C452.028 16.256 450.348 16.816 448.556 17.264C446.764 17.712 444.924 18.064 443.036 18.32L441.308 14.24C443.548 13.984 445.708 13.6 447.788 13.088C449.868 12.544 451.692 11.84 453.26 10.976C454.86 10.08 456.124 9.008 457.052 7.76C458.012 6.48 458.492 4.976 458.492 3.248V1.616H463.628V3.248C463.628 4.976 464.092 6.48 465.02 7.76C465.98 9.008 467.244 10.08 468.812 10.976C470.412 11.84 472.252 12.544 474.332 13.088C476.412 13.6 478.572 13.984 480.812 14.24L479.084 18.32ZM439.484 25.472V21.2H482.684V25.472H439.484ZM474.524 37.136H447.788V41.216H474.524V37.136ZM526.771 45.392H521.635V1.184H526.771V45.392ZM514.051 44.528H487.987V1.808H493.171V40.304H514.051V44.528ZM560.106 44.528H534.09V1.808H559.146V6.08H539.274V40.304H560.106V44.528ZM569.994 18.8H577.05V23.12H569.994V45.392H564.858V1.184H569.994V18.8ZM581.872 34.112L581.584 2.768H587.104L586.768 34.112H581.872ZM581.632 44.528V38.768H586.96V44.528H581.632ZM24.3886 114.76C24.3886 119.112 23.4606 122.408 21.6046 124.648C19.7806 126.888 16.7566 128.008 12.5326 128.008C8.30856 128.008 5.26856 126.872 3.41256 124.6C1.55656 122.36 0.628559 119.064 0.628559 114.712V97.624C0.628559 93.272 1.55656 89.976 3.41256 87.736C5.26856 85.464 8.30856 84.328 12.5326 84.328C16.7566 84.328 19.7806 85.464 21.6046 87.736C23.4606 90.008 24.3886 93.32 24.3886 97.672V114.76ZM19.2046 96.808C19.2046 93.864 18.6126 91.768 17.4286 90.52C16.2446 89.24 14.6126 88.6 12.5326 88.6C10.4526 88.6 8.80456 89.224 7.58856 90.472C6.40456 91.72 5.81256 93.816 5.81256 96.76V115.576C5.81256 118.52 6.40456 120.616 7.58856 121.864C8.80456 123.112 10.4526 123.736 12.5326 123.736C14.6126 123.736 16.2446 123.112 17.4286 121.864C18.6126 120.648 19.2046 118.568 19.2046 115.624V96.808ZM36.5326 101.8H43.5886V106.12H36.5326V128.392H31.3966V84.184H36.5326V101.8ZM76.9711 101.848H82.4431V84.136H87.4831V128.392H82.4431V106.12H76.9711V127.768H71.9791V84.568H76.9711V101.848ZM47.8351 127.528V103.768H62.6671V88.984H47.7391V84.808H67.8031V107.944H53.0191V123.352H69.6751V127.528H47.8351ZM131.944 84.808V127.528H108.184V84.808H113.368V102.184H126.76V84.808H131.944ZM141.832 101.8V84.184H146.968V128.392H141.832V106.12H134.2V101.8H141.832ZM126.76 123.304V106.504H113.368V123.304H126.76ZM193.263 104.584H156.207V84.808H192.975V89.08H161.391V92.536H192.975V96.808H161.391V100.36H193.263V104.584ZM161.103 115.528V124.168H193.503V128.392H155.967V115.528H161.103ZM152.847 112.408V108.136H196.047V112.408H152.847ZM199.429 127.432V123.16H242.677V127.432H199.429ZM216.373 111.928C213.493 111.928 211.141 111.496 209.317 110.632C207.493 109.736 206.069 108.632 205.045 107.32C204.021 105.976 203.317 104.504 202.933 102.904C202.549 101.304 202.357 99.784 202.357 98.344C202.357 96.904 202.549 95.4 202.933 93.832C203.317 92.232 204.021 90.76 205.045 89.416C206.069 88.072 207.493 86.968 209.317 86.104C211.141 85.24 213.493 84.808 216.373 84.808H225.781C228.661 84.808 231.013 85.24 232.837 86.104C234.661 86.968 236.085 88.072 237.109 89.416C238.133 90.76 238.837 92.232 239.221 93.832C239.605 95.4 239.797 96.904 239.797 98.344C239.797 99.784 239.605 101.304 239.221 102.904C238.837 104.504 238.133 105.976 237.109 107.32C236.085 108.632 234.661 109.736 232.837 110.632C231.013 111.496 228.661 111.928 225.781 111.928H216.373ZM207.493 98.344C207.493 99.496 207.621 100.632 207.877 101.752C208.165 102.872 208.661 103.88 209.365 104.776C210.069 105.64 211.013 106.344 212.197 106.888C213.413 107.432 214.949 107.704 216.805 107.704H225.349C227.205 107.704 228.725 107.432 229.909 106.888C231.125 106.344 232.085 105.64 232.789 104.776C233.493 103.88 233.973 102.872 234.229 101.752C234.517 100.632 234.661 99.496 234.661 98.344C234.661 97.192 234.517 96.056 234.229 94.936C233.973 93.816 233.493 92.824 232.789 91.96C232.085 91.096 231.125 90.408 229.909 89.896C228.725 89.352 227.205 89.08 225.349 89.08H216.805C214.949 89.08 213.413 89.352 212.197 89.896C211.013 90.408 210.069 91.096 209.365 91.96C208.661 92.824 208.165 93.816 207.877 94.936C207.621 96.056 207.493 97.192 207.493 98.344ZM249.372 112.36V96.52H280.812V88.984H249.372V84.808H285.948V100.696H254.556V108.184H286.908V112.36H249.372ZM246.012 127.432V123.16H265.068V114.472H270.252V123.16H289.26V127.432H246.012ZM333.961 127.528H307.945V84.808H333.001V89.08H313.129V123.304H333.961V127.528ZM343.849 101.8H350.905V106.12H343.849V128.392H338.713V84.184H343.849V101.8ZM365.951 102.472C362.559 102.472 360.047 101.72 358.415 100.216C356.815 98.68 356.015 96.488 356.015 93.64C356.015 90.792 356.815 88.616 358.415 87.112C360.047 85.576 362.559 84.808 365.951 84.808H383.471C386.863 84.808 389.359 85.576 390.959 87.112C392.591 88.616 393.407 90.792 393.407 93.64C393.407 96.488 392.591 98.68 390.959 100.216C389.359 101.72 386.863 102.472 383.471 102.472H365.951ZM361.151 93.64C361.151 94.216 361.231 94.776 361.391 95.32C361.551 95.864 361.823 96.36 362.207 96.808C362.591 97.224 363.103 97.56 363.743 97.816C364.415 98.072 365.247 98.2 366.239 98.2H383.183C384.175 98.2 384.991 98.072 385.631 97.816C386.303 97.56 386.831 97.224 387.215 96.808C387.599 96.36 387.871 95.864 388.031 95.32C388.191 94.776 388.271 94.216 388.271 93.64C388.271 93.064 388.191 92.504 388.031 91.96C387.871 91.416 387.599 90.936 387.215 90.52C386.831 90.072 386.303 89.72 385.631 89.464C384.991 89.208 384.175 89.08 383.183 89.08H366.239C365.247 89.08 364.415 89.208 363.743 89.464C363.103 89.72 362.591 90.072 362.207 90.52C361.823 90.936 361.551 91.416 361.391 91.96C361.231 92.504 361.151 93.064 361.151 93.64ZM372.095 118.888V111.16H353.087V106.888H396.287V111.16H377.279V118.888H372.095ZM361.343 114.568V124.168H393.743V128.392H356.207V114.568H361.343ZM403.03 112.36V96.52H434.47V88.984H403.03V84.808H439.606V100.696H408.214V108.184H440.566V112.36H403.03ZM399.67 127.432V123.16H418.726V114.472H423.91V123.16H442.918V127.432H399.67ZM446.252 127.432V123.16H489.5V127.432H446.252ZM486.668 111.928H449.612V84.808H486.428V89.08H454.796V107.704H486.668V111.928ZM531.945 84.808V107.656H508.185V84.808H513.369V92.392H526.761V84.808H531.945ZM544.329 111.736V115.96H515.241V124.168H544.569V128.392H510.105V111.736H544.329ZM544.089 93.64H551.145V97.96H544.089V109.288H538.953V84.136H544.089V93.64ZM526.761 103.432V96.712H513.369V103.432H526.761ZM553.328 127.432V123.16H596.576V127.432H553.328ZM570.272 111.928C567.392 111.928 565.04 111.496 563.216 110.632C561.392 109.736 559.968 108.632 558.944 107.32C557.92 105.976 557.216 104.504 556.832 102.904C556.448 101.304 556.256 99.784 556.256 98.344C556.256 96.904 556.448 95.4 556.832 93.832C557.216 92.232 557.92 90.76 558.944 89.416C559.968 88.072 561.392 86.968 563.216 86.104C565.04 85.24 567.392 84.808 570.272 84.808H579.68C582.56 84.808 584.912 85.24 586.736 86.104C588.56 86.968 589.984 88.072 591.008 89.416C592.032 90.76 592.736 92.232 593.12 93.832C593.504 95.4 593.696 96.904 593.696 98.344C593.696 99.784 593.504 101.304 593.12 102.904C592.736 104.504 592.032 105.976 591.008 107.32C589.984 108.632 588.56 109.736 586.736 110.632C584.912 111.496 582.56 111.928 579.68 111.928H570.272ZM561.392 98.344C561.392 99.496 561.52 100.632 561.776 101.752C562.064 102.872 562.56 103.88 563.264 104.776C563.968 105.64 564.912 106.344 566.096 106.888C567.312 107.432 568.848 107.704 570.704 107.704H579.248C581.104 107.704 582.624 107.432 583.808 106.888C585.024 106.344 585.984 105.64 586.688 104.776C587.392 103.88 587.872 102.872 588.128 101.752C588.416 100.632 588.56 99.496 588.56 98.344C588.56 97.192 588.416 96.056 588.128 94.936C587.872 93.816 587.392 92.824 586.688 91.96C585.984 91.096 585.024 90.408 583.808 89.896C582.624 89.352 581.104 89.08 579.248 89.08H570.704C568.848 89.08 567.312 89.352 566.096 89.896C564.912 90.408 563.968 91.096 563.264 91.96C562.56 92.824 562.064 93.816 561.776 94.936C561.52 96.056 561.392 97.192 561.392 98.344ZM620.502 127.384C619.766 127 618.982 126.456 618.15 125.752C617.35 125.048 616.55 124.216 615.75 123.256C614.982 122.328 614.246 121.304 613.542 120.184C612.87 119.064 612.278 117.896 611.766 116.68C611.286 117.928 610.71 119.128 610.038 120.28C609.366 121.4 608.614 122.44 607.782 123.4C606.982 124.392 606.134 125.272 605.238 126.04C604.342 126.808 603.462 127.432 602.598 127.912L599.766 124.552C601.462 123.496 602.902 122.312 604.086 121C605.27 119.656 606.23 118.2 606.966 116.632C607.734 115.032 608.278 113.352 608.598 111.592C608.95 109.8 609.126 107.944 609.126 106.024V84.568H614.166V105.928C614.166 107.72 614.31 109.464 614.598 111.16C614.918 112.824 615.414 114.424 616.086 115.96C616.79 117.464 617.702 118.888 618.822 120.232C619.974 121.544 621.398 122.744 623.094 123.832L620.502 127.384ZM619.734 101.848H627.558V84.568H632.55V127.768H627.558V106.12H619.734V101.848ZM636.582 128.392V84.136H641.622V128.392H636.582ZM663.437 111.928C660.557 111.928 658.205 111.496 656.381 110.632C654.557 109.736 653.133 108.632 652.109 107.32C651.085 105.976 650.381 104.504 649.997 102.904C649.613 101.304 649.421 99.784 649.421 98.344C649.421 96.904 649.613 95.4 649.997 93.832C650.381 92.232 651.085 90.76 652.109 89.416C653.133 88.072 654.557 86.968 656.381 86.104C658.205 85.24 660.557 84.808 663.437 84.808H672.845C675.725 84.808 678.077 85.24 679.901 86.104C681.725 86.968 683.149 88.072 684.173 89.416C685.197 90.76 685.901 92.232 686.285 93.832C686.669 95.4 686.861 96.904 686.861 98.344C686.861 99.784 686.669 101.304 686.285 102.904C685.901 104.504 685.197 105.976 684.173 107.32C683.149 108.632 681.725 109.736 679.901 110.632C678.077 111.496 675.725 111.928 672.845 111.928H663.437ZM654.557 98.344C654.557 99.496 654.685 100.632 654.941 101.752C655.229 102.872 655.725 103.88 656.429 104.776C657.133 105.64 658.077 106.344 659.261 106.888C660.477 107.432 662.013 107.704 663.869 107.704H672.413C674.269 107.704 675.789 107.432 676.973 106.888C678.189 106.344 679.149 105.64 679.853 104.776C680.557 103.88 681.037 102.872 681.293 101.752C681.581 100.632 681.725 99.496 681.725 98.344C681.725 97.192 681.581 96.056 681.293 94.936C681.037 93.816 680.557 92.824 679.853 91.96C679.149 91.096 678.189 90.408 676.973 89.896C675.789 89.352 674.269 89.08 672.413 89.08H663.869C662.013 89.08 660.477 89.352 659.261 89.896C658.077 90.408 657.133 91.096 656.429 91.96C655.725 92.824 655.229 93.816 654.941 94.936C654.685 96.056 654.557 97.192 654.557 98.344ZM646.493 127.432V123.16H656.861V113.992H662.045V123.16H674.237V113.992H679.421V123.16H689.741V127.432H646.493Z" fill="#212B3B"/>
</svg>
