<svg width="240" height="137" viewBox="0 0 240 137" fill="none" xmlns="http://www.w3.org/2000/svg">
<path d="M53.0566 64.088L52.1686 56.432L55.0726 56.24L55.9606 64.088H60.6166L61.5286 56.24L64.4326 56.432L63.5206 64.088H67.8406V66.536H48.7366V64.088H53.0566ZM69.1606 71.864V74.288H47.3926V71.864H69.1606ZM67.6006 52.832V55.28H48.9766V52.832H67.6006ZM71.7158 74.336V62.216H78.4598V55.28H71.6678V52.832H81.4598V64.664H74.6918V71.936H82.7798V74.336H71.7158ZM84.3878 52.712H87.2678V74.456H84.3878V64.184H82.2038V61.76H84.3878V52.712ZM91.8038 52.52V74.768H88.8998V52.52H91.8038ZM114.591 66.296V74.768H95.8951V66.296H114.591ZM98.8711 72.392H111.639V68.672H98.8711V72.392ZM111.639 52.52H114.591V65.456H111.639V52.52ZM94.4311 58.616C94.4311 57.64 94.5991 56.776 94.9351 56.024C95.2711 55.272 95.7191 54.64 96.2791 54.128C96.8551 53.616 97.5191 53.232 98.2711 52.976C99.0391 52.72 99.8471 52.592 100.695 52.592C101.543 52.592 102.343 52.72 103.095 52.976C103.863 53.232 104.535 53.616 105.111 54.128C105.687 54.624 106.143 55.248 106.479 56C106.815 56.752 106.983 57.624 106.983 58.616C106.983 59.608 106.815 60.48 106.479 61.232C106.143 61.968 105.687 62.592 105.111 63.104C104.535 63.6 103.863 63.976 103.095 64.232C102.343 64.488 101.543 64.616 100.695 64.616C99.8471 64.616 99.0391 64.488 98.2711 64.232C97.5191 63.976 96.8551 63.6 96.2791 63.104C95.7191 62.592 95.2711 61.968 94.9351 61.232C94.5991 60.48 94.4311 59.608 94.4311 58.616ZM104.055 58.616C104.055 57.384 103.735 56.488 103.095 55.928C102.471 55.352 101.671 55.064 100.695 55.064C100.231 55.064 99.7911 55.136 99.3751 55.28C98.9751 55.424 98.6231 55.64 98.3191 55.928C98.0311 56.216 97.7991 56.584 97.6231 57.032C97.4471 57.48 97.3591 58 97.3591 58.592C97.3591 59.216 97.4471 59.752 97.6231 60.2C97.7991 60.648 98.0311 61.016 98.3191 61.304C98.6231 61.592 98.9751 61.808 99.3751 61.952C99.7911 62.08 100.231 62.144 100.695 62.144C101.175 62.144 101.623 62.08 102.039 61.952C102.455 61.808 102.807 61.592 103.095 61.304C103.399 61.016 103.631 60.648 103.791 60.2C103.967 59.752 104.055 59.224 104.055 58.616ZM142.438 52.52H145.318V65.48H142.438V59.624H140.086V65.24H137.206V52.688H140.086V57.2H142.438V52.52ZM126.118 68.936V66.536H145.318V74.864H142.366V68.936H126.118ZM134.422 64.592C134.07 64.432 133.694 64.216 133.294 63.944C132.91 63.672 132.526 63.36 132.142 63.008C131.758 62.656 131.39 62.272 131.038 61.856C130.686 61.44 130.374 61 130.102 60.536C129.606 61.464 128.942 62.312 128.11 63.08C127.278 63.832 126.43 64.432 125.566 64.88L123.958 62.888C124.598 62.552 125.198 62.168 125.758 61.736C126.334 61.288 126.83 60.792 127.246 60.248C127.662 59.688 127.99 59.08 128.23 58.424C128.47 57.752 128.59 57.024 128.59 56.24V52.712H131.494V56.192C131.494 56.992 131.63 57.728 131.902 58.4C132.174 59.072 132.518 59.672 132.934 60.2C133.366 60.728 133.838 61.184 134.35 61.568C134.878 61.952 135.398 62.264 135.91 62.504L134.422 64.592ZM153.681 74.768C151.985 74.768 150.729 74.416 149.913 73.712C149.113 73.024 148.713 71.952 148.713 70.496C148.713 69.04 149.113 67.976 149.913 67.304C150.729 66.632 151.985 66.296 153.681 66.296H161.961C163.657 66.296 164.905 66.632 165.705 67.304C166.521 67.976 166.929 69.04 166.929 70.496C166.929 71.952 166.521 73.024 165.705 73.712C164.905 74.416 163.657 74.768 161.961 74.768H153.681ZM159.225 64.256C158.265 63.856 157.329 63.272 156.417 62.504C155.505 61.72 154.689 60.704 153.969 59.456C153.329 60.608 152.537 61.632 151.593 62.528C150.649 63.424 149.577 64.152 148.377 64.712L146.841 62.672C147.673 62.272 148.425 61.808 149.097 61.28C149.785 60.736 150.369 60.144 150.849 59.504C151.345 58.848 151.721 58.144 151.977 57.392C152.249 56.64 152.385 55.848 152.385 55.016V52.712H155.385V54.92C155.385 55.832 155.537 56.664 155.841 57.416C156.145 58.168 156.545 58.848 157.041 59.456C157.537 60.064 158.105 60.592 158.745 61.04C159.385 61.488 160.033 61.856 160.689 62.144L159.225 64.256ZM169.857 59.624H166.449V65.216H163.497V52.52H166.449V57.2H169.857V59.624ZM151.617 70.496C151.617 71.072 151.793 71.528 152.145 71.864C152.497 72.216 153.169 72.392 154.161 72.392H161.481C162.457 72.392 163.121 72.216 163.473 71.864C163.841 71.528 164.025 71.072 164.025 70.496C164.025 69.92 163.841 69.472 163.473 69.152C163.121 68.832 162.457 68.672 161.481 68.672H154.161C153.169 68.672 152.497 68.832 152.145 69.152C151.793 69.472 151.617 69.92 151.617 70.496ZM188.084 68.96V67.928H172.364V65.576H191.036V71.312H175.34V72.416H191.516V74.768H172.364V68.96H188.084ZM192.548 61.784V64.208H170.804V61.784H192.548ZM177.356 60.368C176.54 60.368 175.812 60.304 175.172 60.176C174.548 60.048 174.02 59.84 173.588 59.552C173.156 59.248 172.828 58.856 172.604 58.376C172.38 57.896 172.268 57.304 172.268 56.6C172.268 55.896 172.38 55.304 172.604 54.824C172.828 54.344 173.156 53.96 173.588 53.672C174.02 53.368 174.548 53.152 175.172 53.024C175.812 52.896 176.54 52.832 177.356 52.832H186.044C186.86 52.832 187.58 52.896 188.204 53.024C188.844 53.152 189.38 53.368 189.812 53.672C190.244 53.96 190.572 54.344 190.796 54.824C191.02 55.304 191.132 55.896 191.132 56.6C191.132 57.304 191.02 57.896 190.796 58.376C190.572 58.856 190.244 59.248 189.812 59.552C189.38 59.84 188.844 60.048 188.204 60.176C187.58 60.304 186.86 60.368 186.044 60.368H177.356ZM175.172 56.6C175.172 57.176 175.372 57.552 175.772 57.728C176.172 57.904 176.78 57.992 177.596 57.992H185.804C186.62 57.992 187.228 57.904 187.628 57.728C188.028 57.552 188.228 57.176 188.228 56.6C188.228 56.024 188.028 55.648 187.628 55.472C187.228 55.296 186.62 55.208 185.804 55.208H177.596C176.78 55.208 176.172 55.296 175.772 55.472C175.372 55.648 175.172 56.024 175.172 56.6ZM63.817 107.776V113.104H79.897V115.528H60.841V107.776H63.817ZM76.585 93.52H79.537V110.08H76.585V99.976H71.737V97.552H76.585V93.52ZM71.353 105.736C70.393 105.336 69.457 104.752 68.545 103.984C67.633 103.2 66.817 102.184 66.097 100.936C65.457 102.088 64.665 103.112 63.721 104.008C62.777 104.904 61.705 105.632 60.505 106.192L58.969 104.152C59.801 103.752 60.553 103.288 61.225 102.76C61.913 102.216 62.497 101.624 62.977 100.984C63.473 100.328 63.849 99.624 64.105 98.872C64.377 98.12 64.513 97.328 64.513 96.496V93.712H67.513V96.4C67.513 97.312 67.665 98.144 67.969 98.896C68.273 99.648 68.673 100.328 69.169 100.936C69.665 101.544 70.233 102.072 70.873 102.52C71.513 102.968 72.161 103.336 72.817 103.624L71.353 105.736ZM94.0443 102.976V105.376H83.2443V93.832H93.5643V96.256H86.2203V98.416H93.5643V100.864H86.2203V102.976H94.0443ZM100.428 93.52H103.308V106.48H100.428V100.624H98.0763V106.24H95.1963V93.688H98.0763V98.2H100.428V93.52ZM84.1083 109.936V107.536H103.308V115.864H100.356V109.936H84.1083ZM118.248 108.928C118.248 111.104 117.776 112.752 116.832 113.872C115.888 115.008 114.36 115.576 112.248 115.576C110.136 115.576 108.6 115.008 107.64 113.872C106.696 112.752 106.224 111.104 106.224 108.928V107.944C106.224 105.768 106.696 104.12 107.64 103C108.6 101.864 110.136 101.296 112.248 101.296C114.36 101.296 115.888 101.864 116.832 103C117.776 104.12 118.248 105.768 118.248 107.944V108.928ZM127.848 104.704H124.44V115.768H121.488V93.52H124.44V102.256H127.848V104.704ZM115.272 107.848C115.272 106.44 115.032 105.4 114.552 104.728C114.072 104.056 113.304 103.72 112.248 103.72C111.192 103.72 110.416 104.056 109.92 104.728C109.44 105.4 109.2 106.44 109.2 107.848V109.024C109.2 110.432 109.44 111.472 109.92 112.144C110.416 112.816 111.192 113.152 112.248 113.152C113.304 113.152 114.072 112.816 114.552 112.144C115.032 111.472 115.272 110.432 115.272 109.024V107.848ZM105.888 100.024V97.576H118.824V100.024H105.888ZM108.288 96.04V93.592H116.4V96.04H108.288ZM139.091 115.288C138.723 115.096 138.339 114.832 137.939 114.496C137.555 114.16 137.171 113.768 136.787 113.32C136.403 112.888 136.035 112.416 135.683 111.904C135.347 111.376 135.051 110.832 134.795 110.272C134.299 111.44 133.643 112.488 132.827 113.416C132.011 114.344 131.163 115.056 130.283 115.552L128.651 113.632C129.515 113.104 130.243 112.512 130.835 111.856C131.427 111.184 131.899 110.464 132.251 109.696C132.619 108.928 132.883 108.112 133.043 107.248C133.203 106.368 133.283 105.456 133.283 104.512V93.712H136.187V104.464C136.187 105.344 136.259 106.2 136.403 107.032C136.547 107.848 136.787 108.632 137.123 109.384C137.459 110.12 137.907 110.816 138.467 111.472C139.027 112.112 139.731 112.704 140.579 113.248L139.091 115.288ZM142.499 93.712H145.379V115.456H142.499V104.704H138.779V102.28H142.499V93.712ZM149.915 93.52V115.768H147.011V93.52H149.915ZM160.558 107.536C159.118 107.536 157.942 107.312 157.03 106.864C156.118 106.416 155.406 105.856 154.894 105.184C154.382 104.512 154.03 103.776 153.838 102.976C153.646 102.16 153.55 101.392 153.55 100.672C153.55 99.952 153.646 99.192 153.838 98.392C154.03 97.592 154.382 96.856 154.894 96.184C155.406 95.496 156.118 94.936 157.03 94.504C157.942 94.056 159.118 93.832 160.558 93.832H165.406C166.846 93.832 168.022 94.056 168.934 94.504C169.846 94.936 170.558 95.496 171.07 96.184C171.582 96.856 171.934 97.592 172.126 98.392C172.318 99.192 172.414 99.952 172.414 100.672C172.414 101.392 172.318 102.16 172.126 102.976C171.934 103.776 171.582 104.512 171.07 105.184C170.558 105.856 169.846 106.416 168.934 106.864C168.022 107.312 166.846 107.536 165.406 107.536H160.558ZM156.454 100.672C156.454 101.248 156.518 101.808 156.646 102.352C156.774 102.88 157.006 103.352 157.342 103.768C157.678 104.184 158.126 104.52 158.686 104.776C159.262 105.032 159.99 105.16 160.87 105.16H165.094C165.974 105.16 166.694 105.032 167.254 104.776C167.83 104.52 168.286 104.184 168.622 103.768C168.958 103.352 169.19 102.88 169.318 102.352C169.446 101.808 169.51 101.248 169.51 100.672C169.51 100.096 169.446 99.544 169.318 99.016C169.19 98.472 168.958 97.992 168.622 97.576C168.286 97.16 167.83 96.832 167.254 96.592C166.694 96.336 165.974 96.208 165.094 96.208H160.87C159.99 96.208 159.262 96.336 158.686 96.592C158.126 96.832 157.678 97.16 157.342 97.576C157.006 97.992 156.774 98.472 156.646 99.016C156.518 99.544 156.454 100.096 156.454 100.672ZM157.15 112.864V108.496H160.126V112.864H165.838V108.496H168.814V112.864H173.854V115.288H152.086V112.864H157.15ZM176.577 112.456H180.105V115.792H176.577V112.456Z" fill="#212B3B"/>
<circle cx="78" cy="15" r="15" fill="#D5E5FF"/>
<path d="M78.6282 20.63H77.0532V11.54C76.6832 11.82 76.0782 12.145 75.2382 12.515L74.5782 11.405C75.7682 10.875 76.7232 10.165 77.4432 9.275H78.6282V20.63Z" fill="#97A8C5"/>
<circle cx="118" cy="15" r="15" fill="#1563FC"/>
<path d="M114.113 20.57V19.985C114.113 19.695 114.168 19.4 114.278 19.1C114.398 18.79 114.553 18.5 114.743 18.23C114.943 17.95 115.168 17.665 115.418 17.375C115.668 17.085 115.928 16.81 116.198 16.55C116.478 16.28 116.758 16.005 117.038 15.725C117.718 15.055 118.243 14.455 118.613 13.925C118.993 13.395 119.183 12.87 119.183 12.35C119.183 11.82 119.028 11.38 118.718 11.03C118.418 10.67 118.008 10.49 117.488 10.49C117.008 10.49 116.573 10.675 116.183 11.045C115.803 11.415 115.503 11.88 115.283 12.44L113.873 11.81C114.213 11.03 114.688 10.39 115.298 9.89C115.918 9.39 116.658 9.14 117.518 9.14C118.528 9.14 119.323 9.42 119.903 9.98C120.493 10.53 120.788 11.29 120.788 12.26C120.788 12.69 120.708 13.115 120.548 13.535C120.398 13.945 120.153 14.365 119.813 14.795C119.473 15.225 119.178 15.57 118.928 15.83C118.688 16.08 118.333 16.435 117.863 16.895C117.483 17.255 117.198 17.53 117.008 17.72C116.828 17.91 116.628 18.15 116.408 18.44C116.188 18.73 116.038 18.995 115.958 19.235H121.043V20.57H114.113Z" fill="white"/>
<circle cx="158" cy="15" r="15" fill="#D5E5FF"/>
<path d="M160.668 11.855C160.668 12.985 160.123 13.835 159.033 14.405C159.603 14.655 160.063 15.02 160.413 15.5C160.773 15.98 160.953 16.54 160.953 17.18C160.953 17.83 160.813 18.405 160.533 18.905C160.253 19.405 159.868 19.8 159.378 20.09C158.898 20.38 158.378 20.6 157.818 20.75C157.258 20.9 156.658 20.985 156.018 21.005C155.358 21.005 154.713 20.955 154.083 20.855L154.068 19.625C154.698 19.675 155.168 19.7 155.478 19.7C155.968 19.7 156.418 19.665 156.828 19.595C157.248 19.525 157.653 19.405 158.043 19.235C158.433 19.065 158.738 18.815 158.958 18.485C159.188 18.145 159.303 17.735 159.303 17.255C159.303 16.575 159.038 16.06 158.508 15.71C157.978 15.36 157.328 15.185 156.558 15.185H155.673V13.865H156.528C157.238 13.865 157.828 13.7 158.298 13.37C158.768 13.03 159.003 12.54 159.003 11.9C159.003 11.44 158.823 11.1 158.463 10.88C158.103 10.65 157.638 10.535 157.068 10.535C156.308 10.535 155.528 10.84 154.728 11.45L153.993 10.37C155.093 9.54 156.208 9.125 157.338 9.125C158.238 9.125 159.018 9.37 159.678 9.86C160.338 10.34 160.668 11.005 160.668 11.855Z" fill="#97A8C5"/>
</svg>
