<svg width="261" height="108" viewBox="0 0 261 108" fill="none" xmlns="http://www.w3.org/2000/svg">
<path d="M31.0586 90.5076C31.0586 92.74 30.8737 94.8807 30.504 96.9306C30.1343 98.9805 29.4178 100.779 28.3548 102.329C27.338 103.878 25.8821 105.108 23.9872 106.018C22.1384 106.975 19.6889 107.453 16.6385 107.453C13.5881 107.453 11.1154 106.997 9.22052 106.087C7.32558 105.176 5.84659 103.946 4.78358 102.397C3.76677 100.848 3.0735 99.0488 2.70376 96.9989C2.38023 94.949 2.21847 92.8084 2.21847 90.5759V83.8796C2.21847 81.6471 2.38023 79.5065 2.70376 77.4566C3.0735 75.4067 3.76677 73.6074 4.78358 72.0586C5.84659 70.5097 7.32558 69.2798 9.22052 68.3688C11.1154 67.4577 13.5881 67.0022 16.6385 67.0022C19.6889 67.0022 22.1384 67.4805 23.9872 68.4371C25.8821 69.3481 27.338 70.5781 28.3548 72.1269C29.4178 73.6757 30.1343 75.475 30.504 77.5249C30.8737 79.5748 31.0586 81.7155 31.0586 83.9479V90.5076ZM44.3001 70.2137H52.2034V45H59.4827V108H52.2034V76.295H44.3001V107.112H37.09V45.615H44.3001V70.2137ZM9.70581 90.4393C9.70581 92.2158 9.77513 93.7874 9.91379 95.154C10.0987 96.4747 10.4222 97.5915 10.8844 98.5022C11.3927 99.4588 12.086 100.164 12.9642 100.62C13.8885 101.121 15.1133 101.372 16.6385 101.372C18.1637 101.372 19.3654 101.121 20.2435 100.62C21.1679 100.164 21.8611 99.4588 22.3234 98.5022C22.8317 97.5915 23.1553 96.4523 23.2939 95.0857C23.4788 93.7191 23.5712 92.1475 23.5712 90.3709V84.0846C23.5712 82.308 23.4788 80.7364 23.2939 79.3698C23.1553 78.0033 22.8317 76.8644 22.3234 75.9534C21.8611 74.9967 21.1679 74.2907 20.2435 73.8351C19.3654 73.3341 18.1637 73.0835 16.6385 73.0835C15.1133 73.0835 13.8885 73.3341 12.9642 73.8351C12.086 74.2907 11.3927 74.9967 10.8844 75.9534C10.4222 76.8644 10.0987 78.0033 9.91379 79.3698C9.77513 80.6905 9.70581 82.2397 9.70581 84.0163V90.4393ZM33.277 56.821V62.9707H0V56.821H33.277ZM26.275 45.2733V51.423H6.93272V45.2733H26.275ZM92.8616 68.8471C93.1389 66.9338 93.2776 64.884 93.2776 62.6974V52.1063H69.3597V45.9566H100.696V60.7842C100.696 66.7516 100.002 72.0813 98.6158 76.7733C97.2755 81.4656 95.3343 85.6786 92.7923 89.4143C90.2965 93.1041 87.223 96.3615 83.5718 99.1855C79.9205 102.009 75.8071 104.515 71.2315 106.702L67.5572 101.509C70.3303 100.233 72.9647 98.7531 75.4605 97.0672C78.0025 95.3366 80.3134 93.3999 82.3932 91.2592C84.5193 89.0727 86.3679 86.6352 87.9394 83.9479C89.5108 81.2607 90.7587 78.2766 91.683 74.9967H68.9437V68.8471H92.8616ZM118.582 70.1453V45.0683H126V108H118.582V76.295H104.023V70.1453H118.582Z" fill="#1563FC"/>
<path d="M168.787 106.211H139V46.8946H141.958V103.458H168.787V106.211ZM176.492 72.0111V46.6193H179.45V106.486H176.492V74.7636H161.289V72.0111H176.492ZM192.245 107.587H189.287V46.0688H192.245V107.587ZM229.425 60.313C231.029 57.377 231.832 54.2116 231.832 50.8169V49.6471H206.861V46.8946H234.859V50.1288C234.859 53.6611 234.149 56.9641 232.727 60.0377C231.351 63.0655 229.402 65.8639 226.879 68.4329C224.357 70.956 221.353 73.2038 217.868 75.1765C214.382 77.1032 210.553 78.7088 206.379 79.9933L205.004 77.7225C209.865 76.3004 214.268 74.3507 218.212 71.8735C222.201 69.3503 225.388 66.4144 227.774 63.0655H205.76V60.313H229.425ZM259.831 108C257.308 107.633 254.763 107.083 252.195 106.348C249.627 105.66 247.195 104.766 244.903 103.665C242.655 102.564 240.638 101.256 238.849 99.7425C237.06 98.2749 235.662 96.5771 234.653 94.6504C233.69 96.5771 232.291 98.2749 230.456 99.7425C228.668 101.256 226.627 102.564 224.334 103.665C222.086 104.766 219.679 105.66 217.111 106.348C214.588 107.083 212.067 107.633 209.544 108L208.374 105.385C211.264 105.018 214.175 104.399 217.111 103.527C220.046 102.701 222.706 101.6 225.091 100.224C227.476 98.8479 229.425 97.1739 230.938 95.2009C232.451 93.2279 233.208 90.9119 233.208 88.2508V84.7414H236.166V88.2508C236.166 90.9119 236.923 93.2516 238.436 95.2697C239.95 97.2427 241.898 98.9168 244.284 100.293C246.669 101.669 249.328 102.77 252.263 103.596C255.199 104.422 258.111 105.018 261 105.385L259.831 108ZM255.29 60.5882V46H258.248V84.8102H255.29V63.3407H238.436V60.5882H255.29Z" fill="#212B3B"/>
<path d="M14.88 19.92V15.04H24.26V13.42H14.78V11.78H26.2V16.64H16.82V18.28H26.72V19.92H14.88ZM17.36 7.6C17.2933 7.76 17.1333 7.98667 16.88 8.28C16.6267 8.57333 16.34 8.84667 16.02 9.1C15.6067 9.42 15.12 9.78667 14.56 10.2C14 10.6 13.4467 10.9733 12.9 11.32L11.8 9.88C12.44 9.46667 13.0533 9.05333 13.64 8.64C14.2267 8.22667 14.7067 7.85333 15.08 7.52C15.3333 7.30667 15.5333 7.1 15.68 6.9C15.84 6.68667 15.9667 6.47333 16.06 6.26C16.1533 6.03333 16.2133 5.8 16.24 5.56C16.28 5.30667 16.3 5.02 16.3 4.7H12.3V3.04H16.3V1.06H18.3V3.04H22.06V4.7H18.3C18.3 4.95333 18.3067 5.18667 18.32 5.4C18.3333 5.6 18.3733 5.79333 18.44 5.98C18.5067 6.15333 18.6 6.32667 18.72 6.5C18.8533 6.67333 19.0333 6.85333 19.26 7.04C19.7267 7.44 20.24 7.83333 20.8 8.22C21.3733 8.60667 21.9533 8.98667 22.54 9.36L21.46 10.8C20.94 10.4667 20.4267 10.12 19.92 9.76C19.4133 9.4 18.9467 9.05333 18.52 8.72C18.2533 8.50667 18.0133 8.30667 17.8 8.12C17.5867 7.92 17.4467 7.74667 17.38 7.6H17.36ZM28.82 6.92H26.2V10.86H24.24V1.36H26.2V5.2H28.82V6.92ZM36.8631 4.06H31.0631V2.4H38.8031V5.4C38.8031 6.2 38.6965 6.9 38.4831 7.5C38.2698 8.08667 37.8698 8.64 37.2831 9.16C36.7098 9.66667 35.9165 10.1733 34.9031 10.68C33.9031 11.1733 32.6098 11.74 31.0231 12.38L30.3231 10.78C31.2298 10.42 32.0165 10.0933 32.6831 9.8C33.3498 9.49333 33.9231 9.20667 34.4031 8.94C34.8831 8.66 35.2765 8.39333 35.5831 8.14C35.9031 7.87333 36.1565 7.60667 36.3431 7.34L30.6031 7.58L30.5431 5.94L36.8431 5.82C36.8431 5.74 36.8431 5.66 36.8431 5.58C36.8565 5.48667 36.8631 5.39333 36.8631 5.3V4.06ZM32.7431 13.08H44.4031V19.98H42.4231V14.78H32.7431V13.08ZM42.4431 12.12V1.36H44.4031V5.82H47.0231V7.54H44.4031V12.12H42.4431ZM49.2663 16.04H51.5463V18.34H49.2663V16.04ZM49.5663 13.98L49.2863 2.32H51.5263L51.2463 13.98H49.5663ZM67.5023 1.72C68.4357 1.72 69.2823 1.82 70.0423 2.02C70.8157 2.20667 71.469 2.47333 72.0023 2.82C72.549 3.16667 72.969 3.58667 73.2623 4.08C73.5557 4.56 73.7023 5.09333 73.7023 5.68V6.4C73.7023 6.98667 73.5557 7.52667 73.2623 8.02C72.969 8.5 72.549 8.91333 72.0023 9.26C71.469 9.60667 70.8157 9.88 70.0423 10.08C69.2823 10.2667 68.4357 10.36 67.5023 10.36C66.5557 10.36 65.7023 10.2667 64.9423 10.08C64.1823 9.88 63.529 9.60667 62.9823 9.26C62.449 8.91333 62.0357 8.5 61.7423 8.02C61.449 7.52667 61.3023 6.98667 61.3023 6.4V5.68C61.3023 5.09333 61.449 4.56 61.7423 4.08C62.0357 3.58667 62.449 3.16667 62.9823 2.82C63.529 2.47333 64.1823 2.20667 64.9423 2.02C65.7023 1.82 66.5557 1.72 67.5023 1.72ZM66.5023 19.8V13.74H59.0423V12.06H75.9623V13.74H68.5023V19.8H66.5023ZM67.5023 8.64C68.1423 8.64 68.7223 8.58667 69.2423 8.48C69.7757 8.36 70.2223 8.2 70.5823 8C70.9557 7.8 71.2423 7.56 71.4423 7.28C71.6557 7 71.7623 6.69333 71.7623 6.36V5.72C71.7623 5.38667 71.6557 5.08 71.4423 4.8C71.2423 4.52 70.9557 4.28 70.5823 4.08C70.2223 3.88 69.7757 3.72667 69.2423 3.62C68.7223 3.5 68.1423 3.44 67.5023 3.44C66.8623 3.44 66.2757 3.5 65.7423 3.62C65.2223 3.72667 64.7757 3.88 64.4023 4.08C64.0423 4.28 63.7557 4.52 63.5423 4.8C63.3423 5.08 63.2423 5.38667 63.2423 5.72V6.36C63.2423 6.69333 63.3423 7 63.5423 7.28C63.7557 7.56 64.0423 7.8 64.4023 8C64.7757 8.2 65.2223 8.36 65.7423 8.48C66.2757 8.58667 66.8623 8.64 67.5023 8.64ZM90.5255 19.8V1.36H92.5055V19.8H90.5255ZM80.5455 9.72V13.64H82.4255C83.0921 13.64 83.6988 13.6333 84.2455 13.62C84.7921 13.6067 85.3121 13.5867 85.8055 13.56C86.3121 13.52 86.7988 13.48 87.2655 13.44C87.7455 13.3867 88.2455 13.32 88.7655 13.24L88.9455 14.9C88.4788 14.9667 88.0055 15.0267 87.5255 15.08C87.0588 15.1333 86.5455 15.18 85.9855 15.22C85.4388 15.26 84.8321 15.2933 84.1655 15.32C83.5121 15.3333 82.7721 15.34 81.9455 15.34H78.5855V8.06H84.8655V4.52H78.5255V2.82H86.8255V9.72H80.5455ZM101.689 11.48C100.929 11.48 100.249 11.3667 99.6486 11.14C99.0486 10.9133 98.5353 10.6133 98.1086 10.24C97.6819 9.86667 97.3553 9.44 97.1286 8.96C96.9019 8.48 96.7886 7.98 96.7886 7.46V6.54C96.7886 6.02 96.9019 5.52 97.1286 5.04C97.3553 4.56 97.6819 4.13333 98.1086 3.76C98.5353 3.38667 99.0486 3.08667 99.6486 2.86C100.249 2.63333 100.929 2.52 101.689 2.52C102.449 2.52 103.129 2.63333 103.729 2.86C104.329 3.08667 104.842 3.38667 105.269 3.76C105.695 4.13333 106.022 4.56 106.249 5.04C106.475 5.52 106.589 6.02 106.589 6.54V7.46C106.589 7.98 106.475 8.48 106.249 8.96C106.022 9.44 105.695 9.86667 105.269 10.24C104.842 10.6133 104.329 10.9133 103.729 11.14C103.129 11.3667 102.449 11.48 101.689 11.48ZM101.689 9.76C102.102 9.76 102.489 9.69333 102.849 9.56C103.222 9.42667 103.542 9.25333 103.809 9.04C104.089 8.81333 104.302 8.55333 104.449 8.26C104.609 7.96667 104.689 7.66 104.689 7.34V6.66C104.689 6.32667 104.609 6.01333 104.449 5.72C104.302 5.41333 104.089 5.15333 103.809 4.94C103.542 4.72667 103.222 4.56 102.849 4.44C102.489 4.30667 102.102 4.24 101.689 4.24C101.262 4.24 100.869 4.30667 100.509 4.44C100.149 4.56 99.8286 4.72667 99.5486 4.94C99.2819 5.15333 99.0686 5.41333 98.9086 5.72C98.7619 6.01333 98.6886 6.32667 98.6886 6.66V7.34C98.6886 7.66 98.7619 7.96667 98.9086 8.26C99.0686 8.55333 99.2819 8.81333 99.5486 9.04C99.8286 9.25333 100.149 9.42667 100.509 9.56C100.869 9.69333 101.262 9.76 101.689 9.76ZM108.029 15.48C107.189 15.56 106.329 15.6333 105.449 15.7C104.569 15.7533 103.635 15.8 102.649 15.84C101.675 15.88 100.629 15.9133 99.5086 15.94C98.4019 15.9533 97.1953 15.96 95.8886 15.96V14.24C97.2086 14.24 98.4153 14.2333 99.5086 14.22C100.615 14.2067 101.649 14.1867 102.609 14.16C103.569 14.12 104.475 14.0733 105.329 14.02C106.182 13.9667 107.022 13.9 107.849 13.82L108.029 15.48ZM108.989 19.8V1.36H110.949V19.8H108.989ZM122.632 19.92V14.88H132.112V13.1H122.532V11.46H134.052V16.48H124.572V18.28H134.572V19.92H122.632ZM123.752 1.7C124.512 1.7 125.178 1.82 125.752 2.06C126.325 2.28667 126.798 2.58667 127.172 2.96C127.558 3.33333 127.845 3.74667 128.032 4.2C128.232 4.64 128.332 5.08 128.332 5.52V6.28C128.332 6.72 128.232 7.16667 128.032 7.62C127.845 8.06 127.558 8.46667 127.172 8.84C126.798 9.21333 126.325 9.52 125.752 9.76C125.178 9.98667 124.512 10.1 123.752 10.1C122.992 10.1 122.325 9.98667 121.752 9.76C121.178 9.52 120.698 9.21333 120.312 8.84C119.938 8.46667 119.652 8.06 119.452 7.62C119.265 7.16667 119.172 6.72 119.172 6.28V5.52C119.172 5.08 119.265 4.64 119.452 4.2C119.652 3.74667 119.938 3.33333 120.312 2.96C120.698 2.58667 121.178 2.28667 121.752 2.06C122.325 1.82 122.992 1.7 123.752 1.7ZM132.112 10.5V8.6H129.212V6.94H132.112V5.1H129.212V3.44H132.112V1.36H134.052V10.5H132.112ZM123.752 8.4C124.178 8.4 124.558 8.34 124.892 8.22C125.225 8.08667 125.505 7.92 125.732 7.72C125.958 7.50667 126.132 7.26667 126.252 7C126.372 6.73333 126.432 6.46667 126.432 6.2V5.6C126.432 5.33333 126.372 5.07333 126.252 4.82C126.132 4.55333 125.958 4.32 125.732 4.12C125.505 3.90667 125.225 3.74 124.892 3.62C124.558 3.48667 124.178 3.42 123.752 3.42C123.325 3.42 122.945 3.48667 122.612 3.62C122.278 3.74 121.998 3.90667 121.772 4.12C121.545 4.32 121.372 4.55333 121.252 4.82C121.132 5.07333 121.072 5.33333 121.072 5.6V6.2C121.072 6.46667 121.132 6.73333 121.252 7C121.372 7.26667 121.545 7.50667 121.772 7.72C121.998 7.92 122.278 8.08667 122.612 8.22C122.945 8.34 123.325 8.4 123.752 8.4ZM141.015 16.02C141.015 15.54 141.142 15.0867 141.395 14.66C141.662 14.2333 142.035 13.86 142.515 13.54C143.008 13.22 143.602 12.9733 144.295 12.8C145.002 12.6133 145.795 12.52 146.675 12.52C147.555 12.52 148.342 12.6133 149.035 12.8C149.742 12.9733 150.335 13.22 150.815 13.54C151.308 13.86 151.682 14.2333 151.935 14.66C152.202 15.0867 152.335 15.54 152.335 16.02V16.82C152.335 17.3 152.202 17.7533 151.935 18.18C151.682 18.6067 151.308 18.98 150.815 19.3C150.335 19.62 149.742 19.8667 149.035 20.04C148.342 20.2267 147.555 20.32 146.675 20.32C145.795 20.32 145.002 20.2267 144.295 20.04C143.602 19.8667 143.008 19.62 142.515 19.3C142.035 18.98 141.662 18.6067 141.395 18.18C141.142 17.7533 141.015 17.3 141.015 16.82V16.02ZM142.795 8.18C142.728 8.35333 142.568 8.59333 142.315 8.9C142.062 9.19333 141.775 9.47333 141.455 9.74C141.028 10.1133 140.548 10.5067 140.015 10.92C139.495 11.3333 138.955 11.7333 138.395 12.12L137.235 10.7C137.875 10.2467 138.475 9.80667 139.035 9.38C139.595 8.94 140.055 8.54667 140.415 8.2C140.655 7.96 140.862 7.72667 141.035 7.5C141.208 7.27333 141.342 7.04 141.435 6.8C141.542 6.54667 141.615 6.28 141.655 6C141.708 5.70667 141.735 5.38 141.735 5.02V4.2H137.855V2.5H147.375V4.2H143.735V4.94C143.735 5.26 143.748 5.54667 143.775 5.8C143.802 6.05333 143.848 6.28667 143.915 6.5C143.995 6.71333 144.102 6.92 144.235 7.12C144.368 7.30667 144.548 7.5 144.775 7.7C145.242 8.12667 145.735 8.54 146.255 8.94C146.775 9.32667 147.335 9.71333 147.935 10.1L146.815 11.54C146.295 11.18 145.808 10.8267 145.355 10.48C144.902 10.1333 144.435 9.76 143.955 9.36C143.648 9.10667 143.395 8.88667 143.195 8.7C143.008 8.5 142.882 8.32667 142.815 8.18H142.795ZM150.395 16.14C150.395 15.9 150.308 15.66 150.135 15.42C149.962 15.18 149.715 14.9667 149.395 14.78C149.075 14.58 148.682 14.4267 148.215 14.32C147.762 14.2 147.248 14.14 146.675 14.14C146.102 14.14 145.582 14.2 145.115 14.32C144.662 14.4267 144.275 14.58 143.955 14.78C143.635 14.9667 143.388 15.18 143.215 15.42C143.042 15.66 142.955 15.9 142.955 16.14V16.7C142.955 16.94 143.042 17.18 143.215 17.42C143.388 17.66 143.635 17.8733 143.955 18.06C144.275 18.26 144.662 18.4133 145.115 18.52C145.582 18.64 146.102 18.7 146.675 18.7C147.248 18.7 147.762 18.64 148.215 18.52C148.682 18.4133 149.075 18.26 149.395 18.06C149.715 17.8733 149.962 17.66 150.135 17.42C150.308 17.18 150.395 16.94 150.395 16.7V16.14ZM150.295 12.26V7.58H146.895V5.88H150.295V1.36H152.255V12.26H150.295ZM157.478 19.92V15.3H167.598V13.94H157.378V12.32H169.538V16.88H159.418V18.3H170.078V19.92H157.478ZM171.978 9.4V11.04H155.058V9.4H171.978ZM163.518 1.46C164.438 1.46 165.258 1.54 165.978 1.7C166.711 1.84667 167.331 2.06 167.838 2.34C168.345 2.62 168.731 2.96 168.998 3.36C169.278 3.74667 169.418 4.17333 169.418 4.64V5.12C169.418 5.58667 169.278 6.02 168.998 6.42C168.731 6.80667 168.345 7.14 167.838 7.42C167.331 7.7 166.711 7.92 165.978 8.08C165.258 8.22667 164.438 8.3 163.518 8.3C162.598 8.3 161.771 8.22667 161.038 8.08C160.318 7.92 159.705 7.7 159.198 7.42C158.691 7.14 158.298 6.80667 158.018 6.42C157.751 6.02 157.618 5.58667 157.618 5.12V4.64C157.618 4.17333 157.751 3.74667 158.018 3.36C158.298 2.96 158.691 2.62 159.198 2.34C159.705 2.06 160.318 1.84667 161.038 1.7C161.771 1.54 162.598 1.46 163.518 1.46ZM163.518 6.66C164.785 6.66 165.758 6.50667 166.438 6.2C167.131 5.88 167.478 5.50667 167.478 5.08V4.68C167.478 4.25333 167.131 3.88667 166.438 3.58C165.758 3.26 164.785 3.1 163.518 3.1C162.251 3.1 161.271 3.26 160.578 3.58C159.898 3.88667 159.558 4.25333 159.558 4.68V5.08C159.558 5.50667 159.898 5.88 160.578 6.2C161.271 6.50667 162.251 6.66 163.518 6.66ZM192.821 12.62V19.78H181.581V12.62H192.821ZM189.381 9.98C188.674 10.0733 188.014 10.1467 187.401 10.2C186.788 10.2533 186.108 10.3 185.361 10.34C184.614 10.3667 183.748 10.3867 182.761 10.4C181.774 10.4133 180.561 10.42 179.121 10.42V2.44H187.661V4.14H181.061V8.72C182.088 8.72 182.954 8.71333 183.661 8.7C184.381 8.68667 185.034 8.66667 185.621 8.64C186.208 8.61333 186.774 8.58 187.321 8.54C187.868 8.48667 188.488 8.42 189.181 8.34L189.381 9.98ZM183.541 18.1H190.861V14.3H183.541V18.1ZM195.441 7.22H192.821V11.72H190.861V1.36H192.821V5.5H195.441V7.22ZM201.664 2.62C202.344 2.62 202.964 2.73333 203.524 2.96C204.098 3.18667 204.584 3.52667 204.984 3.98C205.398 4.42 205.718 4.97333 205.944 5.64C206.184 6.30667 206.304 7.08 206.304 7.96V10.04C206.304 10.92 206.184 11.6933 205.944 12.36C205.718 13.0267 205.398 13.58 204.984 14.02C204.584 14.46 204.098 14.7933 203.524 15.02C202.964 15.2467 202.344 15.36 201.664 15.36C200.984 15.36 200.358 15.2467 199.784 15.02C199.224 14.7933 198.738 14.46 198.324 14.02C197.924 13.58 197.604 13.0267 197.364 12.36C197.138 11.6933 197.024 10.92 197.024 10.04V7.96C197.024 7.08 197.138 6.30667 197.364 5.64C197.604 4.97333 197.924 4.42 198.324 3.98C198.738 3.52667 199.224 3.18667 199.784 2.96C200.358 2.73333 200.984 2.62 201.664 2.62ZM201.664 13.58C202.024 13.58 202.371 13.5133 202.704 13.38C203.038 13.2467 203.324 13.0333 203.564 12.74C203.818 12.4333 204.018 12.04 204.164 11.56C204.324 11.0667 204.404 10.4667 204.404 9.76V8.24C204.404 7.53333 204.324 6.94 204.164 6.46C204.018 5.96667 203.818 5.57333 203.564 5.28C203.324 4.97333 203.038 4.75333 202.704 4.62C202.371 4.48667 202.024 4.42 201.664 4.42C201.304 4.42 200.958 4.48667 200.624 4.62C200.291 4.75333 199.998 4.97333 199.744 5.28C199.504 5.57333 199.304 5.96667 199.144 6.46C198.998 6.94 198.924 7.53333 198.924 8.24V9.76C198.924 10.4667 198.998 11.0667 199.144 11.56C199.304 12.04 199.504 12.4333 199.744 12.74C199.998 13.0333 200.291 13.2467 200.624 13.38C200.958 13.5133 201.304 13.58 201.664 13.58ZM213.744 9.74H210.904V19.8H208.924V1.36H210.904V8.02H213.744V9.74ZM229.207 12.18H224.107V15.66H231.587V17.34H214.667V15.66H222.127V12.18H217.047V2.72H219.007V5.86H227.247V2.7H229.207V12.18ZM219.007 10.5H227.247V7.54H219.007V10.5ZM238.39 10.68C238.297 10.9067 238.157 11.14 237.97 11.38C237.784 11.62 237.53 11.9133 237.21 12.26C236.797 12.7133 236.337 13.2 235.83 13.72C235.324 14.2267 234.73 14.7933 234.05 15.42L232.75 14.08C233.35 13.5333 233.897 13.0133 234.39 12.52C234.897 12.0267 235.377 11.5267 235.83 11.02C236.164 10.66 236.43 10.3333 236.63 10.04C236.83 9.74667 236.984 9.46 237.09 9.18C237.197 8.9 237.27 8.61333 237.31 8.32C237.35 8.02667 237.37 7.69333 237.37 7.32V4.76H233.41V3.04H243.23V4.76H239.37V7.32C239.37 7.72 239.39 8.06667 239.43 8.36C239.47 8.65333 239.544 8.93333 239.65 9.2C239.77 9.46667 239.937 9.74667 240.15 10.04C240.364 10.32 240.65 10.6533 241.01 11.04C241.437 11.5067 241.87 11.9533 242.31 12.38C242.764 12.8067 243.29 13.28 243.89 13.8L242.59 15.14C241.91 14.5133 241.344 13.98 240.89 13.54C240.437 13.0867 240.017 12.6533 239.63 12.24C239.35 11.9333 239.097 11.6467 238.87 11.38C238.644 11.1133 238.49 10.88 238.41 10.68H238.39ZM250.13 9.9H247.29V19.8H245.31V1.36H247.29V8.18H250.13V9.9Z" fill="#3A3A3A"/>
</svg>
