<svg width="245" height="37" viewBox="0 0 245 37" fill="none" xmlns="http://www.w3.org/2000/svg">
<path d="M0 36.261C9.6 36.261 9.66667 25.5944 8.5 20.261C12.3333 16.9277 20 13.261 20 25.261C20 37.261 6.66667 37.5944 0 36.261Z" fill="#1563FC"/>
<rect x="3" width="242" height="35" rx="17.5" fill="#1563FC"/>
<path d="M22.784 21.616V22.624H30.384V23.936H20.992V22.96C20.992 22 20.96 21.1413 20.896 20.384H28.32V19.44H20.976V18.128H30.096V21.616H22.784ZM19.488 13.424V12.048H26.608V13.424H23.92C24.0907 14.096 24.4693 14.6347 25.056 15.04C25.6533 15.4347 26.4213 15.7813 27.36 16.08L26.464 17.296C25.888 17.1573 25.2533 16.896 24.56 16.512C23.8667 16.128 23.3547 15.6853 23.024 15.184C22.736 15.7493 22.2453 16.256 21.552 16.704C20.8587 17.152 20.176 17.488 19.504 17.712L18.48 16.512C18.992 16.32 19.4027 16.1493 19.712 16C20.032 15.84 20.3733 15.6373 20.736 15.392C21.1093 15.1467 21.4027 14.864 21.616 14.544C21.8293 14.2133 21.9733 13.84 22.048 13.424H19.488ZM28.4 17.472V13.104C28.4 11.7707 28.368 10.6827 28.304 9.84H30.096V12.704H31.952V14.256H30.096V17.472H28.4ZM25.136 9.792V11.136H20.96V9.792H25.136ZM33.3421 14.688V13.408H35.1501C36.3128 13.408 37.2088 13.3547 37.8381 13.248C38.0621 12.8213 38.2221 12.3787 38.3181 11.92H33.6301V10.48H40.3501C40.2648 12.432 39.5928 14.0693 38.3341 15.392C37.0861 16.7147 35.5501 17.6427 33.7261 18.176L32.7501 16.944C34.4781 16.4427 35.8541 15.6587 36.8781 14.592C36.3235 14.656 35.7528 14.688 35.1661 14.688H33.3421ZM44.0461 24.176H42.3501V20.464H34.6861V19.024H44.0461V24.176ZM42.3501 18.288V13.104C42.3501 11.984 42.3181 10.896 42.2541 9.84H44.0461V13.28H45.9021V14.832H44.0461V18.288H42.3501ZM49.5163 10.112L49.2763 19.936H47.8043L47.5483 10.112H49.5163ZM49.7243 22.192C49.7243 22.5547 49.6016 22.8427 49.3563 23.056C49.1216 23.28 48.8389 23.392 48.5082 23.392C48.1669 23.392 47.8843 23.2853 47.6603 23.072C47.4363 22.8587 47.3243 22.5653 47.3243 22.192C47.3243 21.8507 47.4416 21.5787 47.6763 21.376C47.9109 21.1627 48.1936 21.056 48.5243 21.056C48.8549 21.056 49.1376 21.1627 49.3723 21.376C49.6069 21.5787 49.7243 21.8507 49.7243 22.192ZM62.6494 16.688C61.0707 16.688 59.8174 16.3893 58.8894 15.792C57.9614 15.1947 57.4974 14.3787 57.4974 13.344C57.4974 12.3093 57.9614 11.488 58.8894 10.88C59.8174 10.2613 61.0707 9.952 62.6494 9.952C64.2067 9.952 65.4547 10.2613 66.3934 10.88C67.332 11.488 67.8014 12.3093 67.8014 13.344C67.8014 14.368 67.332 15.184 66.3934 15.792C65.4654 16.3893 64.2174 16.688 62.6494 16.688ZM56.1054 19.36V17.888H69.1774V19.36H63.4974V24.128H61.7854V19.36H56.1054ZM62.6494 15.264C63.6734 15.264 64.484 15.0987 65.0814 14.768C65.6894 14.4373 65.9934 13.952 65.9934 13.312C65.9934 12.6827 65.6947 12.2027 65.0974 11.872C64.5 11.5307 63.684 11.36 62.6494 11.36C61.5934 11.36 60.772 11.5307 60.1854 11.872C59.5987 12.2027 59.3054 12.6827 59.3054 13.312C59.3054 13.952 59.5987 14.4373 60.1854 14.768C60.7827 15.0987 61.604 15.264 62.6494 15.264ZM77.6555 16.272H72.8395V19.2H74.4235C76.2582 19.2 77.9008 19.0453 79.3515 18.736V20.16C77.8368 20.4907 76.1355 20.656 74.2475 20.656H71.1595V18.128C71.1595 16.912 71.1222 15.8133 71.0475 14.832H75.9595V12.016H71.1755V10.576H77.6555V16.272ZM80.3115 24.128V13.024C80.3115 11.7333 80.2742 10.672 80.1995 9.84H82.0075V24.128H80.3115ZM85.2536 13.92C85.2536 12.9067 85.595 12.0533 86.2776 11.36C86.971 10.656 87.899 10.304 89.0616 10.304C90.2243 10.304 91.147 10.656 91.8296 11.36C92.523 12.0533 92.8696 12.9067 92.8696 13.92C92.8696 14.9333 92.5176 15.7867 91.8136 16.48C91.1203 17.1733 90.203 17.52 89.0616 17.52C87.8883 17.52 86.9603 17.1787 86.2776 16.496C85.595 15.8027 85.2536 14.944 85.2536 13.92ZM86.9656 13.92C86.9656 14.5493 87.147 15.072 87.5096 15.488C87.883 15.8933 88.4003 16.096 89.0616 16.096C89.7336 16.096 90.2456 15.8933 90.5976 15.488C90.9603 15.072 91.1416 14.5493 91.1416 13.92C91.1416 13.3013 90.9603 12.784 90.5976 12.368C90.235 11.952 89.723 11.744 89.0616 11.744C88.411 11.744 87.899 11.952 87.5256 12.368C87.1523 12.784 86.9656 13.3013 86.9656 13.92ZM94.6296 24.128V13.024C94.6296 11.7333 94.5923 10.672 94.5176 9.84H96.3256V24.128H94.6296ZM84.6616 21.12V19.632H87.6376C90.2083 19.632 92.363 19.4613 94.1016 19.12V20.592C92.1816 20.944 90.0056 21.12 87.5736 21.12H84.6616ZM110.771 14.096H113.251V12.608H110.755C110.819 12.864 110.851 13.1307 110.851 13.408C110.851 13.6213 110.825 13.8507 110.771 14.096ZM105.763 11.952C105.411 12.336 105.235 12.816 105.235 13.392C105.235 13.968 105.411 14.4533 105.763 14.848C106.126 15.2427 106.611 15.44 107.219 15.44C107.806 15.44 108.275 15.2427 108.627 14.848C108.979 14.4533 109.155 13.968 109.155 13.392C109.155 12.816 108.979 12.336 108.627 11.952C108.275 11.5573 107.806 11.36 107.219 11.36C106.611 11.36 106.126 11.5573 105.763 11.952ZM107.411 21.472V22.608H115.219V23.936H105.619V22.864C105.619 21.84 105.587 20.9547 105.523 20.208H113.155V19.264H105.603V17.936H114.931V21.472H107.411ZM103.539 13.408C103.539 12.4373 103.886 11.6213 104.579 10.96C105.273 10.2987 106.153 9.968 107.219 9.968C108.382 9.968 109.31 10.368 110.003 11.168H113.219C113.209 10.8907 113.182 10.448 113.139 9.84H114.931V17.232H113.251V15.52H110.099C109.406 16.384 108.446 16.816 107.219 16.816C106.153 16.816 105.273 16.4907 104.579 15.84C103.886 15.1787 103.539 14.368 103.539 13.408ZM119.409 21.376C119.409 20.4587 119.857 19.7333 120.753 19.2C121.66 18.656 122.881 18.384 124.417 18.384C125.975 18.384 127.196 18.656 128.081 19.2C128.967 19.7333 129.409 20.464 129.409 21.392C129.409 22.32 128.967 23.0453 128.081 23.568C127.196 24.0907 125.975 24.352 124.417 24.352C122.86 24.352 121.633 24.0853 120.737 23.552C119.852 23.0293 119.409 22.304 119.409 21.376ZM117.985 11.936V10.496H125.073V11.936H122.417V12.08C122.417 14.0427 123.617 15.472 126.017 16.368L125.025 17.584C124.407 17.36 123.761 16.9867 123.089 16.464C122.417 15.9307 121.921 15.36 121.601 14.752C121.313 15.424 120.828 16.0587 120.145 16.656C119.473 17.2427 118.801 17.696 118.129 18.016L116.977 16.896C119.441 15.7547 120.673 14.1973 120.673 12.224V11.936H117.985ZM124.945 14.4V12.912H127.489C127.489 11.856 127.457 10.832 127.393 9.84H129.185V18.24H127.489V14.4H124.945ZM121.121 21.36C121.121 21.8613 121.42 22.24 122.017 22.496C122.615 22.7627 123.415 22.896 124.417 22.896C125.42 22.896 126.22 22.768 126.817 22.512C127.415 22.2667 127.713 21.8987 127.713 21.408C127.713 20.9067 127.409 20.5227 126.801 20.256C126.204 19.9893 125.409 19.856 124.417 19.856C123.415 19.856 122.615 19.984 122.017 20.24C121.42 20.496 121.121 20.8693 121.121 21.36ZM134.448 12.224C134.448 13.024 135.541 13.424 137.728 13.424C139.914 13.424 141.008 13.024 141.008 12.224C141.008 11.4667 139.914 11.088 137.728 11.088C135.541 11.088 134.448 11.4667 134.448 12.224ZM137.728 14.736C136.138 14.736 134.896 14.5227 134 14.096C133.114 13.6587 132.672 13.0453 132.672 12.256C132.672 11.456 133.114 10.8373 134 10.4C134.896 9.96267 136.138 9.744 137.728 9.744C139.296 9.744 140.528 9.968 141.424 10.416C142.33 10.8533 142.784 11.4667 142.784 12.256C142.784 13.0453 142.336 13.6587 141.44 14.096C140.544 14.5227 139.306 14.736 137.728 14.736ZM131.184 16.992V15.648H144.256V16.992H131.184ZM134.704 21.584V22.624H142.736V23.936H132.928V22.992C132.928 22.1387 132.896 21.2427 132.832 20.304H140.72V19.312H132.912V18H142.496V21.584H134.704ZM154.893 15.616V14.112H157.485V13.264C157.485 11.9733 157.448 10.912 157.373 10.08H159.101V23.456H157.485V15.616H154.893ZM160.365 24.128V13.024C160.365 11.7333 160.328 10.672 160.253 9.84H161.981V24.128H160.365ZM150.957 20.448V13.84C150.957 12.432 150.92 11.3387 150.845 10.56H152.653V18.944H153.549C154.584 18.944 155.645 18.848 156.733 18.656V20.112C155.698 20.336 154.504 20.448 153.149 20.448H150.957ZM169.611 14.864V13.584H171.419C172.485 13.584 173.371 13.5307 174.075 13.424C174.299 12.9653 174.459 12.4693 174.555 11.936H169.931V10.48H176.571C176.507 12.464 175.872 14.1653 174.667 15.584C173.461 17.0027 171.899 18.0587 169.979 18.752L168.987 17.52C170.747 16.9333 172.155 16.016 173.211 14.768C172.443 14.832 171.851 14.864 171.435 14.864H169.611ZM176.859 18.144V18.864C176.859 19.7707 177.344 20.6187 178.315 21.408C179.296 22.1867 180.363 22.6933 181.515 22.928L180.507 24.096C179.653 23.8933 178.789 23.5093 177.915 22.944C177.04 22.3787 176.4 21.728 175.995 20.992C175.579 21.728 174.933 22.384 174.059 22.96C173.184 23.536 172.325 23.9253 171.483 24.128L170.475 22.928C171.701 22.6293 172.779 22.1173 173.707 21.392C174.635 20.656 175.099 19.8133 175.099 18.864V18.144H176.859ZM176.235 14.96V13.44H178.939V13.104C178.939 11.7707 178.907 10.6827 178.843 9.84H180.635V19.2H178.939V14.96H176.235ZM182.969 15.664C182.969 14.672 183.054 13.8187 183.225 13.104C183.406 12.3787 183.652 11.824 183.961 11.44C184.27 11.0453 184.601 10.7627 184.953 10.592C185.316 10.4107 185.71 10.32 186.137 10.32C186.937 10.32 187.63 10.6773 188.217 11.392C188.804 12.1067 189.145 13.2427 189.241 14.8H190.569V13.264C190.569 11.9733 190.532 10.912 190.457 10.08H192.185V23.456H190.569V16.32H189.257C189.182 17.952 188.846 19.1467 188.249 19.904C187.662 20.6507 186.958 21.024 186.137 21.024C185.23 21.024 184.473 20.6027 183.865 19.76C183.268 18.9067 182.969 17.5413 182.969 15.664ZM193.289 24.128V13.024C193.289 11.7333 193.252 10.672 193.177 9.84H194.905V24.128H193.289ZM184.585 15.664C184.585 16.9013 184.724 17.8667 185.001 18.56C185.289 19.2533 185.668 19.6 186.137 19.6C186.596 19.6 186.964 19.2533 187.241 18.56C187.518 17.8667 187.657 16.9013 187.657 15.664C187.657 14.4373 187.518 13.4773 187.241 12.784C186.964 12.08 186.596 11.728 186.137 11.728C185.668 11.728 185.289 12.08 185.001 12.784C184.724 13.488 184.585 14.448 184.585 15.664ZM203.895 23.904V21.536C203.895 20.256 203.863 19.2 203.799 18.368H212.983V23.904H203.895ZM202.487 16.848V13.776C202.487 12.5813 202.449 11.4827 202.375 10.48H209.031V11.952H204.167V15.36H205.591C207.233 15.36 208.903 15.2 210.599 14.88V16.336C209.02 16.6773 207.303 16.848 205.447 16.848H202.487ZM211.287 17.632V13.104C211.287 11.824 211.255 10.736 211.191 9.84H212.983V12.432H214.823V13.984H212.983V17.632H211.287ZM205.575 19.776V22.48H211.287V19.776H205.575ZM216.085 15.648C216.085 14.6453 216.181 13.7867 216.373 13.072C216.565 12.3467 216.837 11.7867 217.189 11.392C217.541 10.9973 217.919 10.7147 218.325 10.544C218.741 10.3627 219.205 10.272 219.717 10.272C220.741 10.272 221.589 10.6987 222.261 11.552C222.943 12.4053 223.285 13.776 223.285 15.664C223.285 17.5307 222.943 18.8907 222.261 19.744C221.589 20.5973 220.741 21.024 219.717 21.024C218.65 21.024 217.775 20.6027 217.093 19.76C216.421 18.9067 216.085 17.536 216.085 15.648ZM225.253 24.128V13.024C225.253 11.7333 225.215 10.672 225.141 9.84H226.917V14.624H228.933V16.192H226.917V24.128H225.253ZM217.781 15.648C217.781 16.9067 217.951 17.8827 218.293 18.576C218.634 19.2587 219.109 19.6 219.717 19.6C220.314 19.6 220.778 19.2587 221.109 18.576C221.439 17.8827 221.605 16.9067 221.605 15.648C221.605 14.4 221.439 13.4293 221.109 12.736C220.778 12.0427 220.314 11.696 219.717 11.696C219.109 11.696 218.634 12.048 218.293 12.752C217.951 13.4453 217.781 14.4107 217.781 15.648Z" fill="white"/>
</svg>
