<svg width="243" height="60" viewBox="0 0 243 60" fill="none" xmlns="http://www.w3.org/2000/svg">
<path d="M28.872 43.472C28.872 45.5627 28.7013 47.568 28.36 49.488C28.0187 51.408 27.3573 53.0933 26.376 54.544C25.4373 55.9947 24.0933 57.1467 22.344 58C20.6373 58.896 18.376 59.344 15.56 59.344C12.744 59.344 10.4613 58.9173 8.712 58.064C6.96267 57.2107 5.59733 56.0587 4.616 54.608C3.67733 53.1573 3.03733 51.472 2.696 49.552C2.39733 47.632 2.248 45.6267 2.248 43.536V37.264C2.248 35.1733 2.39733 33.168 2.696 31.248C3.03733 29.328 3.67733 27.6427 4.616 26.192C5.59733 24.7413 6.96267 23.5893 8.712 22.736C10.4613 21.8827 12.744 21.456 15.56 21.456C18.376 21.456 20.6373 21.904 22.344 22.8C24.0933 23.6533 25.4373 24.8053 26.376 26.256C27.3573 27.7067 28.0187 29.392 28.36 31.312C28.7013 33.232 28.872 35.2373 28.872 37.328V43.472ZM41.096 24.464H48.392V0.848H55.112V59.856H48.392V30.16H41.096V59.024H34.44V1.424H41.096V24.464ZM9.16 43.408C9.16 45.072 9.224 46.544 9.352 47.824C9.52267 49.0613 9.82133 50.1067 10.248 50.96C10.7173 51.856 11.3573 52.5173 12.168 52.944C13.0213 53.4133 14.152 53.648 15.56 53.648C16.968 53.648 18.0773 53.4133 18.888 52.944C19.7413 52.5173 20.3813 51.856 20.808 50.96C21.2773 50.1067 21.576 49.04 21.704 47.76C21.8747 46.48 21.96 45.008 21.96 43.344V37.456C21.96 35.792 21.8747 34.32 21.704 33.04C21.576 31.76 21.2773 30.6933 20.808 29.84C20.3813 28.944 19.7413 28.2827 18.888 27.856C18.0773 27.3867 16.968 27.152 15.56 27.152C14.152 27.152 13.0213 27.3867 12.168 27.856C11.3573 28.2827 10.7173 28.944 10.248 29.84C9.82133 30.6933 9.52267 31.76 9.352 33.04C9.224 34.2773 9.16 35.728 9.16 37.392V43.408ZM30.92 11.92V17.68H0.2V11.92H30.92ZM24.456 1.104V6.864H6.6V1.104H24.456ZM85.926 23.184C86.182 21.392 86.31 19.472 86.31 17.424V7.504H64.23V1.744H93.158V15.632C93.158 21.2213 92.518 26.2133 91.238 30.608C90.0007 35.0027 88.2087 38.9493 85.862 42.448C83.558 45.904 80.7207 48.9547 77.35 51.6C73.9793 54.2453 70.182 56.592 65.958 58.64L62.566 53.776C65.126 52.5813 67.558 51.1947 69.862 49.616C72.2087 47.9947 74.342 46.1813 76.262 44.176C78.2247 42.128 79.9313 39.8453 81.382 37.328C82.8327 34.8107 83.9847 32.016 84.838 28.944H63.846V23.184H85.926ZM109.67 24.4V0.911999H116.518V59.856H109.67V30.16H96.23V24.4H109.67Z" fill="#1563FC"/>
<path d="M156.74 57.808H129.028V2.64H131.78V55.248H156.74V57.808ZM163.908 26V2.384H166.66V58.064H163.908V28.56H149.764V26H163.908ZM178.564 59.088H175.812V1.872H178.564V59.088ZM213.154 15.12C214.647 12.3893 215.394 9.44533 215.394 6.288V5.2H192.162V2.64H218.21V5.648C218.21 8.93333 217.549 12.0053 216.226 14.864C214.946 17.68 213.133 20.2827 210.786 22.672C208.439 25.0187 205.645 27.1093 202.402 28.944C199.159 30.736 195.597 32.2293 191.714 33.424L190.434 31.312C194.957 29.9893 199.053 28.176 202.722 25.872C206.434 23.5253 209.399 20.7947 211.618 17.68H191.138V15.12H213.154ZM241.442 59.472C239.095 59.1307 236.727 58.6187 234.338 57.936C231.949 57.296 229.687 56.464 227.554 55.44C225.463 54.416 223.586 53.2 221.922 51.792C220.258 50.4267 218.957 48.848 218.018 47.056C217.122 48.848 215.821 50.4267 214.114 51.792C212.45 53.2 210.551 54.416 208.418 55.44C206.327 56.464 204.087 57.296 201.698 57.936C199.351 58.6187 197.005 59.1307 194.658 59.472L193.57 57.04C196.258 56.6987 198.967 56.1227 201.698 55.312C204.429 54.544 206.903 53.52 209.122 52.24C211.341 50.96 213.154 49.4027 214.562 47.568C215.97 45.7333 216.674 43.5787 216.674 41.104V37.84H219.426V41.104C219.426 43.5787 220.13 45.7547 221.538 47.632C222.946 49.4667 224.759 51.024 226.978 52.304C229.197 53.584 231.671 54.608 234.402 55.376C237.133 56.144 239.842 56.6987 242.53 57.04L241.442 59.472ZM237.218 15.376V1.808H239.97V37.904H237.218V17.936H221.538V15.376H237.218Z" fill="#212B3B"/>
</svg>
